{
classes = (
{
code = "dvHalant dvRakar";
name = MK_dvConjunctMarks;
}
);
customParameters = (
{
name = openTypeOS2VendorID;
value = " RST";
},
{
name = openTypeOS2Type;
value = (
    2
);
}
);
date = "2014-10-10 15:11:42 +0000";
designer = "Vaibhav Singh";
familyName = "Eczar";
featurePrefixes = (
{
code = "languagesystem DFLT dflt;\012languagesystem dev2 dflt;\012#languagesystem dev2 MAR;\012#languagesystem dev2 SAN;\012#languagesystem dev2 NEP;";
name = Languagesystems;
}
);
features = (
{
code = "sub dvNa dvNukta by dvNnna;\012#sub dvRa dvNukta by dvRra;\012#sub dvLla dvNukta by dvLlla;\012sub dvKa dvNukta by dvQa;\012sub dvKha dvNukta by dvKhha;\012sub dvGa dvNukta by dvGhha;\012sub dvJa dvNukta by dvZa;\012sub dvDda dvNukta by dvDddha;\012sub dvDdha dvNukta by dvRha;\012sub dvPha dvNukta by dvFa;\012sub dvYa dvNukta by dvYya;\012";
name = nukt;
},
{
code = "lookupflag MarkAttachmentType @MK_dvConjunctMarks;\012\011\012sub dvKa dvHalant dvSsa by dvKSsa;\012sub dvJa dvHalant dvNya by dvJNya;\012\011\012#sub dvRa' dvHalant' zerowidthjoiner by dvReph.MAR;";
name = akhn;
},
{
code = "lookupflag MarkAttachmentType @MK_dvConjunctMarks;\012\011\012sub dvRa' dvHalant' by dvReph;";
name = rphf;
},
{

glyphs = (
{
color = 3;
glyphname = A;
lastChange = "2014-11-10 18:28:50 +0000";
layers = (
{
anchors = (
{
name = ogonek;
position = "{658, 1}";
},
{
name = top;
position = "{364, 650}";
}
);
background = {
paths = (
{
closed = 1;
nodes = (
"575 0 LINE",
"676 0 LINE",
"399 674 LINE",
"320 647 LINE"
);
},
{
closed = 1;
nodes = (
"387 612 LINE",
"330 637 LINE",
"67 0 LINE",
"147 0 LINE"
);
},
{
closed = 1;
nodes = (
"212 201 LINE",
"503 201 LINE",
"503 262 LINE",
"212 262 LINE"
);
},
{
closed = 1;
nodes = (
"110 0 LINE",
"109 70 LINE",
"109 70 OFFCURVE",
"37 49 OFFCURVE",
"10 35 CURVE",
"16 0 LINE"
);
},
{
closed = 1;
nodes = (
"274 0 LINE",
"275 47 LINE",
"137 63 LINE",
"134 0 LINE"
);
},
{
closed = 1;
nodes = (
"598 0 LINE",
"550 70 LINE",
"550 70 OFFCURVE",
"478 49 OFFCURVE",
"451 35 CURVE",
"457 0 LINE"
);
},
{
closed = 1;
nodes = (
"725 0 LINE",
"726 47 LINE",
"588 63 LINE",
"585 0 LINE"
);
}
);
};
layerId = UUID0;
name = Regular;
paths = (
{
closed = 1;
nodes = (
"67 0 LINE",
"147 0 LINE",
"387 612 LINE",
"330 637 LINE"
);
},
{
closed = 1;
nodes = (
"320 647 LINE",
"575 0 LINE",
"676 0 LINE",
"399 674 LINE"
);
},
{
closed = 1;
nodes = (
"212 262 LINE",
"212 201 LINE",
"503 201 LINE",
"503 262 LINE"
);
},
{
closed = 1;
nodes = (
"76 57 OFFCURVE",
"40 46 OFFCURVE",
"10 32 CURVE",
"16 0 LINE",
"110 0 LINE",
"109 67 LINE"
);
},
{
closed = 1;
nodes = (
"134 0 LINE",
"274 0 LINE",
"275 47 LINE",
"137 63 LINE"
);
},
{
closed = 1;
nodes = (
"517 57 OFFCURVE",
"481 46 OFFCURVE",
"451 32 CURVE",
"457 0 LINE",
"603 0 LINE",
"550 67 LINE"
);
},
{
closed = 1;
nodes = (
"585 0 LINE",
"725 0 LINE",
"726 47 LINE",
"588 63 LINE"
);
}
);
width = 736;
},
{
associatedMasterId = UUID0;
layerId = "F4ADEA90-A94D-4DA3-A9A0-9652B91B5ADD";
name = "new Layer May 3 14, 21:44";
paths = (
{
closed = 1;
nodes = (
"569 0 LINE",
"670 0 LINE",
"393 674 LINE",
"314 647 LINE"
);
},
{
closed = 1;
nodes = (
"381 612 LINE",
"324 637 LINE",
"61 0 LINE",
"141 0 LINE"
);
},
{
closed = 1;
nodes = (
"206 201 LINE",
"497 201 LINE",
"497 262 LINE",
"206 262 LINE"
);
},
{
closed = 1;
nodes = (
"104 0 LINE",
"103 70 LINE",
"103 70 OFFCURVE",
"31 49 OFFCURVE",
"4 35 CURVE",
"10 0 LINE"
);
},
{
closed = 1;
nodes = (
"268 0 LINE",
"269 47 LINE",
"131 63 LINE",
"128 0 LINE"
);
},
{
closed = 1;
nodes = (
"592 0 LINE",
"544 70 LINE",
"544 70 OFFCURVE",
"472 49 OFFCURVE",
"445 35 CURVE",
"451 0 LINE"
);
},
{
closed = 1;
nodes = (
"719 0 LINE",
"720 47 LINE",
"582 63 LINE",
"579 0 LINE"
);
}
);
width = 736;
},
{
anchors = (
{
name = ogonek;
position = "{741, 0}";
},
{
name = top;
position = "{366, 650}";
}
);
layerId = "818F884A-9448-4DD2-A77B-976162CCCBC7";
name = Bold;
paths = (
{
closed = 1;
nodes = (
"28 0 LINE",
"171 0 LINE",
"411 612 LINE",
"291 637 LINE"
);
},
{
closed = 1;
nodes = (
"235 624 LINE",
"479 0 LINE",
"730 0 LINE",
"453 674 LINE"
);
},
{
closed = 1;
nodes = (
"185 252 LINE",
"185 152 LINE",
"529 152 LINE",
"529 252 LINE"
);
},
{
closed = 1;
nodes = (
"40 77 OFFCURVE",
"7 56 OFFCURVE",
"-20 32 CURVE",
"-14 0 LINE",
"80 0 LINE",
"79 97 LINE"
);
},
{
closed = 1;
nodes = (
"140 0 LINE",
"280 0 LINE",
"281 57 LINE",
"143 83 LINE"
);
},
{
closed = 1;
nodes = (
"440 77 OFFCURVE",
"407 56 OFFCURVE",
"380 32 CURVE",
"386 0 LINE",
"480 0 LINE",
"479 97 LINE"
);
},
{
closed = 1;
nodes = (
"631 0 LINE",
"771 0 LINE",
"772 57 LINE",
"634 83 LINE"
);
}
);
width = 752;
},
{
associatedMasterId = "818F884A-9448-4DD2-A77B-976162CCCBC7";
layerId = "433F5A0F-5C31-428E-ADCD-00F1AC42F0F7";
name = "new Layer May 10 14, 15:15";
width = 507;
}
);
leftKerningGroup = A;
rightKerningGroup = A;
unicode = 0041;
},
{
color = 3;
glyphname = Aring;
lastChange = "2014-11-11 23:38:42 +0000";
layers = (
{
background = {
anchors = (
{
name = top;
position = "{358, 532}";
}
);
components = (
{
disableAlignment = 1;
name = ringcomb.case;
transform = "{1, 0, 0, 1, 366, -111}";
}
);
paths = (
{
closed = 1;
nodes = (
"569 0 LINE",
"670 0 LINE",
"418 614 LINE",
"361 604 LINE",
"314 647 LINE"
);
},
{
closed = 1;
nodes = (
"381 612 LINE",
"341 610 LINE",
"324 637 LINE",
"61 0 LINE",
"141 0 LINE"
);
},
{
closed = 1;
nodes = (
"206 201 LINE",
"497 201 LINE",
"497 262 LINE",
"206 262 LINE"
);
},
{
closed = 1;
nodes = (
"104 0 LINE",
"103 70 LINE",
"103 70 OFFCURVE",
"31 49 OFFCURVE",
"4 35 CURVE",
"10 0 LINE"
);
},
{
closed = 1;
nodes = (
"268 0 LINE",
"269 47 LINE",
"131 63 LINE",
"128 0 LINE"
);
},
{
closed = 1;
nodes = (
"592 0 LINE",
"544 70 LINE",
"544 70 OFFCURVE",
"472 49 OFFCURVE",
"445 35 CURVE",
"451 0 LINE"
);
},
{
closed = 1;
nodes = (
"719 0 LINE",
"720 47 LINE",
"582 63 LINE",
"579 0 LINE"
);
}
);
};
components = (
{
name = A;
transform = "{1, 0, 0, 1, 0, 0}";
},
{
name = ringcomb.case;
transform = "{1, 0, 0, 1, 364, 0}";
}
);
layerId = UUID0;
name = Regular;
width = 736;
},
{
associatedMasterId = UUID0;
components = (
{
name = ringcomb;
transform = "{1, 0, 0, 1, 359, 37}";
}
);
layerId = "1D739ACA-A9A1-4752-B9E8-C4FF0F7C58CF";
name = "new Layer May 3 14, 21:44";
paths = (
{
closed = 1;
nodes = (
"569 0 LINE",
"670 0 LINE",
"418 614 LINE",
"361 604 LINE",
"314 647 LINE"
);
},
{
closed = 1;
nodes = (
"381 612 LINE",
"341 610 LINE",
"324 637 LINE",
"61 0 LINE",
"141 0 LINE"
);
},
{
closed = 1;
nodes = (
"206 201 LINE",
"497 201 LINE",
"497 262 LINE",
"206 262 LINE"
);
},
{
closed = 1;
nodes = (
"104 0 LINE",
"103 70 LINE",
"103 70 OFFCURVE",
"31 49 OFFCURVE",
"4 35 CURVE",
"10 0 LINE"
);
},
{
closed = 1;
nodes = (
"268 0 LINE",
"269 47 LINE",
"131 63 LINE",
"128 0 LINE"
);
},
{
closed = 1;
nodes = (
"592 0 LINE",
"544 70 LINE",
"544 70 OFFCURVE",
"472 49 OFFCURVE",
"445 35 CURVE",
"451 0 LINE"
);
},
{
closed = 1;
nodes = (
"719 0 LINE",
"720 47 LINE",
"582 63 LINE",
"579 0 LINE"
);
}
);
width = 736;
},
{
components = (
{
name = A;
transform = "{1, 0, 0, 1, 0, 0}";
},
{
name = ringcomb.case;
transform = "{1, 0, 0, 1, 366, 0}";
}
);
layerId = "818F884A-9448-4DD2-A77B-976162CCCBC7";
name = Bold;
width = 752;
},
{
associatedMasterId = "818F884A-9448-4DD2-A77B-976162CCCBC7";
layerId = "CCDFC9AF-C862-4FD8-AF04-AE1BE356D437";
name = "(null) May 10 14, 15:15";
width = 600;
}
);
leftKerningGroup = A;
leftMetricsKey = A;
rightKerningGroup = A;
rightMetricsKey = A;
unicode = 00C5;
},
{
color = 3;
glyphname = AE;
lastChange = "2014-11-10 18:26:24 +0000";
layers = (
{
anchors = (
{
name = top;
position = "{534, 650}";
}
);
layerId = UUID0;
name = Regular;
paths = (
{
closed = 1;
nodes = (
"337 650 LINE",
"336 602 LINE",
"432 596 LINE",
"492 650 LINE"
);
},
{
closed = 1;
nodes = (
"848 650 LINE",
"455 650 LINE",
"530 586 LINE",
"831 573 LINE"
);
},
{
closed = 1;
nodes = (
"838 495 LINE",
"849 556 OFFCURVE",
"851 617 OFFCURVE",
"848 650 CURVE",
"768 605 LINE",
"784 497 LINE"
);
},
{
closed = 1;
nodes = (
"417 647 LINE",
"67 0 LINE",
"147 0 LINE",
"474 622 LINE"
);
},
{
closed = 1;
nodes = (
"461 650 LINE",
"461 0 LINE",
"554 0 LINE",
"554 650 LINE"
);
},
{
closed = 1;
nodes = (
"543 353 LINE",
"543 294 LINE",
"783 284 LINE",
"783 371 LINE"
);
},
{
closed = 1;
nodes = (
"253 262 LINE",
"253 201 LINE",
"544 201 LINE",
"544 262 LINE"
);
},
{
closed = 1;
nodes = (
"109 70 OFFCURVE",
"37 49 OFFCURVE",
"10 35 CURVE",
"16 0 LINE",
"110 0 LINE",
"109 70 LINE"
);
},
{
closed = 1;
nodes = (
"134 0 LINE",
"274 0 LINE",
"275 47 LINE",
"137 63 LINE"
);
},
{
closed = 1;
nodes = (
"475 70 OFFCURVE",
"403 49 OFFCURVE",
"376 35 CURVE",
"382 0 LINE",
"476 0 LINE",
"475 70 LINE"
);
},
{
closed = 1;
nodes = (
"530 64 LINE",
"455 0 LINE",
"848 0 LINE",
"831 77 LINE"
);
},
{
closed = 1;
nodes = (
"773 40 LINE",
"848 0 LINE",
"855 43 OFFCURVE",
"858 99 OFFCURVE",
"856 161 CURVE",
"803 165 LINE"
);
}
);
width = 909;
},
{
associatedMasterId = UUID0;
layerId = "A603D55F-7930-41CD-9647-94C806AC893E";
name = "new Layer May 3 14, 21:44";
paths = (
{
closed = 1;
nodes = (
"457 622 LINE",
"400 647 LINE",
"50 0 LINE",
"130 0 LINE"
);
},
{
closed = 1;
nodes = (
"236 201 LINE",
"527 201 LINE",
"527 262 LINE",
"236 262 LINE"
);
},
{
closed = 1;
nodes = (
"93 0 LINE",
"92 70 LINE",
"92 70 OFFCURVE",
"20 49 OFFCURVE",
"-7 35 CURVE",
"-1 0 LINE"
);
},
{
closed = 1;
nodes = (
"257 0 LINE",
"258 47 LINE",
"120 63 LINE",
"117 0 LINE"
);
},
{
closed = 1;
nodes = (
"513 586 LINE",
"814 573 LINE",
"831 650 LINE",
"438 650 LINE"
);
},
{
closed = 1;
nodes = (
"526 294 LINE",
"766 284 LINE",
"766 371 LINE",
"526 353 LINE"
);
},
{
closed = 1;
nodes = (
"438 0 LINE",
"831 0 LINE",
"814 77 LINE",
"513 64 LINE"
);
},
{
closed = 1;
nodes = (
"537 0 LINE",
"537 650 LINE",
"444 650 LINE",
"444 429 LINE",
"444 0 LINE"
);
},
{
closed = 1;
nodes = (
"459 0 LINE",
"458 70 LINE",
"458 70 OFFCURVE",
"386 49 OFFCURVE",
"359 35 CURVE",
"365 0 LINE"
);
},
{
closed = 1;
nodes = (
"320 650 LINE",
"319 602 LINE",
"415 596 LINE",
"475 650 LINE"
);
},
{
closed = 1;
nodes = (
"821 495 LINE",
"832 556 OFFCURVE",
"834 617 OFFCURVE",
"831 650 CURVE",
"751 605 LINE",
"767 497 LINE"
);
},
{
closed = 1;
nodes = (
"786 165 LINE",
"756 40 LINE",
"831 0 LINE",
"838 43 OFFCURVE",
"841 99 OFFCURVE",
"839 161 CURVE"
);
}
);
width = 899;
},
{
anchors = (
{
name = top;
position = "{542, 650}";
}
);
background = {
paths = (
{
closed = 1;
nodes = (
"454 622 LINE",
"397 647 LINE",
"47 0 LINE",
"127 0 LINE"
);
},
{
closed = 1;
nodes = (
"233 201 LINE",
"524 201 LINE",
"524 262 LINE",
"233 262 LINE"
);
},
{
closed = 1;
nodes = (
"90 0 LINE",
"89 70 LINE",
"89 70 OFFCURVE",
"17 49 OFFCURVE",
"-10 35 CURVE",
"-4 0 LINE"
);
},
{
closed = 1;
nodes = (
"254 0 LINE",
"255 47 LINE",
"117 63 LINE",
"114 0 LINE"
);
},
{
closed = 1;
nodes = (
"510 586 LINE",
"811 573 LINE",
"828 650 LINE",
"435 650 LINE"
);
},
{
closed = 1;
nodes = (
"523 294 LINE",
"763 284 LINE",
"763 371 LINE",
"523 353 LINE"
);
},
{
closed = 1;
nodes = (
"435 0 LINE",
"828 0 LINE",
"811 77 LINE",
"510 64 LINE"
);
},
{
closed = 1;
nodes = (
"534 0 LINE",
"534 650 LINE",
"441 650 LINE",
"441 0 LINE"
);
},
{
closed = 1;
nodes = (
"456 0 LINE",
"455 70 LINE",
"455 70 OFFCURVE",
"383 49 OFFCURVE",
"356 35 CURVE",
"362 0 LINE"
);
},
{
closed = 1;
nodes = (
"317 650 LINE",
"316 602 LINE",
"412 596 LINE",
"472 650 LINE"
);
},
{
closed = 1;
nodes = (
"818 495 LINE",
"829 556 OFFCURVE",
"831 617 OFFCURVE",
"828 650 CURVE",
"748 605 LINE",
"764 497 LINE"
);
},
{
closed = 1;
nodes = (
"783 165 LINE",
"753 40 LINE",
"828 0 LINE",
"835 43 OFFCURVE",
"838 99 OFFCURVE",
"836 161 CURVE"
);
}
);
};
layerId = "818F884A-9448-4DD2-A77B-976162CCCBC7";
name = Bold;
paths = (
{
closed = 1;
nodes = (
"259 650 LINE",
"258 593 LINE",
"396 567 LINE",
"459 650 LINE"
);
},
{
closed = 1;
nodes = (
"966 650 LINE",
"543 650 LINE",
"618 544 LINE",
"954 521 LINE"
);
},
{
closed = 1;
nodes = (
"941 422 LINE",
"956 471 OFFCURVE",
"971 601 OFFCURVE",
"966 650 CURVE",
"704 650 LINE",
"801 422 LINE"
);
},
{
closed = 1;
nodes = (
"371 637 LINE",
"38 0 LINE",
"181 0 LINE",
"491 612 LINE"
);
},
{
closed = 1;
nodes = (
"425 650 LINE",
"425 0 LINE",
"664 0 LINE",
"664 650 LINE"
);
},
{
closed = 1;
nodes = (
"621 369 LINE",
"621 280 LINE",
"861 270 LINE",
"861 387 LINE"
);
},
{
closed = 1;
nodes = (
"195 252 LINE",
"195 152 LINE",
"539 152 LINE",
"539 252 LINE"
);
},
{
closed = 1;
nodes = (
"50 77 OFFCURVE",
"17 56 OFFCURVE",
"-10 32 CURVE",
"-4 0 LINE",
"90 0 LINE",
"89 97 LINE"
);
},
{
closed = 1;
nodes = (
"150 0 LINE",
"290 0 LINE",
"291 57 LINE",
"153 83 LINE"
);
},
{
closed = 1;
nodes = (
"400 77 OFFCURVE",
"367 56 OFFCURVE",
"340 32 CURVE",
"346 0 LINE",
"440 0 LINE",
"439 97 LINE"
);
},
{
closed = 1;
nodes = (
"626 116 LINE",
"551 0 LINE",
"974 0 LINE",
"962 139 LINE"
);
},
{
closed = 1;
nodes = (
"712 0 LINE",
"974 0 LINE",
"979 49 OFFCURVE",
"964 179 OFFCURVE",
"949 228 CURVE",
"809 228 LINE"
);
}
);
width = 1000;
},
{
associatedMasterId = "818F884A-9448-4DD2-A77B-976162CCCBC7";
layerId = "76D8758B-EE47-4F27-8FC4-1561647950BA";
name = "(null) May 10 14, 15:15";
width = 600;
}
);
leftKerningGroup = A;
leftMetricsKey = A;
rightKerningGroup = E;
rightMetricsKey = E;
unicode = 00C6;
},
{
color = 3;
glyphname = B;
lastChange = "2014-11-10 18:25:53 +0000";
layers = (
{
background = {
paths = (
{
closed = 1;
nodes = (
"208 0 LINE",
"208 648 LINE",
"115 648 LINE",
"115 0 LINE"
);
},
{
closed = 1;
nodes = (
"114 0 LINE",
"129 70 LINE",
"129 70 OFFCURVE",
"57 49 OFFCURVE",
"30 35 CURVE",
"36 0 LINE"
);
},
{
closed = 1;
nodes = (
"45 650 LINE",
"44 602 LINE",
"140 596 LINE",
"126 638 OFFCURVE",
"134 634 OFFCURVE",
"138 650 CURVE"
);
},
{
closed = 1;
nodes = (
"45 650 OFFCURVE",
"204 591 OFFCURVE",
"204 591 CURVE",
"345 602 LINE",
"469 580 OFFCURVE",
"518 368 OFFCURVE",
"258 368 CURVE SMOOTH",
"180 368 LINE",
"180 368 OFFCURVE",
"180 315 OFFCURVE",
"180 315 CURVE",
"262 323 LINE",
"404 324 LINE",
"421 341 LINE",
"421 352 LINE",
"587 369 OFFCURVE",
"631 658 OFFCURVE",
"306 658 CURVE",
"214 658 OFFCURVE",
"45 650 OFFCURVE",
"45 650 CURVE"
);
},
{
closed = 1;
nodes = (
"187 314 LINE",
"306 314 LINE SMOOTH",
"526 314 OFFCURVE",
"541 42 OFFCURVE",
"308 61 CURVE SMOOTH",
"187 71 LINE",
"187 71 OFFCURVE",
"184 0 OFFCURVE",
"184 0 CURVE",
"318 0 LINE SMOOTH",
"682 0 OFFCURVE",
"657 374 OFFCURVE",
"336 348 CURVE SMOOTH",
"321 347 OFFCURVE",
"204 332 OFFCURVE",
"204 332 CURVE"
);
}
);
};
guideLines = (
{
position = "{345, 602}";
}
);
layerId = UUID0;
name = Regular;
paths = (
{
closed = 1;
nodes = (
"214 658 OFFCURVE",
"45 650 OFFCURVE",
"45 650 CURVE",
"204 591 LINE",
"345 602 LINE",
"404 592 OFFCURVE",
"446 538 OFFCURVE",
"446 485 CURVE SMOOTH",
"446 426 OFFCURVE",
"395 368 OFFCURVE",
"258 368 CURVE SMOOTH",
"180 368 LINE",
"180 315 LINE",
"262 323 LINE",
"393 346 LINE",
"502 352 OFFCURVE",
"549 422 OFFCURVE",
"549 492 CURVE SMOOTH",
"549 577 OFFCURVE",
"480 658 OFFCURVE",
"306 658 CURVE"
);
},
{
closed = 1;
nodes = (
"96 57 OFFCURVE",
"60 46 OFFCURVE",
"30 32 CURVE",
"36 0 LINE",
"130 0 LINE",
"129 67 LINE"
);
},
{
closed = 1;
nodes = (
"115 648 LINE",
"115 0 LINE",
"208 0 LINE",
"208 648 LINE"
);
},
{
closed = 1;
nodes = (
"204 332 LINE",
"187 314 LINE",
"306 314 LINE SMOOTH",
"418 314 OFFCURVE",
"476 243 OFFCURVE",
"476 177 CURVE SMOOTH",
"476 112 OFFCURVE",
"422 52 OFFCURVE",
"308 61 CURVE SMOOTH",
"187 71 LINE",
"184 0 LINE",
"318 0 LINE SMOOTH",
"498 0 OFFCURVE",
"584 84 OFFCURVE",
"584 179 CURVE SMOOTH",
"584 274 OFFCURVE",
"497 361 OFFCURVE",
"336 348 CURVE"
);
},
{
closed = 1;
nodes = (
"45 650 LINE",
"44 602 LINE",
"140 596 LINE",
"138 650 LINE"
);
}
);
width = 626;
},
{
associatedMasterId = UUID0;
layerId = "FFF39258-7C7A-4995-B1CA-141D41A5CBEE";
name = "new Layer May 3 14, 21:44";
paths = (
{
closed = 1;
nodes = (
"212 0 LINE",
"212 648 LINE",
"119 648 LINE",
"119 0 LINE"
);
},
{
closed = 1;
nodes = (
"118 0 LINE",
"133 70 LINE",
"133 70 OFFCURVE",
"61 49 OFFCURVE",
"34 35 CURVE",
"40 0 LINE"
);
},
{
closed = 1;
nodes = (
"49 650 LINE",
"48 602 LINE",
"144 596 LINE",
"130 638 OFFCURVE",
"138 634 OFFCURVE",
"142 650 CURVE"
);
},
{
closed = 1;
nodes = (
"49 650 OFFCURVE",
"208 591 OFFCURVE",
"208 591 CURVE",
"349 602 LINE",
"473 580 OFFCURVE",
"522 368 OFFCURVE",
"262 368 CURVE SMOOTH",
"184 368 LINE",
"184 368 OFFCURVE",
"184 315 OFFCURVE",
"184 315 CURVE",
"266 323 LINE",
"408 324 LINE",
"425 341 LINE",
"425 352 LINE",
"591 369 OFFCURVE",
"635 658 OFFCURVE",
"310 658 CURVE",
"218 658 OFFCURVE",
"49 650 OFFCURVE",
"49 650 CURVE"
);
},
{
closed = 1;
nodes = (
"191 314 LINE",
"310 314 LINE SMOOTH",
"530 314 OFFCURVE",
"545 42 OFFCURVE",
"312 61 CURVE SMOOTH",
"191 71 LINE",
"191 71 OFFCURVE",
"188 0 OFFCURVE",
"188 0 CURVE",
"322 0 LINE SMOOTH",
"686 0 OFFCURVE",
"661 374 OFFCURVE",
"340 348 CURVE SMOOTH",
"325 347 OFFCURVE",
"208 332 OFFCURVE",
"208 332 CURVE"
);
}
);
width = 628;
},
{
background = {
paths = (
{
closed = 1;
nodes = (
"389 658 OFFCURVE",
"159 650 OFFCURVE",
"159 650 CURVE",
"305 526 LINE",
"416 539 LINE",
"478 496 OFFCURVE",
"506 413 OFFCURVE",
"506 330 CURVE SMOOTH",
"506 190 OFFCURVE",
"425 52 OFFCURVE",
"290 119 CURVE",
"294 0 LINE",
"416 0 LINE SMOOTH",
"640 0 OFFCURVE",
"746 172 OFFCURVE",
"746 341 CURVE SMOOTH",
"746 501 OFFCURVE",
"649 658 OFFCURVE",
"466 658 CURVE"
);
}
);
};
layerId = "818F884A-9448-4DD2-A77B-976162CCCBC7";
name = Bold;
paths = (
{
closed = 1;
nodes = (
"357 658 OFFCURVE",
"188 650 OFFCURVE",
"188 650 CURVE",
"347 536 LINE",
"418 542 LINE",
"446 529 OFFCURVE",
"462 491 OFFCURVE",
"462 454 CURVE SMOOTH",
"462 411 OFFCURVE",
"440 368 OFFCURVE",
"391 368 CURVE SMOOTH",
"323 368 LINE",
"323 293 LINE",
"405 301 LINE",
"536 324 LINE",
"641 330 OFFCURVE",
"692 426 OFFCURVE",
"692 495 CURVE SMOOTH",
"692 575 OFFCURVE",
"623 658 OFFCURVE",
"449 658 CURVE"
);
},
{
closed = 1;
nodes = (
"85 77 OFFCURVE",
"52 56 OFFCURVE",
"25 32 CURVE",
"31 0 LINE",
"125 0 LINE",
"124 97 LINE"
);
},
{
closed = 1;
nodes = (
"110 650 LINE",
"110 0 LINE",
"349 0 LINE",
"349 650 LINE"
);
},
{
closed = 1;
nodes = (
"347 332 LINE",
"330 294 LINE",
"409 294 LINE SMOOTH",
"450 294 OFFCURVE",
"478 236 OFFCURVE",
"478 183 CURVE SMOOTH",
"478 137 OFFCURVE",
"456 93 OFFCURVE",
"401 101 CURVE SMOOTH",
"330 111 LINE",
"327 0 LINE",
"461 0 LINE SMOOTH",
"642 0 OFFCURVE",
"727 93 OFFCURVE",
"727 182 CURVE SMOOTH",
"727 273 OFFCURVE",
"640 361 OFFCURVE",
"479 348 CURVE"
);
},
{
closed = 1;
nodes = (
"40 650 LINE",
"39 593 LINE",
"177 567 LINE",
"180 650 LINE"
);
}
);
width = 752;
},
{
associatedMasterId = "818F884A-9448-4DD2-A77B-976162CCCBC7";
layerId = "B5AD801B-EE3F-490A-BB68-718978934D79";
name = "(null) May 10 14, 15:15";
width = 600;
}
);
leftKerningGroup = I;
leftMetricsKey = I;
rightMetricsKey = D;
unicode = 0042;
},
{
color = 3;
glyphname = C;
lastChange = "2014-11-10 18:02:45 +0000";
layers = (
{
anchors = (
{
name = bottom;
position = "{351, 0}";
},
{
name = top;
position = "{351, 650}";
}
);
background = {
paths = (
{
closed = 1;
nodes = (
"552 117 LINE",
"388 63 LINE",
"226 50 OFFCURVE",
"144 191 OFFCURVE",
"144 335 CURVE SMOOTH",
"144 444 OFFCURVE",
"187 549 OFFCURVE",
"273 598 CURVE",
"447 614 OFFCURVE",
"538 521 OFFCURVE",
"538 521 CURVE",
"564 609 LINE",
"533 633 OFFCURVE",
"462 670 OFFCURVE",
"364 670 CURVE SMOOTH",
"152 670 OFFCURVE",
"42 492 OFFCURVE",
"42 313 CURVE SMOOTH",
"42 142 OFFCURVE",
"147 -25 OFFCURVE",
"364 -22 CURVE",
"571 74 LINE"
);
},
{
closed = 1;
nodes = (
"547 454 LINE",
"566 511 OFFCURVE",
"567 576 OFFCURVE",
"564 609 CURVE",
"479 564 LINE",
"487 459 LINE"
);
}
);
};
layerId = UUID0;
name = Regular;
paths = (
{
closed = 1;
nodes = (
"552 117 LINE",
"388 63 LINE",
"226 50 OFFCURVE",
"144 191 OFFCURVE",
"144 335 CURVE SMOOTH",
"144 444 OFFCURVE",
"187 549 OFFCURVE",
"273 598 CURVE",
"376 607 OFFCURVE",
"465 582 OFFCURVE",
"538 521 CURVE",
"564 609 LINE",
"533 633 OFFCURVE",
"462 670 OFFCURVE",
"364 670 CURVE SMOOTH",
"152 670 OFFCURVE",
"42 492 OFFCURVE",
"42 313 CURVE SMOOTH",
"42 142 OFFCURVE",
"147 -23 OFFCURVE",
"364 -20 CURVE",
"571 74 LINE"
);
},
{
closed = 1;
nodes = (
"547 454 LINE",
"566 511 OFFCURVE",
"567 576 OFFCURVE",
"564 609 CURVE",
"479 564 LINE",
"487 459 LINE"
);
}
);
width = 604;
},
{
associatedMasterId = UUID0;
layerId = "F7EFCEC9-44B6-46B0-9835-D4E5C04652DD";
name = "new Layer May 3 14, 21:44";
paths = (
{
closed = 1;
nodes = (
"557 117 LINE",
"393 63 LINE",
"115 40 OFFCURVE",
"72 475 OFFCURVE",
"278 593 CURVE",
"452 609 OFFCURVE",
"543 516 OFFCURVE",
"543 516 CURVE",
"569 604 LINE",
"538 628 OFFCURVE",
"467 665 OFFCURVE",
"369 665 CURVE SMOOTH",
"-50 665 OFFCURVE",
"-71 -29 OFFCURVE",
"369 -22 CURVE",
"576 74 LINE"
);
},
{
closed = 1;
nodes = (
"552 449 LINE",
"571 506 OFFCURVE",
"572 571 OFFCURVE",
"569 604 CURVE",
"484 559 LINE",
"492 454 LINE"
);
}
);
width = 612;
},
{
anchors = (
{
name = bottom;
position = "{368, 0}";
},
{
name = top;
position = "{368, 650}";
}
);
background = {
paths = (
{
closed = 1;
nodes = (
"561 169 LINE",
"391 103 LINE",
"248 80 OFFCURVE",
"203 446 OFFCURVE",
"276 568 CURVE",
"379 577 OFFCURVE",
"458 552 OFFCURVE",
"531 491 CURVE",
"567 609 LINE",
"536 633 OFFCURVE",
"465 670 OFFCURVE",
"367 670 CURVE SMOOTH",
"155 670 OFFCURVE",
"25 492 OFFCURVE",
"25 313 CURVE SMOOTH",
"25 142 OFFCURVE",
"150 -25 OFFCURVE",
"367 -22 CURVE",
"600 86 LINE"
);
},
{
closed = 1;
nodes = (
"550 454 LINE",
"569 511 OFFCURVE",
"570 576 OFFCURVE",
"567 609 CURVE",
"482 564 LINE",
"490 459 LINE"
);
}
);
};
layerId = "818F884A-9448-4DD2-A77B-976162CCCBC7";
name = Bold;
paths = (
{
closed = 1;
nodes = (
"611 159 LINE",
"431 113 LINE",
"317 109 OFFCURVE",
"264 203 OFFCURVE",
"264 315 CURVE SMOOTH",
"264 389 OFFCURVE",
"282 472 OFFCURVE",
"326 538 CURVE",
"439 527 OFFCURVE",
"518 502 OFFCURVE",
"591 441 CURVE",
"627 609 LINE",
"596 629 OFFCURVE",
"525 670 OFFCURVE",
"407 670 CURVE SMOOTH",
"144 670 OFFCURVE",
"25 488 OFFCURVE",
"25 313 CURVE SMOOTH",
"25 165 OFFCURVE",
"96 -24 OFFCURVE",
"427 -20 CURVE",
"646 66 LINE"
);
},
{
closed = 1;
nodes = (
"611 401 LINE",
"626 450 OFFCURVE",
"631 560 OFFCURVE",
"626 609 CURVE",
"395 623 LINE",
"451 401 LINE"
);
}
);
width = 656;
},
{
associatedMasterId = "818F884A-9448-4DD2-A77B-976162CCCBC7";
layerId = "317A0D75-23A5-4EBA-9051-AF2D3019851E";
name = "(null) May 10 14, 15:15";
width = 600;
}
);
leftKerningGroup = O;
leftMetricsKey = O;
rightKerningGroup = C;
unicode = 0043;
},
{
color = 3;
glyphname = D;
lastChange = "2014-11-10 18:25:53 +0000";
layers = (
{
anchors = (
{
name = bottom;
position = "{302, 0}";
},
{
name = center;
position = "{335, 325}";
},
{
name = top;
position = "{302, 650}";
}
);
background = {
paths = (
{
closed = 1;
nodes = (
"45 650 OFFCURVE",
"191 586 OFFCURVE",
"191 586 CURVE",
"402 599 LINE",
"607 493 OFFCURVE",
"592 -44 OFFCURVE",
"176 79 CURVE",
"176 79 OFFCURVE",
"180 0 OFFCURVE",
"180 0 CURVE",
"302 0 LINE SMOOTH",
"739 0 OFFCURVE",
"728 658 OFFCURVE",
"352 658 CURVE",
"275 658 OFFCURVE",
"45 650 OFFCURVE",
"45 650 CURVE"
);
},
{
closed = 1;
nodes = (
"208 0 LINE",
"208 648 LINE",
"115 648 LINE",
"115 0 LINE"
);
},
{
closed = 1;
nodes = (
"114 0 LINE",
"129 70 LINE",
"129 70 OFFCURVE",
"57 49 OFFCURVE",
"30 35 CURVE",
"36 0 LINE"
);
},
{
closed = 1;
nodes = (
"45 650 LINE",
"44 602 LINE",
"140 596 LINE",
"126 638 OFFCURVE",
"134 634 OFFCURVE",
"138 650 CURVE"
);
}
);
};
layerId = UUID0;
name = Regular;
paths = (
{
closed = 1;
nodes = (
"45 650 LINE",
"191 586 LINE",
"402 599 LINE",
"484 557 OFFCURVE",
"531 445 OFFCURVE",
"531 335 CURVE SMOOTH",
"531 169 OFFCURVE",
"426 5 OFFCURVE",
"176 79 CURVE",
"180 0 LINE",
"302 0 LINE SMOOTH",
"526 0 OFFCURVE",
"632 172 OFFCURVE",
"632 341 CURVE SMOOTH",
"632 501 OFFCURVE",
"535 658 OFFCURVE",
"352 658 CURVE"
);
},
{
closed = 1;
nodes = (
"96 57 OFFCURVE",
"60 46 OFFCURVE",
"30 32 CURVE",
"36 0 LINE",
"130 0 LINE",
"129 67 LINE"
);
},
{
closed = 1;
nodes = (
"115 648 LINE",
"115 0 LINE",
"208 0 LINE",
"208 648 LINE"
);
},
{
closed = 1;
nodes = (
"45 650 LINE",
"44 602 LINE",
"140 596 LINE",
"138 650 LINE"
);
}
);
width = 674;
},
{
associatedMasterId = UUID0;
layerId = "63AA0EE0-7DC0-4E23-BABD-C33DAF8998C8";
name = "new Layer May 3 14, 21:44";
paths = (
{
closed = 1;
nodes = (
"49 650 OFFCURVE",
"195 586 OFFCURVE",
"195 586 CURVE",
"406 599 LINE",
"611 493 OFFCURVE",
"596 -44 OFFCURVE",
"180 79 CURVE",
"180 79 OFFCURVE",
"184 0 OFFCURVE",
"184 0 CURVE",
"306 0 LINE SMOOTH",
"743 0 OFFCURVE",
"732 658 OFFCURVE",
"356 658 CURVE",
"279 658 OFFCURVE",
"49 650 OFFCURVE",
"49 650 CURVE"
);
},
{
closed = 1;
nodes = (
"212 0 LINE",
"212 648 LINE",
"119 648 LINE",
"119 0 LINE"
);
},
{
closed = 1;
nodes = (
"118 0 LINE",
"133 70 LINE",
"133 70 OFFCURVE",
"61 49 OFFCURVE",
"34 35 CURVE",
"40 0 LINE"
);
},
{
closed = 1;
nodes = (
"49 650 LINE",
"48 602 LINE",
"144 596 LINE",
"130 638 OFFCURVE",
"138 634 OFFCURVE",
"142 650 CURVE"
);
}
);
width = 677;
},
{
anchors = (
{
name = center;
position = "{406, 325}";
},
{
name = top;
position = "{406, 650}";
}
);
background = {
paths = (
{
closed = 1;
nodes = (
"430 658 OFFCURVE",
"200 650 OFFCURVE",
"200 650 CURVE",
"346 531 LINE",
"437 539 LINE",
"511 488 OFFCURVE",
"546 390 OFFCURVE",
"546 300 CURVE SMOOTH",
"546 167 OFFCURVE",
"470 50 OFFCURVE",
"331 119 CURVE",
"335 0 LINE",
"457 0 LINE SMOOTH",
"681 0 OFFCURVE",
"787 172 OFFCURVE",
"787 341 CURVE SMOOTH",
"787 501 OFFCURVE",
"690 658 OFFCURVE",
"507 658 CURVE"
);
},
{
closed = 1;
nodes = (
"85 77 OFFCURVE",
"52 56 OFFCURVE",
"25 32 CURVE",
"31 0 LINE",
"125 0 LINE",
"124 97 LINE"
);
},
{
closed = 1;
nodes = (
"110 650 LINE",
"110 0 LINE",
"349 0 LINE",
"349 650 LINE"
);
},
{
closed = 1;
nodes = (
"40 650 LINE",
"39 593 LINE",
"177 567 LINE",
"180 650 LINE"
);
}
);
};
layerId = "818F884A-9448-4DD2-A77B-976162CCCBC7";
name = Bold;
paths = (
{
closed = 1;
nodes = (
"200 650 LINE",
"346 531 LINE",
"437 539 LINE",
"511 488 OFFCURVE",
"546 390 OFFCURVE",
"546 300 CURVE SMOOTH",
"546 167 OFFCURVE",
"470 50 OFFCURVE",
"331 119 CURVE",
"335 0 LINE",
"457 0 LINE SMOOTH",
"681 0 OFFCURVE",
"787 172 OFFCURVE",
"787 341 CURVE SMOOTH",
"787 501 OFFCURVE",
"690 658 OFFCURVE",
"417 658 CURVE"
);
},
{
closed = 1;
nodes = (
"85 77 OFFCURVE",
"52 56 OFFCURVE",
"25 32 CURVE",
"31 0 LINE",
"125 0 LINE",
"124 97 LINE"
);
},
{
closed = 1;
nodes = (
"110 650 LINE",
"110 0 LINE",
"349 0 LINE",
"349 650 LINE"
);
},
{
closed = 1;
nodes = (
"40 650 LINE",
"39 593 LINE",
"177 567 LINE",
"180 650 LINE"
);
}
);
width = 812;
},
{
associatedMasterId = "818F884A-9448-4DD2-A77B-976162CCCBC7";
layerId = "FE5759B2-920A-40FC-82F0-B51B6337285B";
name = "(null) May 10 14, 15:15";
width = 600;
},
{
anchors = (
{
name = center;
position = "{401, 325}";
},
{
name = top;
position = "{401, 650}";
}
);
associatedMasterId = "818F884A-9448-4DD2-A77B-976162CCCBC7";
layerId = "C379723B-3D62-4037-B0F3-6E8A02071A2E";
name = "Bold Jun 9 14, 10:58";
paths = (
{
closed = 1;
nodes = (
"425 658 OFFCURVE",
"195 650 OFFCURVE",
"195 650 CURVE",
"341 531 LINE",
"432 539 LINE",
"506 488 OFFCURVE",
"541 390 OFFCURVE",
"541 300 CURVE SMOOTH",
"541 167 OFFCURVE",
"465 50 OFFCURVE",
"326 119 CURVE",
"330 0 LINE",
"452 0 LINE SMOOTH",
"676 0 OFFCURVE",
"782 172 OFFCURVE",
"782 341 CURVE SMOOTH",
"782 501 OFFCURVE",
"685 658 OFFCURVE",
"502 658 CURVE"
);
},
{
closed = 1;
nodes = (
"80 77 OFFCURVE",
"47 56 OFFCURVE",
"20 32 CURVE",
"26 0 LINE",
"120 0 LINE",
"119 97 LINE"
);
},
{
closed = 1;
nodes = (
"105 650 LINE",
"105 0 LINE",
"344 0 LINE",
"344 650 LINE"
);
},
{
closed = 1;
nodes = (
"35 650 LINE",
"34 593 LINE",
"172 567 LINE",
"175 650 LINE"
);
}
);
width = 802;
}
);
leftKerningGroup = I;
leftMetricsKey = I;
rightKerningGroup = O;
rightMetricsKey = O;
unicode = 0044;
},
{
color = 3;
glyphname = Eth;
lastChange = "2014-11-11 23:38:42 +0000";
layers = (
{
components = (
{
name = Dcroat;
transform = "{1, 0, 0, 1, 0, 0}";
}
);
layerId = UUID0;
name = Regular;
width = 674;
},
{
associatedMasterId = UUID0;
components = (
{
name = D;
transform = "{1, 0, 0, 1, 12, 0}";
}
);
layerId = "DE0AAFFA-E7F9-476D-B938-ACF5A7EAEEAB";
name = "new Layer May 3 14, 21:44";
paths = (
{
closed = 1;
nodes = (
"133 357 LINE",
"103 357 OFFCURVE",
"59 348 OFFCURVE",
"20 328 CURVE",
"27 292 LINE",
"335 292 LINE",
"374 328 LINE",
"370 357 LINE"
);
}
);
width = 688;
},
{
components = (
{
name = Dcroat;
transform = "{1, 0, 0, 1, 0, 0}";
}
);
layerId = "818F884A-9448-4DD2-A77B-976162CCCBC7";
name = Bold;
width = 812;
},
{
associatedMasterId = "818F884A-9448-4DD2-A77B-976162CCCBC7";
layerId = "5744B81E-8AE1-4BEB-9F2D-01C51B130C90";
name = "(null) May 10 14, 15:15";
width = 600;
}
);
leftKerningGroup = I;
leftMetricsKey = Dcroat;
rightKerningGroup = O;
rightMetricsKey = Dcroat;
unicode = 00D0;
},
{
color = 3;
glyphname = Dcroat;
lastChange = "2014-11-10 18:25:53 +0000";
layers = (
{
components = (
{
name = D;
transform = "{1, 0, 0, 1, 0, 0}";
}
);
layerId = UUID0;
name = Regular;
paths = (
{
closed = 1;
nodes = (
"368 329 LINE",
"362 358 LINE",
"60 358 LINE",
"17 315 LINE",
"23 286 LINE",
"325 286 LINE"
);
}
);
width = 674;
},
{
associatedMasterId = UUID0;
components = (
{
name = D;
transform = "{1, 0, 0, 1, 0, 0}";
}
);
layerId = "651132F0-39D0-40A5-8E76-9F9E2663AAE1";
name = "new Layer May 3 14, 21:44";
paths = (
{
closed = 1;
nodes = (
"131 358 LINE",
"100 358 OFFCURVE",
"57 353 OFFCURVE",
"18 333 CURVE",
"24 289 LINE",
"322 289 LINE",
"369 323 LINE",
"364 358 LINE"
);
}
);
width = 677;
},
{
components = (
{
name = D;
transform = "{1, 0, 0, 1, 0, 0}";
}
);
layerId = "818F884A-9448-4DD2-A77B-976162CCCBC7";
name = Bold;
paths = (
{
closed = 1;
nodes = (
"462 299 LINE",
"456 338 LINE",
"54 338 LINE",
"11 295 LINE",
"17 256 LINE",
"419 256 LINE"
);
}
);
width = 812;
},
{
associatedMasterId = "818F884A-9448-4DD2-A77B-976162CCCBC7";
layerId = "EDCEEC7B-6544-4ADF-B76F-5557DE01EA2F";
name = "(null) May 10 14, 15:15";
width = 600;
},
{
associatedMasterId = "818F884A-9448-4DD2-A77B-976162CCCBC7";
components = (
{
name = D;
transform = "{1, 0, 0, 1, 13, 0}";
}
);
layerId = "87A91AAF-5FD4-4304-88FD-9A65C1F1A4D4";
name = "Bold Jun 2 14, 15:28";
paths = (
{
closed = 1;
nodes = (
"471 309 LINE",
"465 348 LINE",
"63 348 LINE",
"20 295 LINE",
"26 256 LINE",
"428 256 LINE"
);
}
);
width = 815;
}
);
leftKerningGroup = I;
rightKerningGroup = O;
rightMetricsKey = D;
unicode = 0110;
},
{
color = 3;
glyphname = E;
lastChange = "2014-11-10 18:29:16 +0000";
layers = (
{
anchors = (
{
name = bottom;
position = "{290, 0}";
},
{
name = ogonek;
position = "{502, 1}";
},
{
name = top;
position = "{290, 650}";
}
);
background = {
paths = (
{
closed = 1;
nodes = (
"184 586 LINE",
"485 573 LINE",
"502 650 LINE",
"109 650 LINE"
);
},
{
closed = 1;
nodes = (
"197 294 LINE",
"437 284 LINE",
"437 371 LINE",
"197 353 LINE"
);
},
{
closed = 1;
nodes = (
"109 0 LINE",
"502 0 LINE",
"485 77 LINE",
"184 64 LINE"
);
},
{
closed = 1;
nodes = (
"208 0 LINE",
"208 650 LINE",
"115 650 LINE",
"115 0 LINE"
);
},
{
closed = 1;
nodes = (
"130 0 LINE",
"129 70 LINE",
"129 70 OFFCURVE",
"57 49 OFFCURVE",
"30 35 CURVE",
"36 0 LINE"
);
},
{
closed = 1;
nodes = (
"45 650 LINE",
"44 602 LINE",
"140 596 LINE",
"126 638 OFFCURVE",
"134 634 OFFCURVE",
"138 650 CURVE"
);
},
{
closed = 1;
nodes = (
"492 495 LINE",
"503 556 OFFCURVE",
"505 617 OFFCURVE",
"502 650 CURVE",
"422 605 LINE",
"438 497 LINE"
);
},
{
closed = 1;
nodes = (
"457 165 LINE",
"427 40 LINE",
"502 0 LINE",
"509 43 OFFCURVE",
"512 99 OFFCURVE",
"510 161 CURVE"
);
}
);
};
layerId = UUID0;
name = Regular;
paths = (
{
closed = 1;
nodes = (
"115 650 LINE",
"115 0 LINE",
"208 0 LINE",
"208 650 LINE"
);
},
{
closed = 1;
nodes = (
"96 57 OFFCURVE",
"60 46 OFFCURVE",
"30 32 CURVE",
"36 0 LINE",
"130 0 LINE",
"129 67 LINE"
);
},
{
closed = 1;
nodes = (
"184 64 LINE",
"109 0 LINE",
"502 0 LINE",
"485 77 LINE"
);
},
{
closed = 1;
nodes = (
"197 353 LINE",
"197 294 LINE",
"437 284 LINE",
"437 371 LINE"
);
},
{
closed = 1;
nodes = (
"109 650 LINE",
"184 586 LINE",
"485 573 LINE",
"502 650 LINE"
);
},
{
closed = 1;
nodes = (
"45 650 LINE",
"44 602 LINE",
"140 596 LINE",
"138 650 LINE"
);
},
{
closed = 1;
nodes = (
"427 40 LINE",
"502 0 LINE",
"509 43 OFFCURVE",
"512 99 OFFCURVE",
"510 161 CURVE",
"457 165 LINE"
);
},
{
closed = 1;
nodes = (
"492 495 LINE",
"503 556 OFFCURVE",
"505 617 OFFCURVE",
"502 650 CURVE",
"422 605 LINE",
"438 497 LINE"
);
}
);
width = 563;
},
{
associatedMasterId = UUID0;
layerId = "8F66A731-94ED-4D96-B668-8DC6691B5318";
name = "new Layer May 3 14, 21:44";
paths = (
{
closed = 1;
nodes = (
"188 586 LINE",
"489 573 LINE",
"506 650 LINE",
"113 650 LINE"
);
},
{
closed = 1;
nodes = (
"201 294 LINE",
"441 284 LINE",
"441 371 LINE",
"201 353 LINE"
);
},
{
closed = 1;
nodes = (
"113 0 LINE",
"506 0 LINE",
"489 77 LINE",
"188 64 LINE"
);
},
{
closed = 1;
nodes = (
"212 0 LINE",
"212 650 LINE",
"119 650 LINE",
"119 0 LINE"
);
},
{
closed = 1;
nodes = (
"134 0 LINE",
"133 70 LINE",
"133 70 OFFCURVE",
"61 49 OFFCURVE",
"34 35 CURVE",
"40 0 LINE"
);
},
{
closed = 1;
nodes = (
"49 650 LINE",
"48 602 LINE",
"144 596 LINE",
"130 638 OFFCURVE",
"138 634 OFFCURVE",
"142 650 CURVE"
);
},
{
closed = 1;
nodes = (
"496 495 LINE",
"507 556 OFFCURVE",
"509 617 OFFCURVE",
"506 650 CURVE",
"426 605 LINE",
"442 497 LINE"
);
},
{
closed = 1;
nodes = (
"461 165 LINE",
"431 40 LINE",
"506 0 LINE",
"513 43 OFFCURVE",
"516 99 OFFCURVE",
"514 161 CURVE"
);
}
);
width = 567;
},
{
anchors = (
{
name = bottom;
position = "{347, 0}";
},
{
name = ogonek;
position = "{697, 0}";
},
{
name = top;
position = "{347, 650}";
}
);
background = {
paths = (
{
closed = 1;
nodes = (
"110 650 LINE",
"110 0 LINE",
"349 0 LINE",
"349 650 LINE"
);
},
{
closed = 1;
nodes = (
"85 77 OFFCURVE",
"52 56 OFFCURVE",
"25 32 CURVE",
"31 0 LINE",
"125 0 LINE",
"124 97 LINE"
);
},
{
closed = 1;
nodes = (
"311 116 LINE",
"236 0 LINE",
"639 0 LINE",
"632 139 LINE"
);
},
{
closed = 1;
nodes = (
"521 70 LINE",
"639 0 LINE",
"646 43 OFFCURVE",
"659 152 OFFCURVE",
"657 214 CURVE",
"581 225 LINE"
);
},
{
closed = 1;
nodes = (
"306 369 LINE",
"306 280 LINE",
"546 270 LINE",
"546 387 LINE"
);
},
{
closed = 1;
nodes = (
"228 650 LINE",
"303 544 LINE",
"624 521 LINE",
"631 650 LINE"
);
},
{
closed = 1;
nodes = (
"513 580 LINE",
"573 425 LINE",
"649 436 LINE",
"651 498 OFFCURVE",
"638 607 OFFCURVE",
"631 650 CURVE"
);
},
{
closed = 1;
nodes = (
"34 650 LINE",
"33 603 LINE",
"171 557 LINE",
"174 650 LINE"
);
}
);
};
layerId = "818F884A-9448-4DD2-A77B-976162CCCBC7";
name = Bold;
paths = (
{
closed = 1;
nodes = (
"110 650 LINE",
"110 0 LINE",
"349 0 LINE",
"349 650 LINE"
);
},
{
closed = 1;
nodes = (
"85 77 OFFCURVE",
"52 56 OFFCURVE",
"25 32 CURVE",
"31 0 LINE",
"125 0 LINE",
"124 97 LINE"
);
},
{
closed = 1;
nodes = (
"311 116 LINE",
"236 0 LINE",
"648 0 LINE",
"647 139 LINE"
);
},
{
closed = 1;
nodes = (
"306 369 LINE",
"306 280 LINE",
"546 270 LINE",
"546 387 LINE"
);
},
{
closed = 1;
nodes = (
"228 650 LINE",
"303 544 LINE",
"639 521 LINE",
"651 650 LINE"
);
},
{
closed = 1;
nodes = (
"34 650 LINE",
"33 593 LINE",
"171 567 LINE",
"174 650 LINE"
);
},
{
closed = 1;
nodes = (
"451 0 LINE",
"650 0 LINE",
"655 49 OFFCURVE",
"659 146 OFFCURVE",
"656 228 CURVE",
"506 228 LINE"
);
},
{
closed = 1;
nodes = (
"657 422 LINE",
"660 504 OFFCURVE",
"656 601 OFFCURVE",
"651 650 CURVE",
"452 650 LINE",
"507 422 LINE"
);
}
);
width = 688;
},
{
associatedMasterId = "818F884A-9448-4DD2-A77B-976162CCCBC7";
layerId = "5319080C-D483-4027-9FCC-AEDED36574A5";
name = "(null) May 10 14, 15:15";
width = 600;
},
{
anchors = (
{
name = bottom;
position = "{342, 0}";
},
{
name = ogonek;
position = "{692, 0}";
},
{
name = top;
position = "{342, 650}";
}
);
associatedMasterId = "818F884A-9448-4DD2-A77B-976162CCCBC7";
background = {
paths = (
{
closed = 1;
nodes = (
"105 650 LINE",
"105 0 LINE",
"344 0 LINE",
"344 650 LINE"
);
},
{
closed = 1;
nodes = (
"80 77 OFFCURVE",
"47 56 OFFCURVE",
"20 32 CURVE",
"26 0 LINE",
"120 0 LINE",
"119 97 LINE"
);
},
{
closed = 1;
nodes = (
"306 116 LINE",
"231 0 LINE",
"634 0 LINE",
"627 139 LINE"
);
},
{
closed = 1;
nodes = (
"516 70 LINE",
"634 0 LINE",
"641 43 OFFCURVE",
"654 152 OFFCURVE",
"652 214 CURVE",
"576 225 LINE"
);
},
{
closed = 1;
nodes = (
"301 369 LINE",
"301 280 LINE",
"541 270 LINE",
"541 387 LINE"
);
},
{
closed = 1;
nodes = (
"223 650 LINE",
"298 544 LINE",
"619 521 LINE",
"626 650 LINE"
);
},
{
closed = 1;
nodes = (
"508 580 LINE",
"568 425 LINE",
"644 436 LINE",
"646 498 OFFCURVE",
"633 607 OFFCURVE",
"626 650 CURVE"
);
},
{
closed = 1;
nodes = (
"29 650 LINE",
"28 603 LINE",
"166 557 LINE",
"169 650 LINE"
);
}
);
};
layerId = "3482422F-B607-4827-89AE-C1B94A95A4BB";
name = "Bold Jun 21 14, 15:02";
paths = (
{
closed = 1;
nodes = (
"105 650 LINE",
"105 0 LINE",
"344 0 LINE",
"344 650 LINE"
);
},
{
closed = 1;
nodes = (
"80 77 OFFCURVE",
"47 56 OFFCURVE",
"20 32 CURVE",
"26 0 LINE",
"120 0 LINE",
"119 97 LINE"
);
},
{
closed = 1;
nodes = (
"306 116 LINE",
"231 0 LINE",
"643 0 LINE",
"642 139 LINE"
);
},
{
closed = 1;
nodes = (
"301 369 LINE",
"301 280 LINE",
"541 270 LINE",
"541 387 LINE"
);
},
{
closed = 1;
nodes = (
"223 650 LINE",
"298 544 LINE",
"634 521 LINE",
"646 650 LINE"
);
},
{
closed = 1;
nodes = (
"29 650 LINE",
"28 593 LINE",
"166 567 LINE",
"169 650 LINE"
);
},
{
closed = 1;
nodes = (
"444 0 LINE",
"643 0 LINE",
"648 49 OFFCURVE",
"657 156 OFFCURVE",
"649 228 CURVE",
"499 228 LINE"
);
},
{
closed = 1;
nodes = (
"649 422 LINE",
"657 494 OFFCURVE",
"648 601 OFFCURVE",
"643 650 CURVE",
"444 650 LINE",
"499 422 LINE"
);
}
);
width = 704;
}
);
leftKerningGroup = I;
leftMetricsKey = I;
rightKerningGroup = E;
unicode = 0045;
},
{
color = 3;
glyphname = F;
lastChange = "2014-11-10 18:25:53 +0000";
layers = (
{
anchors = (
{
name = bottom;
position = "{290, 0}";
},
{
name = top;
position = "{290, 650}";
}
);
background = {
paths = (
{
closed = 1;
nodes = (
"184 586 LINE",
"485 573 LINE",
"502 650 LINE",
"109 650 LINE"
);
},
{
closed = 1;
nodes = (
"197 274 LINE",
"437 264 LINE",
"437 351 LINE",
"197 333 LINE"
);
},
{
closed = 1;
nodes = (
"208 0 LINE",
"208 650 LINE",
"115 650 LINE",
"115 0 LINE"
);
},
{
closed = 1;
nodes = (
"130 0 LINE",
"129 70 LINE",
"129 70 OFFCURVE",
"57 49 OFFCURVE",
"30 35 CURVE",
"36 0 LINE"
);
},
{
closed = 1;
nodes = (
"45 650 LINE",
"44 602 LINE",
"140 596 LINE",
"126 638 OFFCURVE",
"134 634 OFFCURVE",
"138 650 CURVE"
);
},
{
closed = 1;
nodes = (
"492 495 LINE",
"503 556 OFFCURVE",
"505 617 OFFCURVE",
"502 650 CURVE",
"422 605 LINE",
"438 497 LINE"
);
},
{
closed = 1;
nodes = (
"324 0 LINE",
"325 47 LINE",
"187 63 LINE",
"184 0 LINE"
);
}
);
};
layerId = UUID0;
name = Regular;
paths = (
{
closed = 1;
nodes = (
"115 650 LINE",
"115 0 LINE",
"208 0 LINE",
"208 650 LINE"
);
},
{
closed = 1;
nodes = (
"96 57 OFFCURVE",
"60 46 OFFCURVE",
"30 32 CURVE",
"36 0 LINE",
"130 0 LINE",
"129 67 LINE"
);
},
{
closed = 1;
nodes = (
"184 0 LINE",
"324 0 LINE",
"325 47 LINE",
"187 63 LINE"
);
},
{
closed = 1;
nodes = (
"197 333 LINE",
"197 274 LINE",
"437 264 LINE",
"437 351 LINE"
);
},
{
closed = 1;
nodes = (
"109 650 LINE",
"184 586 LINE",
"485 573 LINE",
"502 650 LINE"
);
},
{
closed = 1;
nodes = (
"45 650 LINE",
"44 602 LINE",
"140 596 LINE",
"138 650 LINE"
);
},
{
closed = 1;
nodes = (
"492 495 LINE",
"503 556 OFFCURVE",
"505 617 OFFCURVE",
"502 650 CURVE",
"422 605 LINE",
"438 497 LINE"
);
}
);
width = 556;
},
{
associatedMasterId = UUID0;
layerId = "72B5B566-D3B5-46D6-AC85-E218E2E7CA8D";
name = "new Layer May 3 14, 21:44";
paths = (
{
closed = 1;
nodes = (
"188 586 LINE",
"489 573 LINE",
"506 650 LINE",
"113 650 LINE"
);
},
{
closed = 1;
nodes = (
"201 274 LINE",
"441 264 LINE",
"441 351 LINE",
"201 333 LINE"
);
},
{
closed = 1;
nodes = (
"212 0 LINE",
"212 650 LINE",
"119 650 LINE",
"119 0 LINE"
);
},
{
closed = 1;
nodes = (
"134 0 LINE",
"133 70 LINE",
"133 70 OFFCURVE",
"61 49 OFFCURVE",
"34 35 CURVE",
"40 0 LINE"
);
},
{
closed = 1;
nodes = (
"49 650 LINE",
"48 602 LINE",
"144 596 LINE",
"130 638 OFFCURVE",
"138 634 OFFCURVE",
"142 650 CURVE"
);
},
{
closed = 1;
nodes = (
"496 495 LINE",
"507 556 OFFCURVE",
"509 617 OFFCURVE",
"506 650 CURVE",
"426 605 LINE",
"442 497 LINE"
);
},
{
closed = 1;
nodes = (
"328 0 LINE",
"329 47 LINE",
"191 63 LINE",
"188 0 LINE"
);
}
);
width = 528;
},
{
background = {
paths = (
{
closed = 1;
nodes = (
"102 650 LINE",
"102 0 LINE",
"341 0 LINE",
"341 650 LINE"
);
},
{
closed = 1;
nodes = (
"87 77 OFFCURVE",
"54 56 OFFCURVE",
"27 32 CURVE",
"33 0 LINE",
"127 0 LINE",
"126 97 LINE"
);
},
{
closed = 1;
nodes = (
"327 0 LINE",
"467 0 LINE",
"468 57 LINE",
"330 83 LINE"
);
},
{
closed = 1;
nodes = (
"318 339 LINE",
"318 250 LINE",
"558 240 LINE",
"558 357 LINE"
);
},
{
closed = 1;
nodes = (
"240 650 LINE",
"315 544 LINE",
"636 521 LINE",
"643 650 LINE"
);
},
{
closed = 1;
nodes = (
"26 650 LINE",
"25 593 LINE",
"163 567 LINE",
"166 650 LINE"
);
},
{
closed = 1;
nodes = (
"618 422 LINE",
"633 471 OFFCURVE",
"648 601 OFFCURVE",
"643 650 CURVE",
"381 650 LINE",
"478 422 LINE"
);
}
);
};
layerId = "818F884A-9448-4DD2-A77B-976162CCCBC7";
name = Bold;
paths = (
{
closed = 1;
nodes = (
"102 650 LINE",
"102 0 LINE",
"341 0 LINE",
"341 650 LINE"
);
},
{
closed = 1;
nodes = (
"87 77 OFFCURVE",
"54 56 OFFCURVE",
"27 32 CURVE",
"33 0 LINE",
"127 0 LINE",
"126 97 LINE"
);
},
{
closed = 1;
nodes = (
"327 0 LINE",
"467 0 LINE",
"468 57 LINE",
"330 83 LINE"
);
},
{
closed = 1;
nodes = (
"318 339 LINE",
"318 250 LINE",
"558 240 LINE",
"558 357 LINE"
);
},
{
closed = 1;
nodes = (
"240 650 LINE",
"315 544 LINE",
"636 521 LINE",
"643 650 LINE"
);
},
{
closed = 1;
nodes = (
"26 650 LINE",
"25 593 LINE",
"163 567 LINE",
"166 650 LINE"
);
},
{
closed = 1;
nodes = (
"649 422 LINE",
"652 504 OFFCURVE",
"648 601 OFFCURVE",
"643 650 CURVE",
"444 650 LINE",
"499 422 LINE"
);
}
);
width = 675;
},
{
associatedMasterId = "818F884A-9448-4DD2-A77B-976162CCCBC7";
layerId = "129381F8-F3D9-490C-BD43-08201C4E8407";
name = "(null) May 10 14, 15:15";
width = 600;
},
{
associatedMasterId = "818F884A-9448-4DD2-A77B-976162CCCBC7";
layerId = "1B55BCD2-40C0-46E8-A288-4EBD7C4753C2";
name = "Bold Jun 8 14, 16:54";
paths = (
{
closed = 1;
nodes = (
"105 650 LINE",
"105 0 LINE",
"344 0 LINE",
"344 650 LINE"
);
},
{
closed = 1;
nodes = (
"90 77 OFFCURVE",
"57 56 OFFCURVE",
"30 32 CURVE",
"36 0 LINE",
"130 0 LINE",
"129 97 LINE"
);
},
{
closed = 1;
nodes = (
"330 0 LINE",
"470 0 LINE",
"471 47 LINE",
"333 93 LINE"
);
},
{
closed = 1;
nodes = (
"321 339 LINE",
"321 250 LINE",
"561 240 LINE",
"561 357 LINE"
);
},
{
closed = 1;
nodes = (
"243 650 LINE",
"318 544 LINE",
"639 521 LINE",
"646 650 LINE"
);
},
{
closed = 1;
nodes = (
"528 580 LINE",
"588 425 LINE",
"664 436 LINE",
"666 498 OFFCURVE",
"653 607 OFFCURVE",
"646 650 CURVE"
);
},
{
closed = 1;
nodes = (
"29 650 LINE",
"28 603 LINE",
"166 557 LINE",
"169 650 LINE"
);
}
);
width = 695;
}
);
leftKerningGroup = I;
leftMetricsKey = I;
rightMetricsKey = E;
unicode = 0046;
},
{
color = 3;
glyphname = G;
lastChange = "2014-11-10 18:29:52 +0000";
layers = (
{
anchors = (
{
name = bottom;
position = "{366, 0}";
},
{
name = top;
position = "{366, 650}";
}
);
background = {
paths = (
{
closed = 1;
nodes = (
"498 59 LINE",
"585 71 LINE",
"585 260 LINE",
"498 246 LINE"
);
},
{
closed = 1;
nodes = (
"484 301 LINE",
"515 233 LINE",
"667 252 LINE",
"666 301 LINE"
);
},
{
closed = 1;
nodes = (
"394 301 LINE",
"388 266 LINE",
"422 248 OFFCURVE",
"521 221 OFFCURVE",
"521 221 CURVE",
"506 301 LINE"
);
},
{
closed = 1;
nodes = (
"547 96 LINE",
"505 75 OFFCURVE",
"434 54 OFFCURVE",
"369 54 CURVE SMOOTH",
"100 54 OFFCURVE",
"83 479 OFFCURVE",
"286 590 CURVE",
"454 612 OFFCURVE",
"558 511 OFFCURVE",
"558 511 CURVE",
"586 604 LINE",
"555 628 OFFCURVE",
"484 665 OFFCURVE",
"386 665 CURVE SMOOTH",
"-66 665 OFFCURVE",
"-83 -45 OFFCURVE",
"396 -19 CURVE",
"585 71 LINE"
);
},
{
closed = 1;
nodes = (
"569 459 LINE",
"586 518 OFFCURVE",
"589 571 OFFCURVE",
"586 604 CURVE",
"501 559 LINE",
"509 464 LINE"
);
}
);
};
layerId = UUID0;
name = Regular;
paths = (
{
closed = 1;
nodes = (
"159 670 OFFCURVE",
"42 491 OFFCURVE",
"42 311 CURVE SMOOTH",
"42 138 OFFCURVE",
"157 -33 OFFCURVE",
"396 -20 CURVE",
"585 71 LINE",
"547 96 LINE",
"505 75 OFFCURVE",
"434 54 OFFCURVE",
"369 54 CURVE SMOOTH",
"220 54 OFFCURVE",
"149 184 OFFCURVE",
"149 319 CURVE SMOOTH",
"149 433 OFFCURVE",
"195 545 OFFCURVE",
"286 595 CURVE",
"454 617 OFFCURVE",
"558 516 OFFCURVE",
"558 516 CURVE",
"586 609 LINE",
"555 633 OFFCURVE",
"484 670 OFFCURVE",
"386 670 CURVE SMOOTH"
);
},
{
closed = 1;
nodes = (
"388 266 LINE",
"431 246 OFFCURVE",
"484 231 OFFCURVE",
"521 221 CURVE",
"506 301 LINE",
"394 301 LINE"
);
},
{
closed = 1;
nodes = (
"498 59 LINE",
"585 71 LINE",
"585 301 LINE",
"498 301 LINE"
);
},
{
closed = 1;
nodes = (
"484 301 LINE",
"515 233 LINE",
"667 252 LINE",
"666 301 LINE"
);
},
{
closed = 1;
nodes = (
"569 464 LINE",
"586 523 OFFCURVE",
"589 576 OFFCURVE",
"586 609 CURVE",
"501 564 LINE",
"509 469 LINE"
);
}
);
width = 691;
},
{
associatedMasterId = UUID0;
layerId = "018B391C-CC28-484E-9DD7-4DB290CA5D93";
name = "new Layer May 3 14, 21:44";
paths = (
{
closed = 1;
nodes = (
"501 59 LINE",
"588 71 LINE",
"588 260 LINE",
"501 246 LINE"
);
},
{
closed = 1;
nodes = (
"487 301 LINE",
"518 233 LINE",
"670 252 LINE",
"669 301 LINE"
);
},
{
closed = 1;
nodes = (
"397 301 LINE",
"391 266 LINE",
"425 248 OFFCURVE",
"524 221 OFFCURVE",
"524 221 CURVE",
"509 301 LINE"
);
},
{
closed = 1;
nodes = (
"550 96 LINE",
"508 75 OFFCURVE",
"437 54 OFFCURVE",
"372 54 CURVE SMOOTH",
"103 54 OFFCURVE",
"86 479 OFFCURVE",
"289 590 CURVE",
"457 612 OFFCURVE",
"561 511 OFFCURVE",
"561 511 CURVE",
"589 604 LINE",
"558 628 OFFCURVE",
"487 665 OFFCURVE",
"389 665 CURVE SMOOTH",
"-63 665 OFFCURVE",
"-80 -45 OFFCURVE",
"399 -19 CURVE",
"588 71 LINE"
);
},
{
closed = 1;
nodes = (
"572 459 LINE",
"589 518 OFFCURVE",
"592 571 OFFCURVE",
"589 604 CURVE",
"504 559 LINE",
"512 464 LINE"
);
}
);
width = 694;
},
{
anchors = (
{
name = bottom;
position = "{382, 0}";
},
{
name = top;
position = "{382, 650}";
}
);
background = {
paths = (
{
closed = 1;
nodes = (
"501 59 LINE",
"588 71 LINE",
"588 260 LINE",
"501 246 LINE"
);
},
{
closed = 1;
nodes = (
"487 301 LINE",
"518 233 LINE",
"670 252 LINE",
"669 301 LINE"
);
},
{
closed = 1;
nodes = (
"397 301 LINE",
"391 266 LINE",
"434 246 OFFCURVE",
"487 231 OFFCURVE",
"524 221 CURVE",
"509 301 LINE"
);
},
{
closed = 1;
nodes = (
"550 96 LINE",
"508 75 OFFCURVE",
"437 54 OFFCURVE",
"372 54 CURVE SMOOTH",
"223 54 OFFCURVE",
"152 184 OFFCURVE",
"152 319 CURVE SMOOTH",
"152 433 OFFCURVE",
"198 545 OFFCURVE",
"289 595 CURVE",
"457 617 OFFCURVE",
"561 516 OFFCURVE",
"561 516 CURVE",
"589 609 LINE",
"558 633 OFFCURVE",
"487 670 OFFCURVE",
"389 670 CURVE SMOOTH",
"162 670 OFFCURVE",
"45 491 OFFCURVE",
"45 311 CURVE SMOOTH",
"45 138 OFFCURVE",
"160 -32 OFFCURVE",
"399 -19 CURVE",
"588 71 LINE"
);
},
{
closed = 1;
nodes = (
"572 464 LINE",
"589 523 OFFCURVE",
"592 576 OFFCURVE",
"589 609 CURVE",
"504 564 LINE",
"512 469 LINE"
);
}
);
};
layerId = "818F884A-9448-4DD2-A77B-976162CCCBC7";
name = Bold;
paths = (
{
closed = 1;
nodes = (
"174 670 OFFCURVE",
"25 488 OFFCURVE",
"25 313 CURVE SMOOTH",
"25 165 OFFCURVE",
"96 -24 OFFCURVE",
"427 -20 CURVE",
"666 66 LINE",
"621 139 LINE",
"561 124 OFFCURVE",
"493 110 OFFCURVE",
"431 113 CURVE SMOOTH",
"317 119 OFFCURVE",
"264 203 OFFCURVE",
"264 315 CURVE SMOOTH",
"264 389 OFFCURVE",
"282 472 OFFCURVE",
"326 538 CURVE",
"469 527 OFFCURVE",
"548 502 OFFCURVE",
"621 441 CURVE",
"657 609 LINE",
"626 629 OFFCURVE",
"555 670 OFFCURVE",
"437 670 CURVE SMOOTH"
);
},
{
closed = 1;
nodes = (
"372 274 LINE",
"399 250 OFFCURVE",
"432 229 OFFCURVE",
"471 209 CURVE",
"472 306 LINE",
"378 306 LINE"
);
},
{
closed = 1;
nodes = (
"457 66 LINE",
"666 66 LINE",
"666 306 LINE",
"457 306 LINE"
);
},
{
closed = 1;
nodes = (
"602 306 LINE",
"605 213 LINE",
"743 259 LINE",
"742 306 LINE"
);
},
{
closed = 1;
nodes = (
"638 401 LINE",
"653 450 OFFCURVE",
"658 560 OFFCURVE",
"653 609 CURVE",
"422 623 LINE",
"478 401 LINE"
);
}
);
width = 748;
},
{
associatedMasterId = "818F884A-9448-4DD2-A77B-976162CCCBC7";
layerId = "EC923123-6596-4B11-AC74-42553A273309";
name = "(null) May 10 14, 15:15";
width = 600;
}
);
leftKerningGroup = O;
leftMetricsKey = O;
rightKerningGroup = G;
unicode = 0047;
},
{
color = 3;
glyphname = H;
lastChange = "2014-11-10 18:25:53 +0000";
layers = (
{
anchors = (
{
name = center;
position = "{376, 325}";
},
{
name = top;
position = "{376, 650}";
}
);
background = {
paths = (
{
closed = 1;
nodes = (
"191 287 LINE",
"575 287 LINE",
"575 357 LINE",
"191 357 LINE"
);
},
{
closed = 1;
nodes = (
"208 0 LINE",
"208 650 LINE",
"115 650 LINE",
"115 0 LINE"
);
},
{
closed = 1;
nodes = (
"130 0 LINE",
"129 70 LINE",
"129 70 OFFCURVE",
"57 49 OFFCURVE",
"30 35 CURVE",
"36 0 LINE"
);
},
{
closed = 1;
nodes = (
"304 0 LINE",
"305 47 LINE",
"167 63 LINE",
"164 0 LINE"
);
},
{
closed = 1;
nodes = (
"195 650 LINE",
"196 580 LINE",
"196 580 OFFCURVE",
"268 601 OFFCURVE",
"295 615 CURVE",
"289 650 LINE"
);
},
{
closed = 1;
nodes = (
"31 650 LINE",
"30 603 LINE",
"168 587 LINE",
"171 650 LINE"
);
},
{
closed = 1;
nodes = (
"624 0 LINE",
"624 650 LINE",
"531 650 LINE",
"531 0 LINE"
);
},
{
closed = 1;
nodes = (
"550 0 LINE",
"549 70 LINE",
"549 70 OFFCURVE",
"477 49 OFFCURVE",
"450 35 CURVE",
"456 0 LINE"
);
},
{
closed = 1;
nodes = (
"724 0 LINE",
"725 47 LINE",
"587 63 LINE",
"584 0 LINE"
);
},
{
closed = 1;
nodes = (
"615 650 LINE",
"616 580 LINE",
"616 580 OFFCURVE",
"688 601 OFFCURVE",
"715 615 CURVE",
"709 650 LINE"
);
},
{
closed = 1;
nodes = (
"451 650 LINE",
"450 603 LINE",
"588 587 LINE",
"591 650 LINE"
);
}
);
};
layerId = UUID0;
name = Regular;
paths = (
{
closed = 1;
nodes = (
"176 587 LINE",
"179 650 LINE",
"39 650 LINE",
"38 603 LINE"
);
},
{
closed = 1;
nodes = (
"115 650 LINE",
"115 0 LINE",
"208 0 LINE",
"208 650 LINE"
);
},
{
closed = 1;
nodes = (
"193 650 LINE",
"194 583 LINE",
"227 593 OFFCURVE",
"263 604 OFFCURVE",
"293 618 CURVE",
"287 650 LINE"
);
},
{
closed = 1;
nodes = (
"455 650 LINE",
"454 603 LINE",
"592 587 LINE",
"595 650 LINE"
);
},
{
closed = 1;
nodes = (
"531 650 LINE",
"531 0 LINE",
"624 0 LINE",
"624 650 LINE"
);
},
{
closed = 1;
nodes = (
"609 650 LINE",
"610 583 LINE",
"643 593 OFFCURVE",
"679 604 OFFCURVE",
"709 618 CURVE",
"703 650 LINE"
);
},
{
closed = 1;
nodes = (
"191 357 LINE",
"191 287 LINE",
"575 287 LINE",
"575 357 LINE"
);
},
{
closed = 1;
nodes = (
"96 57 OFFCURVE",
"60 46 OFFCURVE",
"30 32 CURVE",
"36 0 LINE",
"130 0 LINE",
"129 67 LINE"
);
},
{
closed = 1;
nodes = (
"164 0 LINE",
"304 0 LINE",
"305 47 LINE",
"167 63 LINE"
);
},
{
closed = 1;
nodes = (
"512 57 OFFCURVE",
"476 46 OFFCURVE",
"446 32 CURVE",
"452 0 LINE",
"546 0 LINE",
"545 67 LINE"
);
},
{
closed = 1;
nodes = (
"580 0 LINE",
"720 0 LINE",
"721 47 LINE",
"583 63 LINE"
);
}
);
width = 751;
},
{
associatedMasterId = UUID0;
layerId = "A2CFB0C5-7E58-44A5-8568-3B19A5C0713B";
name = "new Layer May 3 14, 21:44";
paths = (
{
closed = 1;
nodes = (
"195 287 LINE",
"579 287 LINE",
"579 357 LINE",
"195 357 LINE"
);
},
{
closed = 1;
nodes = (
"212 0 LINE",
"212 650 LINE",
"119 650 LINE",
"119 0 LINE"
);
},
{
closed = 1;
nodes = (
"134 0 LINE",
"133 70 LINE",
"133 70 OFFCURVE",
"61 49 OFFCURVE",
"34 35 CURVE",
"40 0 LINE"
);
},
{
closed = 1;
nodes = (
"308 0 LINE",
"309 47 LINE",
"171 63 LINE",
"168 0 LINE"
);
},
{
closed = 1;
nodes = (
"199 650 LINE",
"200 580 LINE",
"200 580 OFFCURVE",
"272 601 OFFCURVE",
"299 615 CURVE",
"293 650 LINE"
);
},
{
closed = 1;
nodes = (
"35 650 LINE",
"34 603 LINE",
"172 587 LINE",
"175 650 LINE"
);
},
{
closed = 1;
nodes = (
"628 0 LINE",
"628 650 LINE",
"535 650 LINE",
"535 0 LINE"
);
},
{
closed = 1;
nodes = (
"554 0 LINE",
"553 70 LINE",
"553 70 OFFCURVE",
"481 49 OFFCURVE",
"454 35 CURVE",
"460 0 LINE"
);
},
{
closed = 1;
nodes = (
"728 0 LINE",
"729 47 LINE",
"591 63 LINE",
"588 0 LINE"
);
},
{
closed = 1;
nodes = (
"619 650 LINE",
"620 580 LINE",
"620 580 OFFCURVE",
"692 601 OFFCURVE",
"719 615 CURVE",
"713 650 LINE"
);
},
{
closed = 1;
nodes = (
"455 650 LINE",
"454 603 LINE",
"592 587 LINE",
"595 650 LINE"
);
}
);
width = 760;
},
{
anchors = (
{
name = center;
position = "{446, 325}";
},
{
name = top;
position = "{446, 650}";
}
);
layerId = "818F884A-9448-4DD2-A77B-976162CCCBC7";
name = Bold;
paths = (
{
closed = 1;
nodes = (
"171 567 LINE",
"174 650 LINE",
"34 650 LINE",
"33 593 LINE"
);
},
{
closed = 1;
nodes = (
"110 650 LINE",
"110 0 LINE",
"349 0 LINE",
"349 650 LINE"
);
},
{
closed = 1;
nodes = (
"334 650 LINE",
"335 553 LINE",
"374 573 OFFCURVE",
"407 594 OFFCURVE",
"434 618 CURVE",
"428 650 LINE"
);
},
{
closed = 1;
nodes = (
"464 650 LINE",
"463 593 LINE",
"601 567 LINE",
"604 650 LINE"
);
},
{
closed = 1;
nodes = (
"540 650 LINE",
"540 0 LINE",
"779 0 LINE",
"779 650 LINE"
);
},
{
closed = 1;
nodes = (
"764 650 LINE",
"765 553 LINE",
"804 573 OFFCURVE",
"837 594 OFFCURVE",
"864 618 CURVE",
"858 650 LINE"
);
},
{
closed = 1;
nodes = (
"280 382 LINE",
"280 262 LINE",
"614 262 LINE",
"614 382 LINE"
);
},
{
closed = 1;
nodes = (
"85 77 OFFCURVE",
"52 56 OFFCURVE",
"25 32 CURVE",
"31 0 LINE",
"125 0 LINE",
"124 97 LINE"
);
},
{
closed = 1;
nodes = (
"295 0 LINE",
"435 0 LINE",
"436 57 LINE",
"298 83 LINE"
);
},
{
closed = 1;
nodes = (
"515 77 OFFCURVE",
"482 56 OFFCURVE",
"455 32 CURVE",
"461 0 LINE",
"555 0 LINE",
"554 97 LINE"
);
},
{
closed = 1;
nodes = (
"725 0 LINE",
"865 0 LINE",
"866 57 LINE",
"728 83 LINE"
);
}
);
width = 891;
},
{
associatedMasterId = "818F884A-9448-4DD2-A77B-976162CCCBC7";
layerId = "5135AF22-DDC6-4969-87D5-8EB97FFAA98C";
name = "(null) May 10 14, 15:15";
width = 600;
}
);
leftKerningGroup = I;
leftMetricsKey = I;
rightKerningGroup = I;
rightMetricsKey = I;
unicode = 0048;
},
{
color = 3;
glyphname = I;
lastChange = "2014-11-10 18:25:45 +0000";
layers = (
{
anchors = (
{
name = ogonek;
position = "{232, 1}";
},
{
name = top;
position = "{162, 650}";
}
);
background = {
paths = (
{
closed = 1;
nodes = (
"208 0 LINE",
"208 650 LINE",
"115 650 LINE",
"115 0 LINE"
);
},
{
closed = 1;
nodes = (
"125 0 LINE",
"124 70 LINE",
"124 70 OFFCURVE",
"52 49 OFFCURVE",
"25 35 CURVE",
"31 0 LINE"
);
},
{
closed = 1;
nodes = (
"304 0 LINE",
"305 47 LINE",
"167 63 LINE",
"164 0 LINE"
);
},
{
closed = 1;
nodes = (
"201 650 LINE",
"202 580 LINE",
"202 580 OFFCURVE",
"274 601 OFFCURVE",
"301 615 CURVE",
"295 650 LINE"
);
},
{
closed = 1;
nodes = (
"34 650 LINE",
"33 603 LINE",
"171 587 LINE",
"174 650 LINE"
);
}
);
};
layerId = UUID0;
name = Regular;
paths = (
{
closed = 1;
nodes = (
"208 0 LINE",
"208 650 LINE",
"115 650 LINE",
"115 0 LINE"
);
},
{
closed = 1;
nodes = (
"130 0 LINE",
"129 67 LINE",
"96 57 OFFCURVE",
"60 46 OFFCURVE",
"30 32 CURVE",
"36 0 LINE"
);
},
{
closed = 1;
nodes = (
"304 0 LINE",
"305 47 LINE",
"167 63 LINE",
"164 0 LINE"
);
},
{
closed = 1;
nodes = (
"39 650 LINE",
"38 603 LINE",
"176 587 LINE",
"179 650 LINE"
);
},
{
closed = 1;
nodes = (
"193 650 LINE",
"194 583 LINE",
"227 593 OFFCURVE",
"263 604 OFFCURVE",
"293 618 CURVE",
"287 650 LINE"
);
}
);
width = 335;
},
{
associatedMasterId = UUID0;
layerId = "4415220C-E0E2-4A4D-AC8F-AA07326287F4";
name = "new Layer May 3 14, 21:44";
paths = (
{
closed = 1;
nodes = (
"210 0 LINE",
"210 650 LINE",
"117 650 LINE",
"117 0 LINE"
);
},
{
closed = 1;
nodes = (
"127 0 LINE",
"126 70 LINE",
"126 70 OFFCURVE",
"54 49 OFFCURVE",
"27 35 CURVE",
"33 0 LINE"
);
},
{
closed = 1;
nodes = (
"306 0 LINE",
"307 47 LINE",
"169 63 LINE",
"166 0 LINE"
);
},
{
closed = 1;
nodes = (
"203 650 LINE",
"204 580 LINE",
"204 580 OFFCURVE",
"276 601 OFFCURVE",
"303 615 CURVE",
"297 650 LINE"
);
},
{
closed = 1;
nodes = (
"36 650 LINE",
"35 603 LINE",
"173 587 LINE",
"176 650 LINE"
);
}
);
width = 327;
},
{
anchors = (
{
name = ogonek;
position = "{384, 0}";
},
{
name = top;
position = "{231, 650}";
}
);
layerId = "818F884A-9448-4DD2-A77B-976162CCCBC7";
name = Bold;
paths = (
{
closed = 1;
nodes = (
"349 0 LINE",
"349 650 LINE",
"110 650 LINE",
"110 0 LINE"
);
},
{
closed = 1;
nodes = (
"125 0 LINE",
"124 97 LINE",
"85 77 OFFCURVE",
"52 56 OFFCURVE",
"25 32 CURVE",
"31 0 LINE"
);
},
{
closed = 1;
nodes = (
"435 0 LINE",
"436 57 LINE",
"298 83 LINE",
"295 0 LINE"
);
},
{
closed = 1;
nodes = (
"34 650 LINE",
"33 593 LINE",
"171 567 LINE",
"174 650 LINE"
);
},
{
closed = 1;
nodes = (
"334 650 LINE",
"335 553 LINE",
"374 573 OFFCURVE",
"407 594 OFFCURVE",
"434 618 CURVE",
"428 650 LINE"
);
}
);
width = 461;
},
{
associatedMasterId = "818F884A-9448-4DD2-A77B-976162CCCBC7";
layerId = "CF27BC9E-F1A1-45ED-A285-CF64B6CF9EE1";
name = "(null) May 10 14, 15:15";
width = 600;
}
);
leftKerningGroup = I;
rightKerningGroup = I;
unicode = 0049;
},
{
color = 3;
glyphname = Imacron;
lastChange = "2014-11-10 18:25:53 +0000";
layers = (
{
components = (
{
name = I;
transform = "{1, 0, 0, 1, 13, 0}";
}
);
layerId = UUID0;
name = Regular;
paths = (
{
closed = 1;
nodes = (
"112 784 OFFCURVE",
"69 779 OFFCURVE",
"30 759 CURVE",
"36 715 LINE",
"284 715 LINE",
"331 749 LINE",
"326 784 LINE",
"143 784 LINE"
);
}
);
width = 361;
},
{
associatedMasterId = UUID0;
components = (
{
name = I;
transform = "{1, 0, 0, 1, 0, 0}";
}
);
layerId = "98AA631D-D493-45F2-8439-0CEF8BD66297";
name = "new Layer May 3 14, 21:44";
paths = (
{
closed = 1;
nodes = (
"130 784 LINE",
"99 784 OFFCURVE",
"56 779 OFFCURVE",
"17 759 CURVE",
"23 715 LINE",
"271 715 LINE",
"318 749 LINE",
"313 784 LINE",
"130 784 LINE"
);
}
);
width = 327;
},
{
components = (
{
name = I;
transform = "{1, 0, 0, 1, 0, 0}";
}
);
layerId = "818F884A-9448-4DD2-A77B-976162CCCBC7";
name = Bold;
paths = (
{
closed = 1;
nodes = (
"117 861 OFFCURVE",
"74 856 OFFCURVE",
"35 836 CURVE",
"41 742 LINE",
"389 742 LINE",
"436 796 LINE",
"431 861 LINE",
"148 861 LINE"
);
}
);
width = 461;
},
{
associatedMasterId = "818F884A-9448-4DD2-A77B-976162CCCBC7";
layerId = "6B8DAE40-06A8-4949-944A-57538041CACD";
name = "(null) May 10 14, 15:15";
width = 600;
}
);
leftKerningGroup = I;
leftMetricsKey = I;
rightKerningGroup = I;
rightMetricsKey = I;
unicode = 012A;
},
{
color = 3;
glyphname = J;
lastChange = "2014-11-10 18:25:53 +0000";
layers = (
{
anchors = (
{
name = top;
position = "{184, 650}";
}
);
background = {
paths = (
{
closed = 1;
nodes = (
"232 156 LINE",
"232 650 LINE",
"139 650 LINE",
"139 156 LINE"
);
},
{
closed = 1;
nodes = (
"225 650 LINE",
"226 580 LINE",
"226 580 OFFCURVE",
"298 601 OFFCURVE",
"325 615 CURVE",
"319 650 LINE"
);
},
{
closed = 1;
nodes = (
"48 650 LINE",
"47 603 LINE",
"185 587 LINE",
"188 650 LINE"
);
},
{
closed = 1;
nodes = (
"32 -182 LINE",
"131 -124 OFFCURVE",
"232 -47 OFFCURVE",
"232 81 CURVE SMOOTH",
"232 391 LINE",
"139 391 LINE",
"139 128 LINE SMOOTH",
"139 -16 OFFCURVE",
"80 -78 OFFCURVE",
"-4 -131 CURVE"
);
}
);
};
layerId = UUID0;
name = Regular;
paths = (
{
closed = 1;
nodes = (
"43 650 LINE",
"42 603 LINE",
"180 587 LINE",
"183 650 LINE"
);
},
{
closed = 1;
nodes = (
"139 650 LINE",
"139 128 LINE SMOOTH",
"139 -16 OFFCURVE",
"80 -78 OFFCURVE",
"-4 -131 CURVE",
"32 -182 LINE",
"131 -124 OFFCURVE",
"232 -47 OFFCURVE",
"232 81 CURVE SMOOTH",
"232 650 LINE"
);
},
{
closed = 1;
nodes = (
"217 650 LINE",
"218 583 LINE",
"251 593 OFFCURVE",
"287 604 OFFCURVE",
"317 618 CURVE",
"311 650 LINE"
);
}
);
width = 347;
},
{
associatedMasterId = UUID0;
layerId = "DB1B1079-4937-46B4-9E27-EBE4B6BEC5E6";
name = "new Layer May 3 14, 21:44";
paths = (
{
closed = 1;
nodes = (
"232 156 LINE",
"232 650 LINE",
"139 650 LINE",
"139 156 LINE"
);
},
{
closed = 1;
nodes = (
"225 650 LINE",
"226 580 LINE",
"226 580 OFFCURVE",
"298 601 OFFCURVE",
"325 615 CURVE",
"319 650 LINE"
);
},
{
closed = 1;
nodes = (
"48 650 LINE",
"47 603 LINE",
"185 587 LINE",
"188 650 LINE"
);
},
{
closed = 1;
nodes = (
"32 -182 LINE",
"131 -124 OFFCURVE",
"232 -47 OFFCURVE",
"232 81 CURVE SMOOTH",
"232 391 LINE",
"139 391 LINE",
"139 128 LINE SMOOTH",
"139 -16 OFFCURVE",
"80 -78 OFFCURVE",
"-4 -131 CURVE"
);
}
);
width = 339;
},
{
anchors = (
{
name = top;
position = "{230, 650}";
}
);
layerId = "818F884A-9448-4DD2-A77B-976162CCCBC7";
name = Bold;
paths = (
{
closed = 1;
nodes = (
"29 650 LINE",
"28 593 LINE",
"166 567 LINE",
"169 650 LINE"
);
},
{
closed = 1;
nodes = (
"105 650 LINE",
"105 158 LINE SMOOTH",
"105 -16 OFFCURVE",
"46 -78 OFFCURVE",
"-38 -131 CURVE",
"-4 -192 LINE",
"213 -134 OFFCURVE",
"344 -47 OFFCURVE",
"344 201 CURVE SMOOTH",
"344 650 LINE"
);
},
{
closed = 1;
nodes = (
"329 650 LINE",
"330 553 LINE",
"369 573 OFFCURVE",
"402 594 OFFCURVE",
"429 618 CURVE",
"423 650 LINE"
);
}
);
width = 454;
},
{
associatedMasterId = "818F884A-9448-4DD2-A77B-976162CCCBC7";
layerId = "DBCFA7A3-A955-43A7-9620-B30029391480";
name = "(null) May 10 14, 15:15";
width = 600;
}
);
rightMetricsKey = I;
unicode = 004A;
},
{
color = 3;
glyphname = K;
lastChange = "2014-11-10 18:25:53 +0000";
layers = (
{
anchors = (
{
name = bottom;
position = "{365, 0}";
},
{
name = top;
position = "{325, 650}";
}
);
background = {
paths = (
{
closed = 1;
nodes = (
"499 0 LINE",
"619 0 LINE",
"328 387 LINE",
"263 324 LINE"
);
},
{
closed = 1;
nodes = (
"189 218 LINE",
"566 621 LINE",
"566 650 LINE",
"506 650 LINE",
"177 297 LINE"
);
},
{
closed = 1;
nodes = (
"637 0 LINE",
"638 48 LINE",
"542 54 LINE",
"557 12 OFFCURVE",
"549 16 OFFCURVE",
"544 0 CURVE"
);
},
{
closed = 1;
nodes = (
"208 0 LINE",
"208 650 LINE",
"115 650 LINE",
"115 0 LINE"
);
},
{
closed = 1;
nodes = (
"125 0 LINE",
"124 70 LINE",
"124 70 OFFCURVE",
"52 49 OFFCURVE",
"25 35 CURVE",
"31 0 LINE"
);
},
{
closed = 1;
nodes = (
"304 0 LINE",
"305 47 LINE",
"167 63 LINE",
"164 0 LINE"
);
},
{
closed = 1;
nodes = (
"181 650 LINE",
"182 580 LINE",
"182 580 OFFCURVE",
"254 601 OFFCURVE",
"281 615 CURVE",
"275 650 LINE"
);
},
{
closed = 1;
nodes = (
"34 650 LINE",
"33 603 LINE",
"171 587 LINE",
"174 650 LINE"
);
},
{
closed = 1;
nodes = (
"509 650 LINE",
"510 580 LINE",
"510 580 OFFCURVE",
"582 601 OFFCURVE",
"609 615 CURVE",
"603 650 LINE"
);
},
{
closed = 1;
nodes = (
"386 650 LINE",
"385 603 LINE",
"520 593 LINE",
"526 650 LINE"
);
}
);
};
layerId = UUID0;
name = Regular;
paths = (
{
closed = 1;
nodes = (
"506 650 LINE",
"177 297 LINE",
"189 218 LINE",
"566 621 LINE",
"566 650 LINE"
);
},
{
closed = 1;
nodes = (
"96 57 OFFCURVE",
"60 46 OFFCURVE",
"30 32 CURVE",
"36 0 LINE",
"130 0 LINE",
"129 67 LINE"
);
},
{
closed = 1;
nodes = (
"164 0 LINE",
"304 0 LINE",
"305 47 LINE",
"167 63 LINE"
);
},
{
closed = 1;
nodes = (
"115 650 LINE",
"115 0 LINE",
"208 0 LINE",
"208 650 LINE"
);
},
{
closed = 1;
nodes = (
"193 650 LINE",
"194 583 LINE",
"227 593 OFFCURVE",
"263 604 OFFCURVE",
"293 618 CURVE",
"287 650 LINE"
);
},
{
closed = 1;
nodes = (
"386 650 LINE",
"385 603 LINE",
"523 587 LINE",
"526 650 LINE"
);
},
{
closed = 1;
nodes = (
"509 650 LINE",
"510 583 LINE",
"543 593 OFFCURVE",
"579 604 OFFCURVE",
"609 618 CURVE",
"603 650 LINE"
);
},
{
closed = 1;
nodes = (
"38 650 LINE",
"37 603 LINE",
"175 587 LINE",
"178 650 LINE"
);
},
{
closed = 1;
nodes = (
"263 324 LINE",
"499 0 LINE",
"619 0 LINE",
"328 387 LINE"
);
},
{
closed = 1;
nodes = (
"544 0 LINE",
"637 0 LINE",
"638 48 LINE",
"542 54 LINE"
);
}
);
width = 651;
},
{
associatedMasterId = UUID0;
layerId = "327ACE66-DB67-420E-9B4B-6562BD25D7A6";
name = "new Layer May 3 14, 21:44";
paths = (
{
closed = 1;
nodes = (
"501 0 LINE",
"621 0 LINE",
"330 387 LINE",
"265 324 LINE"
);
},
{
closed = 1;
nodes = (
"191 218 LINE",
"568 621 LINE",
"568 650 LINE",
"508 650 LINE",
"179 297 LINE"
);
},
{
closed = 1;
nodes = (
"639 0 LINE",
"640 48 LINE",
"544 54 LINE",
"559 12 OFFCURVE",
"551 16 OFFCURVE",
"546 0 CURVE"
);
},
{
closed = 1;
nodes = (
"210 0 LINE",
"210 650 LINE",
"117 650 LINE",
"117 0 LINE"
);
},
{
closed = 1;
nodes = (
"127 0 LINE",
"126 70 LINE",
"126 70 OFFCURVE",
"54 49 OFFCURVE",
"27 35 CURVE",
"33 0 LINE"
);
},
{
closed = 1;
nodes = (
"306 0 LINE",
"307 47 LINE",
"169 63 LINE",
"166 0 LINE"
);
},
{
closed = 1;
nodes = (
"183 650 LINE",
"184 580 LINE",
"184 580 OFFCURVE",
"256 601 OFFCURVE",
"283 615 CURVE",
"277 650 LINE"
);
},
{
closed = 1;
nodes = (
"36 650 LINE",
"35 603 LINE",
"173 587 LINE",
"176 650 LINE"
);
},
{
closed = 1;
nodes = (
"511 650 LINE",
"512 580 LINE",
"512 580 OFFCURVE",
"584 601 OFFCURVE",
"611 615 CURVE",
"605 650 LINE"
);
},
{
closed = 1;
nodes = (
"388 650 LINE",
"387 603 LINE",
"522 593 LINE",
"528 650 LINE"
);
}
);
width = 653;
},
{
anchors = (
{
name = bottom;
position = "{424, 0}";
},
{
name = top;
position = "{424, 650}";
}
);
background = {
paths = (
{
closed = 1;
nodes = (
"527 650 LINE",
"526 603 LINE",
"664 587 LINE",
"667 650 LINE"
);
},
{
closed = 1;
nodes = (
"650 650 LINE",
"651 583 LINE",
"684 593 OFFCURVE",
"720 604 OFFCURVE",
"750 618 CURVE",
"744 650 LINE"
);
}
);
};
layerId = "818F884A-9448-4DD2-A77B-976162CCCBC7";
name = Bold;
paths = (
{
closed = 1;
nodes = (
"597 650 LINE",
"268 297 LINE",
"292 168 LINE",
"697 591 LINE",
"707 650 LINE"
);
},
{
closed = 1;
nodes = (
"85 77 OFFCURVE",
"52 56 OFFCURVE",
"25 32 CURVE",
"31 0 LINE",
"125 0 LINE",
"124 97 LINE"
);
},
{
closed = 1;
nodes = (
"295 0 LINE",
"435 0 LINE",
"436 57 LINE",
"298 83 LINE"
);
},
{
closed = 1;
nodes = (
"110 650 LINE",
"110 0 LINE",
"349 0 LINE",
"349 650 LINE"
);
},
{
closed = 1;
nodes = (
"334 650 LINE",
"335 553 LINE",
"374 573 OFFCURVE",
"407 594 OFFCURVE",
"434 618 CURVE",
"428 650 LINE"
);
},
{
closed = 1;
nodes = (
"474 650 LINE",
"473 593 LINE",
"611 567 LINE",
"614 650 LINE"
);
},
{
closed = 1;
nodes = (
"645 650 LINE",
"646 553 LINE",
"685 571 OFFCURVE",
"748 594 OFFCURVE",
"775 618 CURVE",
"769 650 LINE"
);
},
{
closed = 1;
nodes = (
"34 650 LINE",
"33 593 LINE",
"171 567 LINE",
"174 650 LINE"
);
},
{
closed = 1;
nodes = (
"354 265 LINE",
"527 0 LINE",
"813 0 LINE",
"518 414 LINE"
);
},
{
closed = 1;
nodes = (
"681 0 LINE",
"821 0 LINE",
"822 57 LINE",
"684 83 LINE"
);
}
);
width = 826;
},
{
associatedMasterId = "818F884A-9448-4DD2-A77B-976162CCCBC7";
layerId = "65C80256-214E-4634-A2D1-FC4152321F5B";
name = "(null) May 10 14, 15:15";
width = 600;
}
);
leftKerningGroup = I;
leftMetricsKey = I;
rightKerningGroup = K;
unicode = 004B;
},
{
color = 3;
glyphname = L;
lastChange = "2014-11-10 18:28:02 +0000";
layers = (
{
anchors = (
{
name = bottom;
position = "{272, 0}";
},
{
name = top;
position = "{160, 650}";
},
{
name = topright;
position = "{428, 650}";
}
);
layerId = UUID0;
name = Regular;
paths = (
{
closed = 1;
nodes = (
"39 650 LINE",
"38 603 LINE",
"176 587 LINE",
"179 650 LINE"
);
},
{
closed = 1;
nodes = (
"193 650 LINE",
"194 583 LINE",
"227 593 OFFCURVE",
"263 604 OFFCURVE",
"293 618 CURVE",
"287 650 LINE"
);
},
{
closed = 1;
nodes = (
"96 57 OFFCURVE",
"60 46 OFFCURVE",
"30 32 CURVE",
"36 0 LINE",
"130 0 LINE",
"129 67 LINE"
);
},
{
closed = 1;
nodes = (
"184 66 LINE",
"109 0 LINE",
"522 0 LINE",
"505 79 LINE"
);
},
{
closed = 1;
nodes = (
"115 650 LINE",
"115 0 LINE",
"208 0 LINE",
"208 650 LINE"
);
},
{
closed = 1;
nodes = (
"444 40 LINE",
"522 0 LINE",
"529 43 OFFCURVE",
"532 109 OFFCURVE",
"530 171 CURVE",
"474 175 LINE"
);
}
);
width = 548;
},
{
associatedMasterId = UUID0;
layerId = "25AA4A9F-5A2E-406A-8D49-D00A53E589F4";
name = "new Layer May 3 14, 21:44";
paths = (
{
closed = 1;
nodes = (
"113 0 LINE",
"526 0 LINE",
"509 79 LINE",
"188 66 LINE"
);
},
{
closed = 1;
nodes = (
"212 0 LINE",
"212 650 LINE",
"119 650 LINE",
"119 0 LINE"
);
},
{
closed = 1;
nodes = (
"131 0 LINE",
"130 70 LINE",
"130 70 OFFCURVE",
"58 49 OFFCURVE",
"31 35 CURVE",
"37 0 LINE"
);
},
{
closed = 1;
nodes = (
"478 175 LINE",
"448 40 LINE",
"526 0 LINE",
"533 43 OFFCURVE",
"536 109 OFFCURVE",
"534 171 CURVE"
);
},
{
closed = 1;
nodes = (
"192 650 LINE",
"193 573 LINE",
"193 573 OFFCURVE",
"285 601 OFFCURVE",
"312 615 CURVE",
"306 650 LINE"
);
},
{
closed = 1;
nodes = (
"36 650 LINE",
"35 603 LINE",
"173 587 LINE",
"176 650 LINE"
);
}
);
width = 552;
},
{
anchors = (
{
name = bottom;
position = "{352, 0}";
},
{
name = top;
position = "{252, 650}";
},
{
name = topright;
position = "{679, 650}";
}
);
background = {
paths = (
{
closed = 1;
nodes = (
"34 650 LINE",
"33 593 LINE",
"171 567 LINE",
"174 650 LINE"
);
},
{
closed = 1;
nodes = (
"334 650 LINE",
"335 553 LINE",
"374 573 OFFCURVE",
"407 594 OFFCURVE",
"434 618 CURVE",
"428 650 LINE"
);
},
{
closed = 1;
nodes = (
"85 77 OFFCURVE",
"52 56 OFFCURVE",
"25 32 CURVE",
"31 0 LINE",
"125 0 LINE",
"124 97 LINE"
);
},
{
closed = 1;
nodes = (
"322 116 LINE",
"247 0 LINE",
"650 0 LINE",
"633 139 LINE"
);
},
{
closed = 1;
nodes = (
"110 650 LINE",
"110 0 LINE",
"349 0 LINE",
"349 650 LINE"
);
},
{
closed = 1;
nodes = (
"387 0 LINE",
"649 0 LINE",
"654 49 OFFCURVE",
"639 229 OFFCURVE",
"624 278 CURVE",
"484 278 LINE"
);
}
);
};
layerId = "818F884A-9448-4DD2-A77B-976162CCCBC7";
name = Bold;
paths = (
{
closed = 1;
nodes = (
"34 650 LINE",
"33 593 LINE",
"171 567 LINE",
"174 650 LINE"
);
},
{
closed = 1;
nodes = (
"334 650 LINE",
"335 553 LINE",
"374 573 OFFCURVE",
"407 594 OFFCURVE",
"434 618 CURVE",
"428 650 LINE"
);
},
{
closed = 1;
nodes = (
"85 77 OFFCURVE",
"52 56 OFFCURVE",
"25 32 CURVE",
"31 0 LINE",
"125 0 LINE",
"124 97 LINE"
);
},
{
closed = 1;
nodes = (
"322 116 LINE",
"247 0 LINE",
"650 0 LINE",
"633 139 LINE"
);
},
{
closed = 1;
nodes = (
"110 650 LINE",
"110 0 LINE",
"349 0 LINE",
"349 650 LINE"
);
},
{
closed = 1;
nodes = (
"451 0 LINE",
"650 0 LINE",
"655 49 OFFCURVE",
"659 195 OFFCURVE",
"656 277 CURVE",
"506 277 LINE"
);
}
);
width = 669;
},
{
associatedMasterId = "818F884A-9448-4DD2-A77B-976162CCCBC7";
layerId = "10850C50-A461-4846-85E9-5A4887E2CBA1";
name = "(null) May 10 14, 15:15";
width = 600;
},
{
associatedMasterId = "818F884A-9448-4DD2-A77B-976162CCCBC7";
background = {
paths = (
{
closed = 1;
nodes = (
"105 650 LINE",
"105 0 LINE",
"344 0 LINE",
"344 650 LINE"
);
},
{
closed = 1;
nodes = (
"80 77 OFFCURVE",
"47 56 OFFCURVE",
"20 32 CURVE",
"26 0 LINE",
"120 0 LINE",
"119 97 LINE"
);
},
{
closed = 1;
nodes = (
"298 96 LINE",
"223 0 LINE",
"636 0 LINE",
"619 109 LINE"
);
},
{
closed = 1;
nodes = (
"528 70 LINE",
"636 0 LINE",
"643 73 OFFCURVE",
"646 139 OFFCURVE",
"644 201 CURVE",
"588 205 LINE"
);
},
{
closed = 1;
nodes = (
"29 650 LINE",
"28 603 LINE",
"166 557 LINE",
"169 650 LINE"
);
},
{
closed = 1;
nodes = (
"329 650 LINE",
"330 553 LINE",
"369 573 OFFCURVE",
"402 594 OFFCURVE",
"429 618 CURVE",
"423 650 LINE"
);
}
);
};
layerId = "0FE29E0A-79C7-4A11-8E23-3F6BACDCD457";
name = "Bold May 19 14, 12:49";
paths = (
{
closed = 1;
nodes = (
"105 650 LINE",
"105 0 LINE",
"344 0 LINE",
"344 650 LINE"
);
},
{
closed = 1;
nodes = (
"80 77 OFFCURVE",
"47 56 OFFCURVE",
"20 32 CURVE",
"26 0 LINE",
"120 0 LINE",
"119 97 LINE"
);
},
{
closed = 1;
nodes = (
"298 96 LINE",
"223 0 LINE",
"636 0 LINE",
"619 109 LINE"
);
},
{
closed = 1;
nodes = (
"528 70 LINE",
"636 0 LINE",
"643 73 OFFCURVE",
"646 139 OFFCURVE",
"644 201 CURVE",
"588 205 LINE"
);
},
{
closed = 1;
nodes = (
"29 650 LINE",
"28 603 LINE",
"166 557 LINE",
"169 650 LINE"
);
},
{
closed = 1;
nodes = (
"329 650 LINE",
"330 553 LINE",
"369 573 OFFCURVE",
"402 594 OFFCURVE",
"429 618 CURVE",
"423 650 LINE"
);
}
);
width = 600;
},
{
associatedMasterId = "818F884A-9448-4DD2-A77B-976162CCCBC7";
background = {
paths = (
{
closed = 1;
nodes = (
"105 650 LINE",
"105 0 LINE",
"344 0 LINE",
"344 650 LINE"
);
},
{
closed = 1;
nodes = (
"80 77 OFFCURVE",
"47 56 OFFCURVE",
"20 32 CURVE",
"26 0 LINE",
"120 0 LINE",
"119 97 LINE"
);
},
{
closed = 1;
nodes = (
"298 96 LINE",
"223 0 LINE",
"636 0 LINE",
"619 109 LINE"
);
},
{
closed = 1;
nodes = (
"528 70 LINE",
"636 0 LINE",
"643 73 OFFCURVE",
"646 139 OFFCURVE",
"644 201 CURVE",
"588 205 LINE"
);
},
{
closed = 1;
nodes = (
"29 650 LINE",
"28 603 LINE",
"166 557 LINE",
"169 650 LINE"
);
},
{
closed = 1;
nodes = (
"329 650 LINE",
"330 553 LINE",
"369 573 OFFCURVE",
"402 594 OFFCURVE",
"429 618 CURVE",
"423 650 LINE"
);
}
);
};
layerId = "5EA514B3-42F1-47A7-9941-57957ED770C7";
name = "Bold May 19 14, 13:06";
paths = (
{
closed = 1;
nodes = (
"105 650 LINE",
"105 0 LINE",
"344 0 LINE",
"344 650 LINE"
);
},
{
closed = 1;
nodes = (
"80 77 OFFCURVE",
"47 56 OFFCURVE",
"20 32 CURVE",
"26 0 LINE",
"120 0 LINE",
"119 97 LINE"
);
},
{
closed = 1;
nodes = (
"29 650 LINE",
"28 603 LINE",
"166 557 LINE",
"169 650 LINE"
);
},
{
closed = 1;
nodes = (
"329 650 LINE",
"330 553 LINE",
"369 573 OFFCURVE",
"402 594 OFFCURVE",
"429 618 CURVE",
"423 650 LINE"
);
},
{
closed = 1;
nodes = (
"317 116 LINE",
"242 0 LINE",
"655 0 LINE",
"638 139 LINE"
);
},
{
closed = 1;
nodes = (
"557 100 LINE",
"655 0 LINE",
"662 77 OFFCURVE",
"664 154 OFFCURVE",
"659 231 CURVE",
"583 235 LINE"
);
}
);
width = 683;
}
);
leftKerningGroup = I;
leftMetricsKey = I;
rightKerningGroup = L;
unicode = 004C;
},
{
color = 3;
glyphname = Lslash;
lastChange = "2014-11-10 18:25:53 +0000";
layers = (
{
components = (
{
name = L;
transform = "{1, 0, 0, 1, 16, 0}";
}
);
layerId = UUID0;
name = Regular;
paths = (
{
closed = 1;
nodes = (
"30 258 LINE",
"63 199 LINE",
"374 380 LINE",
"385 433 LINE",
"367 456 LINE"
);
}
);
width = 564;
},
{
associatedMasterId = UUID0;
components = (
{
name = L;
transform = "{1, 0, 0, 1, 0, 0}";
}
);
layerId = "21C89CAE-BA41-4D60-B490-1ED184E5B377";
name = "new Layer May 3 14, 21:44";
paths = (
{
closed = 1;
nodes = (
"14 258 LINE",
"47 199 LINE",
"358 380 LINE",
"369 433 LINE",
"351 456 LINE"
);
}
);
width = 552;
},
{
components = (
{
name = L;
transform = "{1, 0, 0, 1, 20, 0}";
}
);
layerId = "818F884A-9448-4DD2-A77B-976162CCCBC7";
name = Bold;
paths = (
{
closed = 1;
nodes = (
"25 289 LINE",
"50 226 LINE",
"451 390 LINE",
"470 441 LINE",
"455 466 LINE"
);
}
);
width = 682;
},
{
associatedMasterId = "818F884A-9448-4DD2-A77B-976162CCCBC7";
layerId = "FB9BE6F7-5067-468C-A975-82477CCA7571";
name = "(null) May 10 14, 15:15";
width = 600;
}
);
leftKerningGroup = I;
leftMetricsKey = L;
rightKerningGroup = L;
rightMetricsKey = L;
unicode = 0141;
},
{
color = 3;
glyphname = M;
lastChange = "2014-11-10 18:25:53 +0000";
layers = (
{
anchors = (
{
name = bottom;
position = "{441, 0}";
},
{
name = top;
position = "{441, 650}";
}
);
background = {
paths = (
{
closed = 1;
nodes = (
"196 0 LINE",
"206 420 LINE",
"184 602 LINE",
"261 650 LINE",
"140 650 LINE",
"117 0 LINE"
);
},
{
closed = 1;
nodes = (
"773 0 LINE",
"762 650 LINE",
"648 650 LINE",
"692 609 LINE",
"676 420 LINE",
"683 0 LINE"
);
},
{
closed = 1;
nodes = (
"485 16 LINE",
"468 73 LINE",
"261 650 LINE",
"177 605 LINE",
"398 -7 LINE"
);
},
{
closed = 1;
nodes = (
"485 16 LINE",
"700 613 LINE",
"648 650 LINE",
"430 36 LINE"
);
},
{
closed = 1;
nodes = (
"131 0 LINE",
"130 70 LINE",
"130 70 OFFCURVE",
"58 49 OFFCURVE",
"31 35 CURVE",
"37 0 LINE"
);
},
{
closed = 1;
nodes = (
"280 0 LINE",
"281 47 LINE",
"143 63 LINE",
"140 0 LINE"
);
},
{
closed = 1;
nodes = (
"691 0 LINE",
"690 70 LINE",
"690 70 OFFCURVE",
"618 49 OFFCURVE",
"591 35 CURVE",
"597 0 LINE"
);
},
{
closed = 1;
nodes = (
"870 0 LINE",
"871 47 LINE",
"733 63 LINE",
"730 0 LINE"
);
},
{
closed = 1;
nodes = (
"737 650 LINE",
"738 580 LINE",
"738 580 OFFCURVE",
"810 601 OFFCURVE",
"837 615 CURVE",
"831 650 LINE"
);
},
{
closed = 1;
nodes = (
"60 650 LINE",
"59 603 LINE",
"197 587 LINE",
"200 650 LINE"
);
}
);
};
layerId = UUID0;
name = Regular;
paths = (
{
closed = 1;
nodes = (
"60 650 LINE",
"59 603 LINE",
"197 587 LINE",
"200 650 LINE"
);
},
{
closed = 1;
nodes = (
"140 650 LINE",
"117 0 LINE",
"196 0 LINE",
"206 420 LINE",
"184 602 LINE",
"261 650 LINE"
);
},
{
closed = 1;
nodes = (
"96 57 OFFCURVE",
"60 46 OFFCURVE",
"30 32 CURVE",
"36 0 LINE",
"130 0 LINE",
"129 67 LINE"
);
},
{
closed = 1;
nodes = (
"140 0 LINE",
"280 0 LINE",
"281 47 LINE SMOOTH",
"143 63 LINE"
);
},
{
closed = 1;
nodes = (
"177 605 LINE",
"398 -7 LINE",
"485 16 LINE",
"468 73 LINE",
"261 650 LINE"
);
},
{
closed = 1;
nodes = (
"430 36 LINE",
"485 16 LINE",
"700 613 LINE",
"648 650 LINE"
);
},
{
closed = 1;
nodes = (
"648 650 LINE",
"692 609 LINE",
"676 420 LINE",
"683 0 LINE",
"773 0 LINE",
"762 650 LINE"
);
},
{
closed = 1;
nodes = (
"737 650 LINE",
"738 583 LINE",
"771 593 OFFCURVE",
"807 604 OFFCURVE",
"837 618 CURVE",
"831 650 LINE"
);
},
{
closed = 1;
nodes = (
"662 57 OFFCURVE",
"626 46 OFFCURVE",
"596 32 CURVE",
"602 0 LINE",
"696 0 LINE",
"695 67 LINE"
);
},
{
closed = 1;
nodes = (
"730 0 LINE",
"870 0 LINE",
"871 47 LINE",
"733 63 LINE"
);
}
);
width = 901;
},
{
associatedMasterId = UUID0;
layerId = "15AD5E64-DD1E-4D59-853B-AA19B7E81C71";
name = "new Layer May 3 14, 21:44";
paths = (
{
closed = 1;
nodes = (
"192 0 LINE",
"202 420 LINE",
"180 602 LINE",
"257 650 LINE",
"136 650 LINE",
"113 0 LINE"
);
},
{
closed = 1;
nodes = (
"769 0 LINE",
"758 650 LINE",
"644 650 LINE",
"688 609 LINE",
"672 420 LINE",
"679 0 LINE"
);
},
{
closed = 1;
nodes = (
"481 16 LINE",
"464 73 LINE",
"257 650 LINE",
"173 605 LINE",
"394 -7 LINE"
);
},
{
closed = 1;
nodes = (
"481 16 LINE",
"696 613 LINE",
"644 650 LINE",
"426 36 LINE"
);
},
{
closed = 1;
nodes = (
"127 0 LINE",
"126 70 LINE",
"126 70 OFFCURVE",
"54 49 OFFCURVE",
"27 35 CURVE",
"33 0 LINE"
);
},
{
closed = 1;
nodes = (
"276 0 LINE",
"277 47 LINE",
"139 63 LINE",
"136 0 LINE"
);
},
{
closed = 1;
nodes = (
"687 0 LINE",
"686 70 LINE",
"686 70 OFFCURVE",
"614 49 OFFCURVE",
"587 35 CURVE",
"593 0 LINE"
);
},
{
closed = 1;
nodes = (
"866 0 LINE",
"867 47 LINE",
"729 63 LINE",
"726 0 LINE"
);
},
{
closed = 1;
nodes = (
"733 650 LINE",
"734 580 LINE",
"734 580 OFFCURVE",
"806 601 OFFCURVE",
"833 615 CURVE",
"827 650 LINE"
);
},
{
closed = 1;
nodes = (
"56 650 LINE",
"55 603 LINE",
"193 587 LINE",
"196 650 LINE"
);
}
);
width = 896;
},
{
background = {
paths = (
{
closed = 1;
nodes = (
"237 0 LINE",
"247 420 LINE",
"225 602 LINE",
"302 650 LINE",
"181 650 LINE",
"158 0 LINE"
);
},
{
closed = 1;
nodes = (
"814 0 LINE",
"803 650 LINE",
"689 650 LINE",
"733 609 LINE",
"717 420 LINE",
"724 0 LINE"
);
},
{
closed = 1;
nodes = (
"526 16 LINE",
"509 73 LINE",
"302 650 LINE",
"218 605 LINE",
"439 -7 LINE"
);
},
{
closed = 1;
nodes = (
"526 16 LINE",
"741 613 LINE",
"689 650 LINE",
"471 36 LINE"
);
},
{
closed = 1;
nodes = (
"321 0 LINE",
"322 47 LINE",
"184 63 LINE",
"181 0 LINE"
);
},
{
closed = 1;
nodes = (
"101 650 LINE",
"100 603 LINE",
"238 587 LINE",
"241 650 LINE"
);
},
{
closed = 1;
nodes = (
"171 0 LINE",
"170 67 LINE",
"137 57 OFFCURVE",
"101 46 OFFCURVE",
"71 32 CURVE",
"77 0 LINE"
);
},
{
closed = 1;
nodes = (
"737 0 LINE",
"736 67 LINE",
"703 57 OFFCURVE",
"667 46 OFFCURVE",
"637 32 CURVE",
"643 0 LINE"
);
},
{
closed = 1;
nodes = (
"911 0 LINE",
"912 47 LINE",
"774 63 LINE",
"771 0 LINE"
);
},
{
closed = 1;
nodes = (
"778 650 LINE",
"779 583 LINE",
"812 593 OFFCURVE",
"848 604 OFFCURVE",
"878 618 CURVE",
"872 650 LINE"
);
}
);
};
layerId = "818F884A-9448-4DD2-A77B-976162CCCBC7";
name = Bold;
paths = (
{
closed = 1;
nodes = (
"34 650 LINE",
"33 593 LINE",
"171 567 LINE",
"174 650 LINE"
);
},
{
closed = 1;
nodes = (
"120 650 LINE",
"110 0 LINE",
"269 0 LINE",
"269 225 LINE",
"250 498 LINE",
"391 650 LINE"
);
},
{
closed = 1;
nodes = (
"85 77 OFFCURVE",
"52 56 OFFCURVE",
"25 32 CURVE",
"31 0 LINE",
"125 0 LINE",
"124 97 LINE"
);
},
{
closed = 1;
nodes = (
"215 0 LINE",
"355 0 LINE",
"356 57 LINE",
"218 83 LINE"
);
},
{
closed = 1;
nodes = (
"187 605 LINE",
"408 -7 LINE",
"564 16 LINE",
"568 152 LINE",
"391 650 LINE"
);
},
{
closed = 1;
nodes = (
"469 36 LINE",
"564 16 LINE",
"796 613 LINE",
"704 650 LINE"
);
},
{
closed = 1;
nodes = (
"704 650 LINE",
"725 502 LINE",
"704 225 LINE",
"704 0 LINE",
"933 0 LINE",
"923 650 LINE"
);
},
{
closed = 1;
nodes = (
"918 650 LINE",
"919 553 LINE",
"958 573 OFFCURVE",
"991 594 OFFCURVE",
"1018 618 CURVE",
"1012 650 LINE"
);
},
{
closed = 1;
nodes = (
"679 77 OFFCURVE",
"646 56 OFFCURVE",
"619 32 CURVE",
"625 0 LINE",
"719 0 LINE",
"718 97 LINE"
);
},
{
closed = 1;
nodes = (
"879 0 LINE",
"1019 0 LINE",
"1020 57 LINE",
"882 83 LINE"
);
}
);
width = 1045;
},
{
associatedMasterId = "818F884A-9448-4DD2-A77B-976162CCCBC7";
layerId = "8EF12C1F-ED96-4DD2-B21F-8AB911B1B22E";
name = "(null) May 10 14, 15:15";
width = 600;
},
{
associatedMasterId = "818F884A-9448-4DD2-A77B-976162CCCBC7";
background = {
paths = (
{
closed = 1;
nodes = (
"192 0 LINE",
"202 420 LINE",
"180 602 LINE",
"257 650 LINE",
"136 650 LINE",
"113 0 LINE"
);
},
{
closed = 1;
nodes = (
"769 0 LINE",
"758 650 LINE",
"644 650 LINE",
"688 609 LINE",
"672 420 LINE",
"679 0 LINE"
);
},
{
closed = 1;
nodes = (
"481 16 LINE",
"464 73 LINE",
"257 650 LINE",
"173 605 LINE",
"394 -7 LINE"
);
},
{
closed = 1;
nodes = (
"481 16 LINE",
"696 613 LINE",
"644 650 LINE",
"426 36 LINE"
);
},
{
closed = 1;
nodes = (
"276 0 LINE",
"277 47 LINE",
"139 63 LINE",
"136 0 LINE"
);
},
{
closed = 1;
nodes = (
"56 650 LINE",
"55 603 LINE",
"193 587 LINE",
"196 650 LINE"
);
},
{
closed = 1;
nodes = (
"126 0 LINE",
"125 67 LINE",
"92 57 OFFCURVE",
"56 46 OFFCURVE",
"26 32 CURVE",
"32 0 LINE"
);
},
{
closed = 1;
nodes = (
"692 0 LINE",
"691 67 LINE",
"658 57 OFFCURVE",
"622 46 OFFCURVE",
"592 32 CURVE",
"598 0 LINE"
);
},
{
closed = 1;
nodes = (
"866 0 LINE",
"867 47 LINE",
"729 63 LINE",
"726 0 LINE"
);
},
{
closed = 1;
nodes = (
"733 650 LINE",
"734 583 LINE",
"767 593 OFFCURVE",
"803 604 OFFCURVE",
"833 618 CURVE",
"827 650 LINE"
);
}
);
};
layerId = "4224E106-6B4A-46E3-ACD7-7FB83232F7D9";
name = "Bold May 19 14, 16:18";
paths = (
{
closed = 1;
nodes = (
"224 0 LINE",
"224 225 LINE",
"203 498 LINE",
"346 650 LINE",
"25 650 LINE",
"25 0 LINE"
);
},
{
closed = 1;
nodes = (
"40 0 LINE",
"39 97 LINE",
"0 77 OFFCURVE",
"-33 56 OFFCURVE",
"-60 32 CURVE",
"-54 0 LINE"
);
},
{
closed = 1;
nodes = (
"310 0 LINE",
"311 47 LINE",
"173 93 LINE",
"170 0 LINE"
);
},
{
closed = 1;
nodes = (
"-51 650 LINE",
"-52 603 LINE",
"86 557 LINE",
"89 650 LINE"
);
},
{
closed = 1;
nodes = (
"893 0 LINE",
"893 650 LINE",
"664 650 LINE",
"687 502 LINE",
"664 225 LINE",
"664 0 LINE"
);
},
{
closed = 1;
nodes = (
"679 0 LINE",
"678 97 LINE",
"639 77 OFFCURVE",
"606 56 OFFCURVE",
"579 32 CURVE",
"585 0 LINE"
);
},
{
closed = 1;
nodes = (
"979 0 LINE",
"980 47 LINE",
"842 93 LINE",
"839 0 LINE"
);
},
{
closed = 1;
nodes = (
"878 650 LINE",
"879 553 LINE",
"918 573 OFFCURVE",
"951 594 OFFCURVE",
"978 618 CURVE",
"972 650 LINE"
);
},
{
closed = 1;
nodes = (
"519 16 LINE",
"523 152 LINE",
"346 650 LINE",
"142 605 LINE",
"363 -7 LINE"
);
},
{
closed = 1;
nodes = (
"519 16 LINE",
"756 613 LINE",
"664 650 LINE",
"424 36 LINE"
);
}
);
width = 897;
},
{
associatedMasterId = "818F884A-9448-4DD2-A77B-976162CCCBC7";
background = {
paths = (
{
closed = 1;
nodes = (
"202 0 LINE",
"212 420 LINE",
"190 602 LINE",
"267 650 LINE",
"146 650 LINE",
"123 0 LINE"
);
},
{
closed = 1;
nodes = (
"779 0 LINE",
"768 650 LINE",
"654 650 LINE",
"698 609 LINE",
"682 420 LINE",
"689 0 LINE"
);
},
{
closed = 1;
nodes = (
"491 16 LINE",
"474 73 LINE",
"267 650 LINE",
"183 605 LINE",
"404 -7 LINE"
);
},
{
closed = 1;
nodes = (
"491 16 LINE",
"706 613 LINE",
"654 650 LINE",
"436 36 LINE"
);
},
{
closed = 1;
nodes = (
"286 0 LINE",
"287 47 LINE",
"149 63 LINE",
"146 0 LINE"
);
},
{
closed = 1;
nodes = (
"66 650 LINE",
"65 603 LINE",
"203 587 LINE",
"206 650 LINE"
);
},
{
closed = 1;
nodes = (
"136 0 LINE",
"135 67 LINE",
"102 57 OFFCURVE",
"66 46 OFFCURVE",
"36 32 CURVE",
"42 0 LINE"
);
},
{
closed = 1;
nodes = (
"702 0 LINE",
"701 67 LINE",
"668 57 OFFCURVE",
"632 46 OFFCURVE",
"602 32 CURVE",
"608 0 LINE"
);
},
{
closed = 1;
nodes = (
"876 0 LINE",
"877 47 LINE",
"739 63 LINE",
"736 0 LINE"
);
},
{
closed = 1;
nodes = (
"743 650 LINE",
"744 583 LINE",
"777 593 OFFCURVE",
"813 604 OFFCURVE",
"843 618 CURVE",
"837 650 LINE"
);
}
);
};
layerId = "691D67C8-9720-46C8-A0DF-A5D5F8BF1163";
name = "Bold [500]";
paths = (
{
closed = 1;
nodes = (
"29 650 LINE",
"28 603 LINE",
"166 557 LINE",
"169 650 LINE"
);
},
{
closed = 1;
nodes = (
"115 650 LINE",
"105 0 LINE",
"264 0 LINE",
"264 225 LINE",
"245 498 LINE",
"386 650 LINE"
);
},
{
closed = 1;
nodes = (
"80 77 OFFCURVE",
"47 56 OFFCURVE",
"20 32 CURVE",
"26 0 LINE",
"120 0 LINE",
"119 97 LINE"
);
},
{
closed = 1;
nodes = (
"210 0 LINE",
"350 0 LINE",
"351 47 LINE",
"213 93 LINE"
);
},
{
closed = 1;
nodes = (
"182 605 LINE",
"403 -7 LINE",
"559 16 LINE",
"563 152 LINE",
"386 650 LINE"
);
},
{
closed = 1;
nodes = (
"464 36 LINE",
"559 16 LINE",
"791 613 LINE",
"699 650 LINE"
);
},
{
closed = 1;
nodes = (
"699 650 LINE",
"720 502 LINE",
"699 225 LINE",
"699 0 LINE",
"928 0 LINE",
"918 650 LINE"
);
},
{
closed = 1;
nodes = (
"913 650 LINE",
"914 553 LINE",
"953 573 OFFCURVE",
"986 594 OFFCURVE",
"1013 618 CURVE",
"1007 650 LINE"
);
},
{
closed = 1;
nodes = (
"674 77 OFFCURVE",
"641 56 OFFCURVE",
"614 32 CURVE",
"620 0 LINE",
"714 0 LINE",
"713 97 LINE"
);
},
{
closed = 1;
nodes = (
"874 0 LINE",
"1014 0 LINE",
"1015 47 LINE",
"877 93 LINE"
);
}
);
width = 1035;
},
{
associatedMasterId = UUID0;
background = {
paths = (
{
closed = 1;
nodes = (
"192 0 LINE",
"202 420 LINE",
"180 602 LINE",
"257 650 LINE",
"136 650 LINE",
"113 0 LINE"
);
},
{
closed = 1;
nodes = (
"769 0 LINE",
"758 650 LINE",
"644 650 LINE",
"688 609 LINE",
"672 420 LINE",
"679 0 LINE"
);
},
{
closed = 1;
nodes = (
"481 16 LINE",
"464 73 LINE",
"257 650 LINE",
"173 605 LINE",
"394 -7 LINE"
);
},
{
closed = 1;
nodes = (
"481 16 LINE",
"696 613 LINE",
"644 650 LINE",
"426 36 LINE"
);
},
{
closed = 1;
nodes = (
"127 0 LINE",
"126 70 LINE",
"126 70 OFFCURVE",
"54 49 OFFCURVE",
"27 35 CURVE",
"33 0 LINE"
);
},
{
closed = 1;
nodes = (
"276 0 LINE",
"277 47 LINE",
"139 63 LINE",
"136 0 LINE"
);
},
{
closed = 1;
nodes = (
"687 0 LINE",
"686 70 LINE",
"686 70 OFFCURVE",
"614 49 OFFCURVE",
"587 35 CURVE",
"593 0 LINE"
);
},
{
closed = 1;
nodes = (
"866 0 LINE",
"867 47 LINE",
"729 63 LINE",
"726 0 LINE"
);
},
{
closed = 1;
nodes = (
"733 650 LINE",
"734 580 LINE",
"734 580 OFFCURVE",
"806 601 OFFCURVE",
"833 615 CURVE",
"827 650 LINE"
);
},
{
closed = 1;
nodes = (
"56 650 LINE",
"55 603 LINE",
"193 587 LINE",
"196 650 LINE"
);
}
);
};
layerId = "C1D32A58-BF25-49F3-8325-DF1BFD8AEA48";
name = "Regular [500]";
paths = (
{
closed = 1;
nodes = (
"56 650 LINE",
"55 603 LINE",
"193 587 LINE",
"196 650 LINE"
);
},
{
closed = 1;
nodes = (
"136 650 LINE",
"113 0 LINE",
"192 0 LINE",
"202 420 LINE",
"180 602 LINE",
"257 650 LINE"
);
},
{
closed = 1;
nodes = (
"92 57 OFFCURVE",
"56 46 OFFCURVE",
"26 32 CURVE",
"32 0 LINE",
"126 0 LINE",
"125 67 LINE"
);
},
{
closed = 1;
nodes = (
"136 0 LINE",
"276 0 LINE",
"277 47 LINE SMOOTH",
"139 63 LINE"
);
},
{
closed = 1;
nodes = (
"173 605 LINE",
"394 -7 LINE",
"481 16 LINE",
"464 73 LINE",
"257 650 LINE"
);
},
{
closed = 1;
nodes = (
"426 36 LINE",
"481 16 LINE",
"696 613 LINE",
"644 650 LINE"
);
},
{
closed = 1;
nodes = (
"644 650 LINE",
"688 609 LINE",
"672 420 LINE",
"679 0 LINE",
"769 0 LINE",
"758 650 LINE"
);
},
{
closed = 1;
nodes = (
"733 650 LINE",
"734 583 LINE",
"767 593 OFFCURVE",
"803 604 OFFCURVE",
"833 618 CURVE",
"827 650 LINE"
);
},
{
closed = 1;
nodes = (
"658 57 OFFCURVE",
"622 46 OFFCURVE",
"592 32 CURVE",
"598 0 LINE",
"692 0 LINE",
"691 67 LINE"
);
},
{
closed = 1;
nodes = (
"726 0 LINE",
"866 0 LINE",
"867 47 LINE",
"729 63 LINE"
);
}
);
width = 896;
},
{
associatedMasterId = UUID0;
background = {
paths = (
{
closed = 1;
nodes = (
"192 0 LINE",
"202 420 LINE",
"180 602 LINE",
"257 650 LINE",
"136 650 LINE",
"113 0 LINE"
);
},
{
closed = 1;
nodes = (
"769 0 LINE",
"758 650 LINE",
"644 650 LINE",
"688 609 LINE",
"672 420 LINE",
"679 0 LINE"
);
},
{
closed = 1;
nodes = (
"481 16 LINE",
"464 73 LINE",
"257 650 LINE",
"173 605 LINE",
"394 -7 LINE"
);
},
{
closed = 1;
nodes = (
"481 16 LINE",
"696 613 LINE",
"644 650 LINE",
"426 36 LINE"
);
},
{
closed = 1;
nodes = (
"127 0 LINE",
"126 70 LINE",
"126 70 OFFCURVE",
"54 49 OFFCURVE",
"27 35 CURVE",
"33 0 LINE"
);
},
{
closed = 1;
nodes = (
"276 0 LINE",
"277 47 LINE",
"139 63 LINE",
"136 0 LINE"
);
},
{
closed = 1;
nodes = (
"687 0 LINE",
"686 70 LINE",
"686 70 OFFCURVE",
"614 49 OFFCURVE",
"587 35 CURVE",
"593 0 LINE"
);
},
{
closed = 1;
nodes = (
"866 0 LINE",
"867 47 LINE",
"729 63 LINE",
"726 0 LINE"
);
},
{
closed = 1;
nodes = (
"733 650 LINE",
"734 580 LINE",
"734 580 OFFCURVE",
"806 601 OFFCURVE",
"833 615 CURVE",
"827 650 LINE"
);
},
{
closed = 1;
nodes = (
"56 650 LINE",
"55 603 LINE",
"193 587 LINE",
"196 650 LINE"
);
}
);
};
layerId = "AD3B2895-9DC8-4496-B728-559CA27CDAA9";
name = "Regular May 19 14, 16:19 May 19 14, 16:19";
paths = (
{
closed = 1;
nodes = (
"192 0 LINE",
"202 420 LINE",
"180 602 LINE",
"257 650 LINE",
"136 650 LINE",
"113 0 LINE"
);
},
{
closed = 1;
nodes = (
"769 0 LINE",
"758 650 LINE",
"644 650 LINE",
"688 609 LINE",
"672 420 LINE",
"679 0 LINE"
);
},
{
closed = 1;
nodes = (
"481 16 LINE",
"464 73 LINE",
"257 650 LINE",
"173 605 LINE",
"394 -7 LINE"
);
},
{
closed = 1;
nodes = (
"481 16 LINE",
"696 613 LINE",
"644 650 LINE",
"426 36 LINE"
);
},
{
closed = 1;
nodes = (
"276 0 LINE",
"277 47 LINE",
"139 63 LINE",
"136 0 LINE"
);
},
{
closed = 1;
nodes = (
"56 650 LINE",
"55 603 LINE",
"193 587 LINE",
"196 650 LINE"
);
},
{
closed = 1;
nodes = (
"126 0 LINE",
"125 67 LINE",
"92 57 OFFCURVE",
"56 46 OFFCURVE",
"26 32 CURVE",
"32 0 LINE"
);
},
{
closed = 1;
nodes = (
"692 0 LINE",
"691 67 LINE",
"658 57 OFFCURVE",
"622 46 OFFCURVE",
"592 32 CURVE",
"598 0 LINE"
);
},
{
closed = 1;
nodes = (
"866 0 LINE",
"867 47 LINE",
"729 63 LINE",
"726 0 LINE"
);
},
{
closed = 1;
nodes = (
"733 650 LINE",
"734 583 LINE",
"767 593 OFFCURVE",
"803 604 OFFCURVE",
"833 618 CURVE",
"827 650 LINE"
);
}
);
width = 896;
}
);
leftKerningGroup = I;
leftMetricsKey = I;
rightKerningGroup = I;
rightMetricsKey = I;
unicode = 004D;
},
{
color = 3;
glyphname = N;
lastChange = "2014-11-10 18:25:53 +0000";
layers = (
{
anchors = (
{
name = bottom;
position = "{363, 0}";
},
{
name = top;
position = "{353, 650}";
}
);
layerId = UUID0;
name = Regular;
paths = (
{
closed = 1;
nodes = (
"138 0 LINE",
"278 0 LINE",
"279 47 LINE",
"141 63 LINE"
);
},
{
closed = 1;
nodes = (
"96 57 OFFCURVE",
"60 46 OFFCURVE",
"30 32 CURVE",
"36 0 LINE",
"130 0 LINE",
"129 67 LINE"
);
},
{
closed = 1;
nodes = (
"115 650 LINE",
"115 0 LINE",
"190 0 LINE",
"190 418 LINE",
"166 600 LINE",
"229 650 LINE"
);
},
{
closed = 1;
nodes = (
"51 650 LINE",
"50 603 LINE",
"188 587 LINE",
"191 650 LINE"
);
},
{
closed = 1;
nodes = (
"161 650 LINE",
"158 579 LINE",
"527 -11 LINE",
"594 24 LINE",
"587 73 LINE",
"229 650 LINE"
);
},
{
closed = 1;
nodes = (
"458 650 LINE",
"457 603 LINE",
"595 587 LINE",
"598 650 LINE"
);
},
{
closed = 1;
nodes = (
"554 650 LINE",
"554 232 LINE",
"579 50 LINE",
"527 -11 LINE",
"630 0 LINE",
"630 650 LINE"
);
},
{
closed = 1;
nodes = (
"615 650 LINE",
"616 583 LINE",
"649 593 OFFCURVE",
"685 604 OFFCURVE",
"715 618 CURVE",
"709 650 LINE"
);
}
);
width = 745;
},
{
associatedMasterId = UUID0;
layerId = "63711292-2D39-4338-823B-F1F75A7F538B";
name = "new Layer May 3 14, 21:44";
paths = (
{
closed = 1;
nodes = (
"599 24 LINE",
"592 73 LINE",
"234 650 LINE",
"166 650 LINE",
"163 579 LINE",
"532 -11 LINE"
);
},
{
closed = 1;
nodes = (
"195 0 LINE",
"195 418 LINE",
"171 600 LINE",
"234 650 LINE",
"120 650 LINE",
"120 0 LINE"
);
},
{
closed = 1;
nodes = (
"134 0 LINE",
"133 70 LINE",
"133 70 OFFCURVE",
"61 49 OFFCURVE",
"34 35 CURVE",
"40 0 LINE"
);
},
{
closed = 1;
nodes = (
"283 0 LINE",
"284 47 LINE",
"146 63 LINE",
"143 0 LINE"
);
},
{
closed = 1;
nodes = (
"56 650 LINE",
"55 603 LINE",
"193 587 LINE",
"196 650 LINE"
);
},
{
closed = 1;
nodes = (
"559 650 LINE",
"559 232 LINE",
"584 50 LINE",
"532 -11 LINE",
"635 0 LINE",
"635 650 LINE"
);
},
{
closed = 1;
nodes = (
"599 650 LINE",
"600 573 LINE",
"600 573 OFFCURVE",
"692 601 OFFCURVE",
"719 615 CURVE",
"713 650 LINE"
);
},
{
closed = 1;
nodes = (
"463 650 LINE",
"462 603 LINE",
"600 587 LINE",
"603 650 LINE"
);
}
);
width = 735;
},
{
anchors = (
{
name = bottom;
position = "{393, 0}";
},
{
name = top;
position = "{393, 650}";
}
);
layerId = "818F884A-9448-4DD2-A77B-976162CCCBC7";
name = Bold;
paths = (
{
closed = 1;
nodes = (
"215 0 LINE",
"355 0 LINE",
"356 57 LINE",
"218 83 LINE"
);
},
{
closed = 1;
nodes = (
"85 77 OFFCURVE",
"52 56 OFFCURVE",
"25 32 CURVE",
"31 0 LINE",
"125 0 LINE",
"124 97 LINE"
);
},
{
closed = 1;
nodes = (
"110 650 LINE",
"110 0 LINE",
"269 0 LINE",
"269 225 LINE",
"240 498 LINE",
"321 650 LINE"
);
},
{
closed = 1;
nodes = (
"34 650 LINE",
"33 593 LINE",
"151 567 LINE",
"154 650 LINE"
);
},
{
closed = 1;
nodes = (
"118 650 LINE",
"117 545 LINE",
"518 -15 LINE",
"664 10 LINE",
"698 106 LINE",
"321 650 LINE"
);
},
{
closed = 1;
nodes = (
"461 650 LINE",
"460 593 LINE",
"598 567 LINE",
"601 650 LINE"
);
},
{
closed = 1;
nodes = (
"567 650 LINE",
"567 425 LINE",
"606 40 LINE",
"518 -15 LINE",
"716 0 LINE",
"726 650 LINE"
);
},
{
closed = 1;
nodes = (
"691 650 LINE",
"692 553 LINE",
"731 573 OFFCURVE",
"764 594 OFFCURVE",
"791 618 CURVE",
"785 650 LINE"
);
}
);
width = 816;
},
{
associatedMasterId = "818F884A-9448-4DD2-A77B-976162CCCBC7";
layerId = "7249A9F8-BF92-484E-AD32-DF988D4A7960";
name = "(null) May 10 14, 15:15";
width = 600;
}
);
leftKerningGroup = I;
leftMetricsKey = I;
rightKerningGroup = N;
rightMetricsKey = I;
unicode = 004E;
},
{
color = 3;
glyphname = O;
lastChange = "2014-11-10 18:33:33 +0000";
layers = (
{
anchors = (
{
name = top;
position = "{346, 650}";
}
);
background = {
paths = (
{
closed = 1;
nodes = (
"168 668 OFFCURVE",
"42 522 OFFCURVE",
"42 331 CURVE SMOOTH",
"42 86 OFFCURVE",
"196 -24 OFFCURVE",
"350 -24 CURVE SMOOTH",
"501 -24 OFFCURVE",
"650 79 OFFCURVE",
"650 331 CURVE SMOOTH",
"650 531 OFFCURVE",
"507 668 OFFCURVE",
"349 668 CURVE SMOOTH"
);
},
{
closed = 1;
nodes = (
"598 700 OFFCURVE",
"603 160 OFFCURVE",
"446 57 CURVE",
"94 -30 OFFCURVE",
"94 472 OFFCURVE",
"235 582 CURVE"
);
}
);
};
layerId = UUID0;
name = Regular;
paths = (
{
closed = 1;
nodes = (
"168 670 OFFCURVE",
"42 524 OFFCURVE",
"42 331 CURVE SMOOTH",
"42 86 OFFCURVE",
"196 -20 OFFCURVE",
"350 -20 CURVE SMOOTH",
"501 -20 OFFCURVE",
"650 79 OFFCURVE",
"650 331 CURVE SMOOTH",
"650 533 OFFCURVE",
"507 670 OFFCURVE",
"349 670 CURVE SMOOTH"
);
},
{
closed = 1;
nodes = (
"270 596 OFFCURVE",
"302 601 OFFCURVE",
"331 601 CURVE SMOOTH",
"482 601 OFFCURVE",
"544 457 OFFCURVE",
"544 313 CURVE SMOOTH",
"544 205 OFFCURVE",
"508 101 OFFCURVE",
"446 61 CURVE",
"418 54 OFFCURVE",
"393 51 OFFCURVE",
"369 51 CURVE SMOOTH",
"210 51 OFFCURVE",
"147 193 OFFCURVE",
"147 335 CURVE SMOOTH",
"147 440 OFFCURVE",
"180 542 OFFCURVE",
"235 584 CURVE"
);
}
);
width = 692;
},
{
associatedMasterId = UUID0;
layerId = "C694FAA6-D0E5-44A5-950D-DAAB48A3DA4E";
name = "new Layer May 3 14, 21:44";
paths = (
{
closed = 1;
nodes = (
"168 668 OFFCURVE",
"42 522 OFFCURVE",
"42 331 CURVE SMOOTH",
"42 86 OFFCURVE",
"196 -24 OFFCURVE",
"350 -24 CURVE SMOOTH",
"501 -24 OFFCURVE",
"650 79 OFFCURVE",
"650 331 CURVE SMOOTH",
"650 531 OFFCURVE",
"507 668 OFFCURVE",
"349 668 CURVE SMOOTH"
);
},
{
closed = 1;
nodes = (
"598 700 OFFCURVE",
"603 160 OFFCURVE",
"446 57 CURVE",
"94 -30 OFFCURVE",
"94 472 OFFCURVE",
"235 582 CURVE"
);
}
);
width = 692;
},
{
anchors = (
{
name = top;
position = "{359, 650}";
}
);
background = {
paths = (
{
closed = 1;
nodes = (
"160 670 OFFCURVE",
"16 524 OFFCURVE",
"15 331 CURVE SMOOTH",
"16 86 OFFCURVE",
"189 -20 OFFCURVE",
"363 -20 CURVE SMOOTH",
"534 -20 OFFCURVE",
"702 79 OFFCURVE",
"703 331 CURVE SMOOTH",
"702 533 OFFCURVE",
"540 670 OFFCURVE",
"362 670 CURVE SMOOTH"
);
},
{
closed = 1;
nodes = (
"314 547 OFFCURVE",
"324 549 OFFCURVE",
"334 549 CURVE SMOOTH",
"415 549 OFFCURVE",
"442 459 OFFCURVE",
"445 273 CURVE SMOOTH",
"446 237 OFFCURVE",
"437 133 OFFCURVE",
"404 97 CURVE",
"398 96 OFFCURVE",
"393 95 OFFCURVE",
"388 95 CURVE SMOOTH",
"309 95 OFFCURVE",
"272 187 OFFCURVE",
"268 386 CURVE SMOOTH",
"267 417 OFFCURVE",
"274 513 OFFCURVE",
"303 544 CURVE"
);
}
);
};
layerId = "818F884A-9448-4DD2-A77B-976162CCCBC7";
name = Bold;
paths = (
{
closed = 1;
nodes = (
"160 670 OFFCURVE",
"16 524 OFFCURVE",
"15 331 CURVE SMOOTH",
"16 86 OFFCURVE",
"189 -20 OFFCURVE",
"363 -20 CURVE SMOOTH",
"534 -20 OFFCURVE",
"702 79 OFFCURVE",
"703 331 CURVE SMOOTH",
"702 533 OFFCURVE",
"540 670 OFFCURVE",
"362 670 CURVE SMOOTH"
);
},
{
closed = 1;
nodes = (
"312.544 546.834 OFFCURVE",
"332 548 OFFCURVE",
"340 548 CURVE SMOOTH",
"424.52 548 OFFCURVE",
"469 433 OFFCURVE",
"469 312 CURVE SMOOTH",
"469 228 OFFCURVE",
"447.538 135.53 OFFCURVE",
"404 97 CURVE",
"398.012 95.7475 OFFCURVE",
"382 95 OFFCURVE",
"367 95 CURVE SMOOTH",
"291.512 95 OFFCURVE",
"246 221 OFFCURVE",
"246 346 CURVE SMOOTH",
"246 426 OFFCURVE",
"264.465 511.077 OFFCURVE",
"303 544 CURVE"
);
}
);
width = 718;
},
{
associatedMasterId = "818F884A-9448-4DD2-A77B-976162CCCBC7";
layerId = "D4ADAF96-96A7-4555-9F2E-30F87E78421E";
name = "(null) May 10 14, 15:15";
width = 600;
}
);
leftKerningGroup = O;
rightKerningGroup = O;
unicode = 004F;
},
{
color = 3;
glyphname = Oslash;
lastChange = "2014-11-10 18:25:53 +0000";
layers = (
{
components = (
{
name = O;
transform = "{1, 0, 0, 1, 0, 0}";
}
);
layerId = UUID0;
name = Regular;
paths = (
{
closed = 1;
nodes = (
"232 -93 LINE",
"538 712 LINE",
"475 739 LINE",
"168 -68 LINE"
);
}
);
width = 692;
},
{
associatedMasterId = UUID0;
components = (
{
name = O;
transform = "{1, 0, 0, 1, 0, 0}";
},
{
name = slash;
transform = "{1, 0, 0, 1, 135, 32}";
}
);
layerId = "3510A93D-C624-4398-A153-6470CAFF1DCE";
name = "new Layer May 3 14, 21:44";
width = 692;
},
{
components = (
{
name = O;
transform = "{1, 0, 0, 1, 0, 0}";
}
);
layerId = "818F884A-9448-4DD2-A77B-976162CCCBC7";
name = Bold;
paths = (
{
closed = 1;
nodes = (
"214 -126 LINE",
"540 735 LINE",
"483 756 LINE",
"158 -102 LINE"
);
}
);
width = 718;
},
{
associatedMasterId = "818F884A-9448-4DD2-A77B-976162CCCBC7";
layerId = "60DBA98F-B4A7-4D8F-AB7E-E51D186E4978";
name = "(null) May 10 14, 15:15";
width = 600;
}
);
leftKerningGroup = O;
leftMetricsKey = O;
rightKerningGroup = O;
rightMetricsKey = O;
unicode = 00D8;
},
{
color = 3;
glyphname = OE;
lastChange = "2014-11-12 10:49:58 +0000";
layers = (
{
layerId = UUID0;
name = Regular;
paths = (
{
closed = 1;
nodes = (
"513 159 LINE",
"503 60 OFFCURVE",
"432 59 OFFCURVE",
"363 59 CURVE SMOOTH",
"210 59 OFFCURVE",
"144 191 OFFCURVE",
"144 326 CURVE SMOOTH",
"144 426 OFFCURVE",
"181 528 OFFCURVE",
"245 575 CURVE",
"278 587 OFFCURVE",
"316 593 OFFCURVE",
"355 593 CURVE SMOOTH",
"431 593 OFFCURVE",
"506 570 OFFCURVE",
"534 522 CURVE",
"545 622 LINE",
"475 662 OFFCURVE",
"381 670 OFFCURVE",
"307 657 CURVE",
"154 634 OFFCURVE",
"42 506 OFFCURVE",
"42 334 CURVE SMOOTH",
"42 89 OFFCURVE",
"196 -11 OFFCURVE",
"350 -11 CURVE SMOOTH",
"415 -11 OFFCURVE",
"479 -2 OFFCURVE",
"531 39 CURVE"
);
},
{
closed = 1;
nodes = (
"554 0 LINE",
"554 650 LINE",
"461 650 LINE",
"461 0 LINE"
);
},
{
closed = 1;
nodes = (
"825 573 LINE",
"842 650 LINE",
"449 650 LINE",
"524 586 LINE"
);
},
{
closed = 1;
nodes = (
"537 294 LINE",
"777 284 LINE",
"777 371 LINE",
"537 353 LINE"
);
},
{
closed = 1;
nodes = (
"524 64 LINE",
"445 0 LINE",
"842 0 LINE",
"825 77 LINE"
);
},
{
closed = 1;
nodes = (
"832 495 LINE",
"843 556 OFFCURVE",
"845 617 OFFCURVE",
"842 650 CURVE",
"762 605 LINE",
"778 497 LINE"
);
},
{
closed = 1;
nodes = (
"797 165 LINE",
"767 40 LINE",
"842 0 LINE",
"849 43 OFFCURVE",
"852 99 OFFCURVE",
"850 161 CURVE"
);
}
);
width = 903;
},
{
associatedMasterId = UUID0;
layerId = "C4F296C4-87EC-4CB0-AEBF-8F0727382B5E";
name = "new Layer May 3 14, 21:44";
paths = (
{
closed = 1;
nodes = (
"518 159 LINE",
"511 88 OFFCURVE",
"492 81 OFFCURVE",
"451 70 CURVE SMOOTH",
"100 -20 OFFCURVE",
"86 455 OFFCURVE",
"250 575 CURVE",
"347 610 OFFCURVE",
"496 594 OFFCURVE",
"539 522 CURVE",
"550 622 LINE",
"480 662 OFFCURVE",
"386 670 OFFCURVE",
"312 657 CURVE",
"159 634 OFFCURVE",
"47 506 OFFCURVE",
"47 334 CURVE SMOOTH",
"47 89 OFFCURVE",
"201 -11 OFFCURVE",
"355 -11 CURVE SMOOTH",
"420 -11 OFFCURVE",
"484 -2 OFFCURVE",
"536 39 CURVE"
);
},
{
closed = 1;
nodes = (
"529 586 LINE",
"830 573 LINE",
"847 650 LINE",
"454 650 LINE"
);
},
{
closed = 1;
nodes = (
"542 294 LINE",
"782 284 LINE",
"782 371 LINE",
"542 353 LINE"
);
},
{
closed = 1;
nodes = (
"420 0 LINE",
"847 0 LINE",
"830 77 LINE",
"529 64 LINE"
);
},
{
closed = 1;
nodes = (
"559 0 LINE",
"559 650 LINE",
"466 650 LINE",
"466 0 LINE"
);
},
{
closed = 1;
nodes = (
"837 495 LINE",
"848 556 OFFCURVE",
"850 617 OFFCURVE",
"847 650 CURVE",
"767 605 LINE",
"783 497 LINE"
);
},
{
closed = 1;
nodes = (
"802 165 LINE",
"772 40 LINE",
"847 0 LINE",
"854 43 OFFCURVE",
"857 99 OFFCURVE",
"855 161 CURVE"
);
}
);
width = 939;
},
{
background = {
paths = (
{
closed = 1;
nodes = (
"532 166 LINE",
"517 125 OFFCURVE",
"466 94 OFFCURVE",
"420 94 CURVE SMOOTH",
"317 94 OFFCURVE",
"258 257 OFFCURVE",
"258 386 CURVE SMOOTH",
"258 467 OFFCURVE",
"277 513 OFFCURVE",
"313 544 CURVE",
"331 549 OFFCURVE",
"349 551 OFFCURVE",
"361 551 CURVE SMOOTH",
"403 551 OFFCURVE",
"454 542 OFFCURVE",
"476 499 CURVE",
"553 631 LINE",
"504 656 OFFCURVE",
"449 670 OFFCURVE",
"392 670 CURVE SMOOTH",
"191 670 OFFCURVE",
"25 524 OFFCURVE",
"25 331 CURVE SMOOTH",
"25 86 OFFCURVE",
"219 -20 OFFCURVE",
"393 -20 CURVE SMOOTH",
"455 -20 OFFCURVE",
"517 -7 OFFCURVE",
"570 22 CURVE"
);
},
{
closed = 1;
nodes = (
"694 0 LINE",
"694 650 LINE",
"455 650 LINE",
"455 0 LINE"
);
},
{
closed = 1;
nodes = (
"984 521 LINE",
"996 650 LINE",
"573 650 LINE",
"648 544 LINE"
);
},
{
closed = 1;
nodes = (
"651 280 LINE",
"891 270 LINE",
"891 387 LINE",
"651 369 LINE"
);
},
{
closed = 1;
nodes = (
"656 116 LINE",
"581 0 LINE",
"1004 0 LINE",
"992 139 LINE"
);
},
{
closed = 1;
nodes = (
"971 422 LINE",
"986 471 OFFCURVE",
"1001 601 OFFCURVE",
"996 650 CURVE",
"734 650 LINE",
"831 422 LINE"
);
},
{
closed = 1;
nodes = (
"839 228 LINE",
"742 0 LINE",
"1004 0 LINE",
"1009 49 OFFCURVE",
"994 179 OFFCURVE",
"979 228 CURVE"
);
}
);
};
layerId = "818F884A-9448-4DD2-A77B-976162CCCBC7";
name = Bold;
paths = (
{
closed = 1;
nodes = (
"522 166 LINE",
"507 125 OFFCURVE",
"447 94 OFFCURVE",
"398 94 CURVE SMOOTH",
"303 94 OFFCURVE",
"258 214 OFFCURVE",
"258 333 CURVE SMOOTH",
"258 419 OFFCURVE",
"281 505 OFFCURVE",
"323 544 CURVE",
"341 549 OFFCURVE",
"358 551 OFFCURVE",
"375 551 CURVE SMOOTH",
"412 551 OFFCURVE",
"464 542 OFFCURVE",
"486 499 CURVE",
"553 631 LINE",
"504 656 OFFCURVE",
"451 670 OFFCURVE",
"389 670 CURVE SMOOTH",
"191 670 OFFCURVE",
"25 529 OFFCURVE",
"25 319 CURVE SMOOTH",
"25 92 OFFCURVE",
"219 -20 OFFCURVE",
"394 -20 CURVE SMOOTH",
"454 -20 OFFCURVE",
"517 -7 OFFCURVE",
"570 22 CURVE"
);
},
{
closed = 1;
nodes = (
"694 0 LINE",
"694 650 LINE",
"455 650 LINE",
"455 0 LINE"
);
},
{
closed = 1;
nodes = (
"984 521 LINE",
"996 650 LINE",
"573 650 LINE",
"648 544 LINE"
);
},
{
closed = 1;
nodes = (
"651 280 LINE",
"891 270 LINE",
"891 387 LINE",
"651 369 LINE"
);
},
{
closed = 1;
nodes = (
"656 116 LINE",
"581 0 LINE",
"1004 0 LINE",
"992 139 LINE"
);
},
{
closed = 1;
nodes = (
"971 422 LINE",
"986 471 OFFCURVE",
"1001 601 OFFCURVE",
"996 650 CURVE",
"734 650 LINE",
"831 422 LINE"
);
},
{
closed = 1;
nodes = (
"839 228 LINE",
"742 0 LINE",
"1004 0 LINE",
"1009 49 OFFCURVE",
"994 179 OFFCURVE",
"979 228 CURVE"
);
}
);
width = 1030;
},
{
associatedMasterId = "818F884A-9448-4DD2-A77B-976162CCCBC7";
layerId = "00B210A8-AED9-4921-89FC-A5CD240A6A59";
name = "(null) May 10 14, 15:15";
width = 600;
}
);
leftKerningGroup = O;
leftMetricsKey = O;
rightKerningGroup = E;
rightMetricsKey = E;
unicode = 0152;
},
{
color = 3;
glyphname = P;
lastChange = "2014-11-10 18:25:53 +0000";
layers = (
{
background = {
paths = (
{
closed = 1;
nodes = (
"208 0 LINE",
"208 648 LINE",
"115 648 LINE",
"115 0 LINE"
);
},
{
closed = 1;
nodes = (
"130 0 LINE",
"129 70 LINE",
"129 70 OFFCURVE",
"57 49 OFFCURVE",
"30 35 CURVE",
"36 0 LINE"
);
},
{
closed = 1;
nodes = (
"45 650 LINE",
"44 602 LINE",
"140 596 LINE",
"126 638 OFFCURVE",
"134 634 OFFCURVE",
"138 650 CURVE"
);
},
{
closed = 1;
nodes = (
"324 0 LINE",
"325 47 LINE",
"187 63 LINE",
"184 0 LINE"
);
},
{
closed = 1;
nodes = (
"45 650 OFFCURVE",
"192 593 OFFCURVE",
"192 593 CURVE",
"381 604 LINE",
"497 547 OFFCURVE",
"503 303 OFFCURVE",
"310 303 CURVE SMOOTH",
"286 303 OFFCURVE",
"223 307 OFFCURVE",
"178 317 CURVE",
"178 317 OFFCURVE",
"175 245 OFFCURVE",
"175 245 CURVE",
"333 246 LINE SMOOTH",
"638 248 OFFCURVE",
"639 658 OFFCURVE",
"324 658 CURVE",
"245 658 OFFCURVE",
"45 650 OFFCURVE",
"45 650 CURVE"
);
}
);
};
layerId = UUID0;
name = Regular;
paths = (
{
closed = 1;
nodes = (
"45 650 LINE",
"192 593 LINE",
"381 604 LINE",
"433 579 OFFCURVE",
"463 516 OFFCURVE",
"463 454 CURVE SMOOTH",
"463 378 OFFCURVE",
"417 303 OFFCURVE",
"310 303 CURVE SMOOTH",
"286 303 OFFCURVE",
"223 307 OFFCURVE",
"178 317 CURVE",
"175 245 LINE",
"333 246 LINE SMOOTH",
"485 247 OFFCURVE",
"561 349 OFFCURVE",
"561 451 CURVE SMOOTH",
"561 554 OFFCURVE",
"483 658 OFFCURVE",
"324 658 CURVE"
);
},
{
closed = 1;
nodes = (
"96 57 OFFCURVE",
"60 46 OFFCURVE",
"30 32 CURVE",
"36 0 LINE",
"130 0 LINE",
"129 67 LINE"
);
},
{
closed = 1;
nodes = (
"184 0 LINE",
"324 0 LINE",
"325 47 LINE",
"187 63 LINE"
);
},
{
closed = 1;
nodes = (
"115 650 LINE",
"115 0 LINE",
"208 0 LINE",
"208 650 LINE"
);
},
{
closed = 1;
nodes = (
"45 650 LINE",
"44 602 LINE",
"140 596 LINE",
"138 650 LINE"
);
}
);
width = 603;
},
{
associatedMasterId = UUID0;
layerId = "F462FE24-B289-4C22-8B3D-1FD6477D8190";
name = "new Layer May 3 14, 21:44";
paths = (
{
closed = 1;
nodes = (
"212 0 LINE",
"212 648 LINE",
"119 648 LINE",
"119 0 LINE"
);
},
{
closed = 1;
nodes = (
"134 0 LINE",
"133 70 LINE",
"133 70 OFFCURVE",
"61 49 OFFCURVE",
"34 35 CURVE",
"40 0 LINE"
);
},
{
closed = 1;
nodes = (
"49 650 LINE",
"48 602 LINE",
"144 596 LINE",
"130 638 OFFCURVE",
"138 634 OFFCURVE",
"142 650 CURVE"
);
},
{
closed = 1;
nodes = (
"328 0 LINE",
"329 47 LINE",
"191 63 LINE",
"188 0 LINE"
);
},
{
closed = 1;
nodes = (
"49 650 OFFCURVE",
"196 593 OFFCURVE",
"196 593 CURVE",
"385 604 LINE",
"501 547 OFFCURVE",
"507 303 OFFCURVE",
"314 303 CURVE SMOOTH",
"290 303 OFFCURVE",
"227 307 OFFCURVE",
"182 317 CURVE",
"182 317 OFFCURVE",
"179 245 OFFCURVE",
"179 245 CURVE",
"337 246 LINE SMOOTH",
"642 248 OFFCURVE",
"643 658 OFFCURVE",
"328 658 CURVE",
"249 658 OFFCURVE",
"49 650 OFFCURVE",
"49 650 CURVE"
);
}
);
width = 576;
},
{
background = {
paths = (
{
closed = 1;
nodes = (
"186 650 LINE",
"333 536 LINE",
"432 542 LINE",
"455 521 OFFCURVE",
"468 468 OFFCURVE",
"468 427 CURVE SMOOTH",
"468 374 OFFCURVE",
"447 313 OFFCURVE",
"401 313 CURVE SMOOTH",
"377 313 OFFCURVE",
"364 317 OFFCURVE",
"319 327 CURVE",
"316 215 LINE",
"474 216 LINE SMOOTH",
"626 217 OFFCURVE",
"702 320 OFFCURVE",
"702 424 CURVE SMOOTH",
"702 531 OFFCURVE",
"623 658 OFFCURVE",
"455 658 CURVE"
);
},
{
closed = 1;
nodes = (
"87 77 OFFCURVE",
"54 56 OFFCURVE",
"27 32 CURVE",
"33 0 LINE",
"127 0 LINE",
"126 97 LINE"
);
},
{
closed = 1;
nodes = (
"327 0 LINE",
"467 0 LINE",
"468 57 LINE",
"330 83 LINE"
);
},
{
closed = 1;
nodes = (
"102 650 LINE",
"102 0 LINE",
"341 0 LINE",
"341 650 LINE"
);
},
{
closed = 1;
nodes = (
"26 650 LINE",
"25 593 LINE",
"163 567 LINE",
"166 650 LINE"
);
}
);
};
layerId = "818F884A-9448-4DD2-A77B-976162CCCBC7";
name = Bold;
paths = (
{
closed = 1;
nodes = (
"186 650 LINE",
"333 536 LINE",
"432 542 LINE",
"455 521 OFFCURVE",
"468 468 OFFCURVE",
"468 427 CURVE SMOOTH",
"468 374 OFFCURVE",
"447 313 OFFCURVE",
"401 313 CURVE SMOOTH",
"377 313 OFFCURVE",
"364 317 OFFCURVE",
"319 327 CURVE",
"316 215 LINE",
"474 216 LINE SMOOTH",
"626 217 OFFCURVE",
"702 330 OFFCURVE",
"702 434 CURVE SMOOTH",
"702 541 OFFCURVE",
"623 658 OFFCURVE",
"435 658 CURVE"
);
},
{
closed = 1;
nodes = (
"87 77 OFFCURVE",
"54 56 OFFCURVE",
"27 32 CURVE",
"33 0 LINE",
"127 0 LINE",
"126 97 LINE"
);
},
{
closed = 1;
nodes = (
"327 0 LINE",
"467 0 LINE",
"468 57 LINE",
"330 83 LINE"
);
},
{
closed = 1;
nodes = (
"102 650 LINE",
"102 0 LINE",
"341 0 LINE",
"341 650 LINE"
);
},
{
closed = 1;
nodes = (
"26 650 LINE",
"25 593 LINE",
"163 567 LINE",
"166 650 LINE"
);
}
);
width = 707;
},
{
associatedMasterId = "818F884A-9448-4DD2-A77B-976162CCCBC7";
layerId = "D99D0D61-E10E-42A1-B196-DAB1612952DA";
name = "(null) May 10 14, 15:15";
width = 600;
}
);
leftKerningGroup = I;
leftMetricsKey = I;
unicode = 0050;
},
{
color = 3;
glyphname = Thorn;
lastChange = "2014-11-10 18:26:24 +0000";
layers = (
{
layerId = UUID0;
name = Regular;
paths = (
{
closed = 1;
nodes = (
"39 650 LINE",
"38 603 LINE",
"176 587 LINE",
"179 650 LINE"
);
},
{
closed = 1;
nodes = (
"206 650 LINE",
"207 580 LINE",
"207 580 OFFCURVE",
"279 601 OFFCURVE",
"306 615 CURVE",
"300 650 LINE"
);
},
{
closed = 1;
nodes = (
"213 0 LINE",
"213 650 LINE",
"120 650 LINE",
"120 0 LINE"
);
},
{
closed = 1;
nodes = (
"130 0 LINE",
"129 70 LINE",
"129 70 OFFCURVE",
"57 49 OFFCURVE",
"30 35 CURVE",
"36 0 LINE"
);
},
{
closed = 1;
nodes = (
"309 0 LINE",
"310 47 LINE",
"172 63 LINE",
"169 0 LINE"
);
},
{
closed = 1;
nodes = (
"465 155 OFFCURVE",
"546 242 OFFCURVE",
"549 331 CURVE SMOOTH",
"552 423 OFFCURVE",
"470 517 OFFCURVE",
"311 517 CURVE",
"184 517 LINE",
"179 452 LINE",
"368 463 LINE",
"425 435 OFFCURVE",
"452 375 OFFCURVE",
"445 320 CURVE SMOOTH",
"437 263 OFFCURVE",
"390 212 OFFCURVE",
"297 212 CURVE SMOOTH",
"273 212 OFFCURVE",
"196 215 OFFCURVE",
"165 222 CURVE",
"162 155 LINE",
"300 155 LINE SMOOTH"
);
}
);
width = 591;
},
{
associatedMasterId = UUID0;
layerId = "2067F2F7-0CAA-491A-A977-4EF1695C6607";
name = "new Layer May 3 14, 21:44";
paths = (
{
closed = 1;
nodes = (
"210 0 LINE",
"210 650 LINE",
"117 650 LINE",
"117 0 LINE"
);
},
{
closed = 1;
nodes = (
"127 0 LINE",
"126 70 LINE",
"126 70 OFFCURVE",
"54 49 OFFCURVE",
"27 35 CURVE",
"33 0 LINE"
);
},
{
closed = 1;
nodes = (
"306 0 LINE",
"307 47 LINE",
"169 63 LINE",
"166 0 LINE"
);
},
{
closed = 1;
nodes = (
"203 650 LINE",
"204 580 LINE",
"204 580 OFFCURVE",
"276 601 OFFCURVE",
"303 615 CURVE",
"297 650 LINE"
);
},
{
closed = 1;
nodes = (
"36 650 LINE",
"35 603 LINE",
"173 587 LINE",
"176 650 LINE"
);
},
{
closed = 1;
nodes = (
"181 517 OFFCURVE",
"176 452 OFFCURVE",
"176 452 CURVE",
"365 463 LINE",
"481 406 OFFCURVE",
"475 212 OFFCURVE",
"294 212 CURVE SMOOTH",
"270 212 OFFCURVE",
"193 215 OFFCURVE",
"162 222 CURVE",
"162 222 OFFCURVE",
"159 155 OFFCURVE",
"159 155 CURVE",
"297 155 LINE SMOOTH",
"634 155 OFFCURVE",
"620 517 OFFCURVE",
"308 517 CURVE SMOOTH",
"308 517 OFFCURVE",
"181 517 OFFCURVE",
"181 517 CURVE"
);
}
);
width = 574;
},
{
layerId = "818F884A-9448-4DD2-A77B-976162CCCBC7";
name = Bold;
paths = (
{
closed = 1;
nodes = (
"34 650 LINE",
"33 593 LINE",
"171 567 LINE",
"174 650 LINE"
);
},
{
closed = 1;
nodes = (
"334 650 LINE",
"335 553 LINE",
"374 573 OFFCURVE",
"407 594 OFFCURVE",
"434 618 CURVE",
"428 650 LINE"
);
},
{
closed = 1;
nodes = (
"349 0 LINE",
"349 650 LINE",
"110 650 LINE",
"110 0 LINE"
);
},
{
closed = 1;
nodes = (
"125 0 LINE",
"124 97 LINE",
"85 77 OFFCURVE",
"52 56 OFFCURVE",
"25 32 CURVE",
"31 0 LINE"
);
},
{
closed = 1;
nodes = (
"435 0 LINE",
"436 57 LINE",
"298 83 LINE",
"295 0 LINE"
);
},
{
closed = 1;
nodes = (
"604 137 OFFCURVE",
"678 232 OFFCURVE",
"674 329 CURVE SMOOTH",
"670 428 OFFCURVE",
"584 528 OFFCURVE",
"415 528 CURVE",
"186 520 LINE",
"333 406 LINE",
"412 412 LINE",
"431 391 OFFCURVE",
"441 353 OFFCURVE",
"442 317 CURVE SMOOTH",
"443 273 OFFCURVE",
"430 233 OFFCURVE",
"401 233 CURVE SMOOTH",
"377 233 OFFCURVE",
"364 237 OFFCURVE",
"319 247 CURVE",
"316 135 LINE",
"454 136 LINE SMOOTH"
);
}
);
width = 679;
},
{
associatedMasterId = "818F884A-9448-4DD2-A77B-976162CCCBC7";
layerId = "37E113D5-08A9-4F77-9443-74B39CA8F4DE";
name = "(null) May 10 14, 15:15";
width = 600;
}
);
leftKerningGroup = I;
leftMetricsKey = I;
rightMetricsKey = P;
unicode = 00DE;
},
{
color = 3;
glyphname = Q;
lastChange = "2014-11-10 18:34:32 +0000";
layers = (
{
background = {
paths = (
{
closed = 1;
nodes = (
"168 667 OFFCURVE",
"42 531 OFFCURVE",
"42 340 CURVE SMOOTH",
"42 95 OFFCURVE",
"196 -15 OFFCURVE",
"350 -15 CURVE SMOOTH",
"501 -15 OFFCURVE",
"650 88 OFFCURVE",
"650 340 CURVE SMOOTH",
"650 540 OFFCURVE",
"525 667 OFFCURVE",
"349 667 CURVE SMOOTH"
);
},
{
closed = 1;
nodes = (
"599 699 OFFCURVE",
"604 169 OFFCURVE",
"447 66 CURVE",
"95 -21 OFFCURVE",
"95 471 OFFCURVE",
"236 582 CURVE"
);
},
{
closed = 1;
nodes = (
"368 -3 LINE",
"712 -162 LINE",
"751 -64 LINE",
"403 34 LINE"
);
}
);
};
layerId = UUID0;
name = Regular;
paths = (
{
closed = 1;
nodes = (
"368 -3 LINE",
"712 -162 LINE",
"751 -64 LINE",
"403 34 LINE"
);
},
{
closed = 1;
nodes = (
"168 670 OFFCURVE",
"42 524 OFFCURVE",
"42 331 CURVE SMOOTH",
"42 86 OFFCURVE",
"196 -20 OFFCURVE",
"350 -20 CURVE SMOOTH",
"501 -20 OFFCURVE",
"650 79 OFFCURVE",
"650 331 CURVE SMOOTH",
"650 533 OFFCURVE",
"507 670 OFFCURVE",
"349 670 CURVE SMOOTH"
);
},
{
closed = 1;
nodes = (
"270 596 OFFCURVE",
"302 601 OFFCURVE",
"331 601 CURVE SMOOTH",
"482 601 OFFCURVE",
"544 457 OFFCURVE",
"544 313 CURVE SMOOTH",
"544 205 OFFCURVE",
"508 101 OFFCURVE",
"446 61 CURVE",
"418 54 OFFCURVE",
"393 51 OFFCURVE",
"369 51 CURVE SMOOTH",
"210 51 OFFCURVE",
"147 193 OFFCURVE",
"147 335 CURVE SMOOTH",
"147 440 OFFCURVE",
"180 542 OFFCURVE",
"235 584 CURVE"
);
}
);
width = 714;
},
{
associatedMasterId = UUID0;
layerId = "26981819-73DF-4C04-9B3A-A7982469EDEA";
name = "new Layer May 3 14, 21:44";
paths = (
{
closed = 1;
nodes = (
"168 667 OFFCURVE",
"42 531 OFFCURVE",
"42 340 CURVE SMOOTH",
"42 95 OFFCURVE",
"196 -15 OFFCURVE",
"350 -15 CURVE SMOOTH",
"501 -15 OFFCURVE",
"650 88 OFFCURVE",
"650 340 CURVE SMOOTH",
"650 540 OFFCURVE",
"525 667 OFFCURVE",
"349 667 CURVE SMOOTH"
);
},
{
closed = 1;
nodes = (
"599 699 OFFCURVE",
"604 169 OFFCURVE",
"447 66 CURVE",
"95 -21 OFFCURVE",
"95 471 OFFCURVE",
"236 582 CURVE"
);
},
{
closed = 1;
nodes = (
"368 -3 LINE",
"712 -162 LINE",
"751 -64 LINE",
"403 34 LINE"
);
}
);
width = 714;
},
{
layerId = "818F884A-9448-4DD2-A77B-976162CCCBC7";
name = Bold;
paths = (
{
closed = 1;
nodes = (
"328 -3 LINE",
"622 -212 LINE",
"731 -24 LINE",
"363 54 LINE"
);
},
{
closed = 1;
nodes = (
"160 670 OFFCURVE",
"16 524 OFFCURVE",
"15 331 CURVE SMOOTH",
"16 86 OFFCURVE",
"189 -20 OFFCURVE",
"363 -20 CURVE SMOOTH",
"534 -20 OFFCURVE",
"702 79 OFFCURVE",
"703 331 CURVE SMOOTH",
"702 533 OFFCURVE",
"540 670 OFFCURVE",
"362 670 CURVE SMOOTH"
);
},
{
closed = 1;
nodes = (
"312.544 546.834 OFFCURVE",
"332 548 OFFCURVE",
"340 548 CURVE SMOOTH",
"424.52 548 OFFCURVE",
"469 433 OFFCURVE",
"469 312 CURVE SMOOTH",
"469 228 OFFCURVE",
"447.538 135.53 OFFCURVE",
"404 97 CURVE",
"398.012 95.748 OFFCURVE",
"382 95 OFFCURVE",
"367 95 CURVE SMOOTH",
"291.512 95 OFFCURVE",
"246 221 OFFCURVE",
"246 346 CURVE SMOOTH",
"246 426 OFFCURVE",
"264.465 511.077 OFFCURVE",
"303 544 CURVE"
);
}
);
width = 718;
},
{
associatedMasterId = "818F884A-9448-4DD2-A77B-976162CCCBC7";
layerId = "32C0DD8F-5464-40A5-9F68-F54312C12C84";
name = "(null) May 10 14, 15:15";
width = 600;
}
);
leftKerningGroup = O;
leftMetricsKey = O;
rightKerningGroup = O;
unicode = 0051;
},
{
color = 3;
glyphname = R;
lastChange = "2014-11-10 18:25:53 +0000";
layers = (
{
anchors = (
{
name = bottom;
position = "{302, 0}";
},
{
name = top;
position = "{279, 650}";
}
);
background = {
paths = (
{
closed = 1;
nodes = (
"158 0 LINE",
"158 648 LINE",
"65 648 LINE",
"65 0 LINE"
);
},
{
closed = 1;
nodes = (
"80 0 LINE",
"79 70 LINE",
"79 70 OFFCURVE",
"7 49 OFFCURVE",
"-20 35 CURVE",
"-14 0 LINE"
);
},
{
closed = 1;
nodes = (
"-5 650 LINE",
"-6 602 LINE",
"90 596 LINE",
"76 638 OFFCURVE",
"84 634 OFFCURVE",
"88 650 CURVE"
);
},
{
closed = 1;
nodes = (
"246 0 LINE",
"247 47 LINE",
"109 63 LINE",
"106 0 LINE"
);
},
{
closed = 1;
nodes = (
"-5 650 OFFCURVE",
"142 593 OFFCURVE",
"142 593 CURVE",
"331 604 LINE",
"447 547 OFFCURVE",
"441 333 OFFCURVE",
"260 333 CURVE SMOOTH",
"236 333 OFFCURVE",
"159 336 OFFCURVE",
"128 343 CURVE",
"128 343 OFFCURVE",
"125 276 OFFCURVE",
"125 276 CURVE",
"263 276 LINE SMOOTH",
"600 276 OFFCURVE",
"586 658 OFFCURVE",
"274 658 CURVE",
"175 658 OFFCURVE",
"-5 650 OFFCURVE",
"-5 650 CURVE"
);
},
{
closed = 1;
nodes = (
"420 0 LINE",
"538 0 LINE",
"358 294 LINE",
"265 285 LINE"
);
},
{
closed = 1;
nodes = (
"562 0 LINE",
"563 45 LINE",
"455 54 LINE",
"452 0 LINE"
);
}
);
};
layerId = UUID0;
name = Regular;
paths = (
{
closed = 1;
nodes = (
"45 650 LINE",
"192 593 LINE",
"381 604 LINE",
"435 578 OFFCURVE",
"463 523 OFFCURVE",
"463 465 CURVE SMOOTH",
"463 401 OFFCURVE",
"430 318 OFFCURVE",
"293 318 CURVE SMOOTH",
"263 318 OFFCURVE",
"221 322 OFFCURVE",
"178 331 CURVE",
"175 259 LINE",
"333 260 LINE SMOOTH",
"486 262 OFFCURVE",
"561 370 OFFCURVE",
"561 465 CURVE SMOOTH",
"561 562 OFFCURVE",
"483 658 OFFCURVE",
"324 658 CURVE"
);
},
{
closed = 1;
nodes = (
"96 57 OFFCURVE",
"60 46 OFFCURVE",
"30 32 CURVE",
"36 0 LINE",
"130 0 LINE",
"129 67 LINE"
);
},
{
closed = 1;
nodes = (
"184 0 LINE",
"324 0 LINE",
"325 47 LINE",
"187 63 LINE"
);
},
{
closed = 1;
nodes = (
"115 650 LINE",
"115 0 LINE",
"208 0 LINE",
"208 650 LINE"
);
},
{
closed = 1;
nodes = (
"45 650 LINE",
"44 602 LINE",
"140 596 LINE",
"138 650 LINE"
);
},
{
closed = 1;
nodes = (
"305 299 LINE",
"460 0 LINE",
"578 0 LINE",
"398 308 LINE"
);
},
{
closed = 1;
nodes = (
"472 0 LINE",
"612 0 LINE",
"613 47 LINE",
"475 60 LINE"
);
}
);
width = 655;
},
{
associatedMasterId = UUID0;
layerId = "702C5D33-2F19-49EF-A873-603A87FD6A1E";
name = "new Layer May 3 14, 21:44";
paths = (
{
closed = 1;
nodes = (
"212 0 LINE",
"212 648 LINE",
"119 648 LINE",
"119 0 LINE"
);
},
{
closed = 1;
nodes = (
"134 0 LINE",
"133 70 LINE",
"133 70 OFFCURVE",
"61 49 OFFCURVE",
"34 35 CURVE",
"40 0 LINE"
);
},
{
closed = 1;
nodes = (
"49 650 LINE",
"48 602 LINE",
"144 596 LINE",
"130 638 OFFCURVE",
"138 634 OFFCURVE",
"142 650 CURVE"
);
},
{
closed = 1;
nodes = (
"300 0 LINE",
"301 47 LINE",
"163 63 LINE",
"160 0 LINE"
);
},
{
closed = 1;
nodes = (
"49 650 OFFCURVE",
"196 593 OFFCURVE",
"196 593 CURVE",
"385 604 LINE",
"501 547 OFFCURVE",
"495 333 OFFCURVE",
"314 333 CURVE SMOOTH",
"290 333 OFFCURVE",
"213 336 OFFCURVE",
"182 343 CURVE",
"182 343 OFFCURVE",
"179 276 OFFCURVE",
"179 276 CURVE",
"317 276 LINE SMOOTH",
"654 276 OFFCURVE",
"640 658 OFFCURVE",
"328 658 CURVE",
"229 658 OFFCURVE",
"49 650 OFFCURVE",
"49 650 CURVE"
);
},
{
closed = 1;
nodes = (
"474 0 LINE",
"592 0 LINE",
"412 294 LINE",
"319 285 LINE"
);
},
{
closed = 1;
nodes = (
"616 0 LINE",
"617 45 LINE",
"509 54 LINE",
"506 0 LINE"
);
}
);
width = 631;
},
{
anchors = (
{
name = bottom;
position = "{392, 0}";
},
{
name = top;
position = "{382, 650}";
}
);
background = {
paths = (
{
closed = 1;
nodes = (
"194 650 LINE",
"341 536 LINE",
"440 542 LINE",
"464 520 OFFCURVE",
"476 481 OFFCURVE",
"476 444 CURVE SMOOTH",
"476 392 OFFCURVE",
"454 345 OFFCURVE",
"409 343 CURVE SMOOTH",
"382 342 OFFCURVE",
"354 348 OFFCURVE",
"327 353 CURVE",
"324 245 LINE",
"482 246 LINE SMOOTH",
"634 247 OFFCURVE",
"710 349 OFFCURVE",
"710 451 CURVE SMOOTH",
"710 554 OFFCURVE",
"632 658 OFFCURVE",
"473 658 CURVE"
);
},
{
closed = 1;
nodes = (
"85 77 OFFCURVE",
"52 56 OFFCURVE",
"25 32 CURVE",
"31 0 LINE",
"125 0 LINE",
"124 97 LINE"
);
},
{
closed = 1;
nodes = (
"295 0 LINE",
"435 0 LINE",
"436 57 LINE",
"298 83 LINE"
);
},
{
closed = 1;
nodes = (
"110 650 LINE",
"110 0 LINE",
"349 0 LINE",
"349 650 LINE"
);
},
{
closed = 1;
nodes = (
"34 650 LINE",
"33 593 LINE",
"171 567 LINE",
"174 650 LINE"
);
},
{
closed = 1;
nodes = (
"350 285 LINE",
"485 0 LINE",
"733 0 LINE",
"580 294 LINE"
);
},
{
closed = 1;
nodes = (
"617 0 LINE",
"757 0 LINE",
"758 57 LINE",
"620 83 LINE"
);
}
);
};
layerId = "818F884A-9448-4DD2-A77B-976162CCCBC7";
name = Bold;
paths = (
{
closed = 1;
nodes = (
"194 650 LINE",
"341 536 LINE",
"440 542 LINE",
"462 511 OFFCURVE",
"473 475 OFFCURVE",
"473 442 CURVE SMOOTH",
"473 382 OFFCURVE",
"437 330 OFFCURVE",
"362 330 CURVE SMOOTH",
"351 330 OFFCURVE",
"339 331 OFFCURVE",
"327 333 CURVE",
"324 225 LINE",
"462 226 LINE SMOOTH",
"613 227 OFFCURVE",
"710 333 OFFCURVE",
"710 445 CURVE SMOOTH",
"710 557 OFFCURVE",
"613 658 OFFCURVE",
"433 658 CURVE"
);
},
{
closed = 1;
nodes = (
"85 77 OFFCURVE",
"52 56 OFFCURVE",
"25 32 CURVE",
"31 0 LINE",
"125 0 LINE",
"124 97 LINE"
);
},
{
closed = 1;
nodes = (
"295 0 LINE",
"435 0 LINE",
"436 57 LINE",
"298 83 LINE"
);
},
{
closed = 1;
nodes = (
"110 650 LINE",
"110 0 LINE",
"349 0 LINE",
"349 650 LINE"
);
},
{
closed = 1;
nodes = (
"34 650 LINE",
"33 593 LINE",
"171 567 LINE",
"174 650 LINE"
);
},
{
closed = 1;
nodes = (
"350 265 LINE",
"485 0 LINE",
"733 0 LINE",
"580 274 LINE"
);
},
{
closed = 1;
nodes = (
"617 0 LINE",
"757 0 LINE",
"758 57 LINE",
"620 83 LINE"
);
}
);
width = 783;
},
{
associatedMasterId = "818F884A-9448-4DD2-A77B-976162CCCBC7";
layerId = "897672F8-9716-4D8F-863D-A1B110AAF78A";
name = "(null) May 10 14, 15:15";
width = 600;
}
);
leftKerningGroup = I;
leftMetricsKey = I;
rightKerningGroup = R;
rightMetricsKey = D;
unicode = 0052;
},
{
color = 3;
glyphname = S;
lastChange = "2014-11-10 18:01:01 +0000";
layers = (
{
anchors = (
{
name = bottom;
position = "{269, 0}";
},
{
name = top;
position = "{282, 650}";
}
);
background = {
anchors = (
{
name = top;
position = "{282, 650}";
},
{
name = bottom;
position = "{269, 0}";
}
);
paths = (
{
closed = 1;
nodes = (
"179 670 OFFCURVE",
"65 605 OFFCURVE",
"65 488 CURVE SMOOTH",
"65 384 OFFCURVE",
"155 338 OFFCURVE",
"244 300 CURVE SMOOTH",
"327 265 OFFCURVE",
"407 237 OFFCURVE",
"407 152 CURVE SMOOTH",
"407 108 OFFCURVE",
"385 68 OFFCURVE",
"347 48 CURVE",
"271 39 OFFCURVE",
"160 66 OFFCURVE",
"91 164 CURVE",
"68 59 LINE",
"113 13 OFFCURVE",
"204 -20 OFFCURVE",
"278 -20 CURVE SMOOTH",
"381 -20 OFFCURVE",
"499 43 OFFCURVE",
"499 172 CURVE SMOOTH",
"499 294 OFFCURVE",
"392 343 OFFCURVE",
"297 381 CURVE SMOOTH",
"223 410 OFFCURVE",
"156 438 OFFCURVE",
"156 508 CURVE SMOOTH",
"156 545 OFFCURVE",
"174 582 OFFCURVE",
"206 601 CURVE",
"276 612 OFFCURVE",
"357 600 OFFCURVE",
"412 540 CURVE",
"463 639 LINE",
"423 652 OFFCURVE",
"362 670 OFFCURVE",
"299 670 CURVE SMOOTH"
);
}
);
};
layerId = UUID0;
name = Regular;
paths = (
{
closed = 1;
nodes = (
"179 670 OFFCURVE",
"65 605 OFFCURVE",
"65 488 CURVE SMOOTH",
"65 384 OFFCURVE",
"155 338 OFFCURVE",
"244 300 CURVE SMOOTH",
"327 265 OFFCURVE",
"407 237 OFFCURVE",
"407 152 CURVE SMOOTH",
"407 108 OFFCURVE",
"385 68 OFFCURVE",
"347 48 CURVE",
"271 39 OFFCURVE",
"160 66 OFFCURVE",
"91 164 CURVE",
"68 59 LINE",
"113 13 OFFCURVE",
"203 -20 OFFCURVE",
"280 -20 CURVE SMOOTH",
"393 -20 OFFCURVE",
"500 51 OFFCURVE",
"500 171 CURVE SMOOTH",
"500 287 OFFCURVE",
"400 340 OFFCURVE",
"297 381 CURVE SMOOTH",
"223 410 OFFCURVE",
"156 438 OFFCURVE",
"156 508 CURVE SMOOTH",
"156 545 OFFCURVE",
"174 582 OFFCURVE",
"206 601 CURVE",
"276 612 OFFCURVE",
"357 600 OFFCURVE",
"412 540 CURVE",
"463 639 LINE",
"423 652 OFFCURVE",
"362 670 OFFCURVE",
"299 670 CURVE SMOOTH"
);
},
{
closed = 1;
nodes = (
"453 470 LINE",
"464 531 OFFCURVE",
"466 606 OFFCURVE",
"463 639 CURVE",
"383 620 LINE",
"399 472 LINE"
);
},
{
closed = 1;
nodes = (
"67 167 OFFCURVE",
"65 92 OFFCURVE",
"68 59 CURVE",
"151 59 LINE",
"132 226 LINE",
"78 228 LINE"
);
}
);
width = 540;
},
{
associatedMasterId = UUID0;
layerId = "A2563513-4477-4ACB-98E0-B5D7F5B41869";
name = "new Layer May 3 14, 21:44";
paths = (
{
closed = 1;
nodes = (
"494 386 OFFCURVE",
"178 373 OFFCURVE",
"178 500 CURVE SMOOTH",
"178 539 OFFCURVE",
"196 569 OFFCURVE",
"217 588 CURVE",
"339 624 OFFCURVE",
"422 544 OFFCURVE",
"422 544 CURVE",
"473 633 LINE",
"433 646 OFFCURVE",
"371 664 OFFCURVE",
"311 664 CURVE SMOOTH",
"190 664 OFFCURVE",
"85 599 OFFCURVE",
"85 481 CURVE SMOOTH",
"85 291 OFFCURVE",
"407 321 OFFCURVE",
"407 144 CURVE SMOOTH",
"407 129 OFFCURVE",
"400 90 OFFCURVE",
"374 66 CURVE",
"267 29 OFFCURVE",
"177 77 OFFCURVE",
"122 136 CURVE",
"85 41 LINE",
"287 -74 OFFCURVE",
"494 -10 OFFCURVE",
"494 183 CURVE SMOOTH"
);
},
{
closed = 1;
nodes = (
"463 464 LINE",
"474 525 OFFCURVE",
"476 600 OFFCURVE",
"473 633 CURVE",
"393 588 LINE",
"409 466 LINE"
);
},
{
closed = 1;
nodes = (
"95 210 LINE",
"84 149 OFFCURVE",
"82 74 OFFCURVE",
"85 41 CURVE",
"165 86 LINE",
"149 208 LINE"
);
}
);
width = 543;
},
{
anchors = (
{
name = bottom;
position = "{326, 0}";
},
{
name = top;
position = "{336, 650}";
}
);
background = {
paths = (
{
closed = 1;
nodes = (
"161 670 OFFCURVE",
"40 574 OFFCURVE",
"40 449 CURVE SMOOTH",
"40 333 OFFCURVE",
"146 283 OFFCURVE",
"248 228 CURVE SMOOTH",
"337 180 OFFCURVE",
"371 160 OFFCURVE",
"371 128 CURVE SMOOTH",
"371 106 OFFCURVE",
"356 90 OFFCURVE",
"320 71 CURVE",
"254 81 OFFCURVE",
"168 116 OFFCURVE",
"106 173 CURVE",
"39 27 LINE",
"122 -8 OFFCURVE",
"233 -29 OFFCURVE",
"317 -29 CURVE SMOOTH",
"476 -29 OFFCURVE",
"605 47 OFFCURVE",
"605 180 CURVE SMOOTH",
"605 280 OFFCURVE",
"531 343 OFFCURVE",
"436 390 CURVE SMOOTH",
"338 438 OFFCURVE",
"265 448 OFFCURVE",
"265 506 CURVE SMOOTH",
"265 530 OFFCURVE",
"278 557 OFFCURVE",
"309 575 CURVE",
"395 565 OFFCURVE",
"465 521 OFFCURVE",
"527 454 CURVE",
"584 609 LINE",
"518 648 OFFCURVE",
"403 670 OFFCURVE",
"325 670 CURVE SMOOTH"
);
},
{
closed = 1;
nodes = (
"569 401 LINE",
"579 460 OFFCURVE",
"591 560 OFFCURVE",
"584 609 CURVE",
"343 623 LINE",
"459 401 LINE"
);
},
{
closed = 1;
nodes = (
"39 186 OFFCURVE",
"34 76 OFFCURVE",
"39 27 CURVE",
"310 13 LINE",
"164 235 LINE",
"54 235 LINE"
);
}
);
};
layerId = "818F884A-9448-4DD2-A77B-976162CCCBC7";
name = Bold;
paths = (
{
closed = 1;
nodes = (
"155 670 OFFCURVE",
"45 574 OFFCURVE",
"45 449 CURVE SMOOTH",
"45 329 OFFCURVE",
"146 272 OFFCURVE",
"237 230 CURVE SMOOTH",
"313 195 OFFCURVE",
"381 170 OFFCURVE",
"381 127 CURVE SMOOTH",
"381 108 OFFCURVE",
"367 86 OFFCURVE",
"330 71 CURVE",
"246 81 OFFCURVE",
"168 116 OFFCURVE",
"106 173 CURVE",
"49 27 LINE",
"132 -8 OFFCURVE",
"243 -29 OFFCURVE",
"327 -29 CURVE SMOOTH",
"485 -29 OFFCURVE",
"614 46 OFFCURVE",
"614 184 CURVE SMOOTH",
"614 303 OFFCURVE",
"519 359 OFFCURVE",
"430 400 CURVE SMOOTH",
"346 439 OFFCURVE",
"265 463 OFFCURVE",
"265 510 CURVE SMOOTH",
"265 529 OFFCURVE",
"278 557 OFFCURVE",
"309 575 CURVE",
"395 565 OFFCURVE",
"465 531 OFFCURVE",
"527 464 CURVE",
"584 626 LINE",
"522 652 OFFCURVE",
"417 670 OFFCURVE",
"338 670 CURVE SMOOTH"
);
},
{
closed = 1;
nodes = (
"549 421 LINE",
"565 480 OFFCURVE",
"580 557 OFFCURVE",
"584 626 CURVE",
"353 623 LINE",
"439 421 LINE"
);
},
{
closed = 1;
nodes = (
"57 188 OFFCURVE",
"44 76 OFFCURVE",
"49 27 CURVE",
"310 13 LINE",
"174 235 LINE",
"72 237 LINE"
);
}
);
width = 644;
},
{
associatedMasterId = "818F884A-9448-4DD2-A77B-976162CCCBC7";
layerId = "414F1EAA-EE3F-4406-866C-CC6A402B044F";
name = "(null) May 10 14, 15:15";
width = 600;
},
{
associatedMasterId = "818F884A-9448-4DD2-A77B-976162CCCBC7";
background = {
paths = (
{
closed = 1;
nodes = (
"128 670 OFFCURVE",
"41 576 OFFCURVE",
"41 473 CURVE SMOOTH",
"41 423 OFFCURVE",
"54 364 OFFCURVE",
"102 326 CURVE SMOOTH",
"167 276 OFFCURVE",
"276 222 OFFCURVE",
"276 158 CURVE SMOOTH",
"276 139 OFFCURVE",
"269 121 OFFCURVE",
"255 106 CURVE",
"169 116 OFFCURVE",
"170 139 OFFCURVE",
"108 196 CURVE",
"41 41 LINE",
"106 3 OFFCURVE",
"214 -16 OFFCURVE",
"287 -16 CURVE SMOOTH",
"454 -16 OFFCURVE",
"535 84 OFFCURVE",
"535 195 CURVE SMOOTH",
"535 301 OFFCURVE",
"477 358 OFFCURVE",
"393 410 CURVE SMOOTH",
"322 452 OFFCURVE",
"284 490 OFFCURVE",
"284 533 CURVE SMOOTH",
"284 540 OFFCURVE",
"285 547 OFFCURVE",
"287 554 CURVE",
"347 562 OFFCURVE",
"419 506 OFFCURVE",
"472 460 CURVE",
"523 629 LINE",
"483 642 OFFCURVE",
"383 670 OFFCURVE",
"296 670 CURVE SMOOTH"
);
},
{
closed = 1;
nodes = (
"39 199 OFFCURVE",
"38 74 OFFCURVE",
"41 41 CURVE",
"176 106 LINE",
"138 251 LINE",
"58 256 LINE SMOOTH"
);
},
{
closed = 1;
nodes = (
"388 564 LINE",
"426 419 LINE",
"506 414 LINE",
"525 471 OFFCURVE",
"526 596 OFFCURVE",
"523 629 CURVE"
);
}
);
};
layerId = "14A06664-FE29-4B77-81A1-5A337DCE7516";
name = "Bold May 24 14, 11:47";
paths = (
{
closed = 1;
nodes = (
"128 670 OFFCURVE",
"41 576 OFFCURVE",
"41 473 CURVE SMOOTH",
"41 423 OFFCURVE",
"54 364 OFFCURVE",
"102 326 CURVE SMOOTH",
"167 276 OFFCURVE",
"276 222 OFFCURVE",
"276 158 CURVE SMOOTH",
"276 139 OFFCURVE",
"269 121 OFFCURVE",
"255 106 CURVE",
"169 116 OFFCURVE",
"170 139 OFFCURVE",
"108 196 CURVE",
"41 41 LINE",
"106 3 OFFCURVE",
"214 -16 OFFCURVE",
"287 -16 CURVE SMOOTH",
"454 -16 OFFCURVE",
"535 84 OFFCURVE",
"535 195 CURVE SMOOTH",
"535 301 OFFCURVE",
"477 358 OFFCURVE",
"393 410 CURVE SMOOTH",
"322 452 OFFCURVE",
"284 490 OFFCURVE",
"284 533 CURVE SMOOTH",
"284 540 OFFCURVE",
"285 547 OFFCURVE",
"287 554 CURVE",
"347 562 OFFCURVE",
"419 506 OFFCURVE",
"472 460 CURVE",
"523 629 LINE",
"483 642 OFFCURVE",
"383 670 OFFCURVE",
"296 670 CURVE SMOOTH"
);
},
{
closed = 1;
nodes = (
"39 199 OFFCURVE",
"38 74 OFFCURVE",
"41 41 CURVE",
"176 106 LINE",
"138 251 LINE",
"58 256 LINE SMOOTH"
);
},
{
closed = 1;
nodes = (
"388 564 LINE",
"426 419 LINE",
"506 414 LINE",
"525 471 OFFCURVE",
"526 596 OFFCURVE",
"523 629 CURVE"
);
}
);
width = 600;
},
{
anchors = (
{
name = bottom;
position = "{277, 0}";
},
{
name = top;
position = "{277, 650}";
}
);
associatedMasterId = "818F884A-9448-4DD2-A77B-976162CCCBC7";
background = {
paths = (
{
closed = 1;
nodes = (
"38 199 OFFCURVE",
"37 74 OFFCURVE",
"40 41 CURVE",
"175 106 LINE",
"137 251 LINE",
"57 256 LINE SMOOTH"
);
},
{
closed = 1;
nodes = (
"377 564 LINE",
"415 419 LINE",
"495 414 LINE",
"514 471 OFFCURVE",
"515 596 OFFCURVE",
"512 629 CURVE"
);
}
);
};
layerId = "4C5DE2A6-2EA8-4559-90CE-B49DE43BFF1B";
name = "Bold Jun 2 14, 16:03";
paths = (
{
closed = 1;
nodes = (
"136 670 OFFCURVE",
"30 585 OFFCURVE",
"30 462 CURVE SMOOTH",
"30 332 OFFCURVE",
"125 276 OFFCURVE",
"182 240 CURVE SMOOTH",
"246 200 OFFCURVE",
"295 174 OFFCURVE",
"295 141 CURVE SMOOTH",
"295 125 OFFCURVE",
"294 111 OFFCURVE",
"273 102 CURVE",
"207 102 OFFCURVE",
"169 125 OFFCURVE",
"107 182 CURVE",
"40 27 LINE",
"99 -7 OFFCURVE",
"163 -20 OFFCURVE",
"240 -20 CURVE SMOOTH",
"366 -20 OFFCURVE",
"524 24 OFFCURVE",
"524 207 CURVE SMOOTH",
"524 236 OFFCURVE",
"507 301 OFFCURVE",
"453 340 CURVE SMOOTH",
"390 385 OFFCURVE",
"259 441 OFFCURVE",
"259 494 CURVE SMOOTH",
"259 510 OFFCURVE",
"266 529 OFFCURVE",
"290 544 CURVE",
"376 534 OFFCURVE",
"385 511 OFFCURVE",
"447 454 CURVE",
"514 609 LINE",
"449 647 OFFCURVE",
"361 670 OFFCURVE",
"288 670 CURVE SMOOTH"
);
},
{
closed = 1;
nodes = (
"38 185 OFFCURVE",
"37 60 OFFCURVE",
"40 27 CURVE",
"175 92 LINE",
"137 237 LINE",
"57 242 LINE"
);
},
{
closed = 1;
nodes = (
"379 544 LINE",
"417 399 LINE",
"497 394 LINE SMOOTH",
"516 451 OFFCURVE",
"517 576 OFFCURVE",
"514 609 CURVE"
);
}
);
width = 554;
}
);
leftKerningGroup = S;
rightKerningGroup = S;
unicode = 0053;
},
{
color = 3;
glyphname = T;
lastChange = "2014-11-10 18:26:16 +0000";
layers = (
{
anchors = (
{
name = bottom;
position = "{295, 0}";
},
{
name = center;
position = "{295, 325}";
},
{
name = top;
position = "{295, 650}";
}
);
layerId = UUID0;
name = Regular;
paths = (
{
closed = 1;
nodes = (
"248 650 LINE",
"248 0 LINE",
"341 0 LINE",
"341 650 LINE"
);
},
{
closed = 1;
nodes = (
"226 57 OFFCURVE",
"175 46 OFFCURVE",
"145 32 CURVE",
"151 0 LINE",
"260 0 LINE",
"259 67 LINE"
);
},
{
closed = 1;
nodes = (
"317 0 LINE",
"457 0 LINE",
"458 47 LINE",
"320 63 LINE"
);
},
{
closed = 1;
nodes = (
"399 650 OFFCURVE",
"192 650 OFFCURVE",
"7 656 CURVE",
"24 585 LINE",
"295 592 LINE",
"566 585 LINE",
"582 656 LINE"
);
},
{
closed = 1;
nodes = (
"572 487 LINE",
"583 548 OFFCURVE",
"585 623 OFFCURVE",
"582 656 CURVE",
"502 611 LINE",
"518 489 LINE SMOOTH"
);
},
{
closed = 1;
nodes = (
"87 611 LINE",
"7 656 LINE",
"4 623 OFFCURVE",
"6 548 OFFCURVE",
"17 487 CURVE",
"71 489 LINE"
);
}
);
width = 589;
},
{
associatedMasterId = UUID0;
layerId = "0497CA03-185F-4922-9F6E-68ADF71A7534";
name = "new Layer May 3 14, 21:44";
paths = (
{
closed = 1;
nodes = (
"340 0 LINE",
"340 650 LINE",
"247 650 LINE",
"247 0 LINE"
);
},
{
closed = 1;
nodes = (
"274 0 LINE",
"274 74 LINE",
"274 74 OFFCURVE",
"192 57 OFFCURVE",
"144 35 CURVE",
"150 0 LINE"
);
},
{
closed = 1;
nodes = (
"458 0 LINE",
"459 47 LINE",
"321 63 LINE",
"318 0 LINE"
);
},
{
closed = 1;
nodes = (
"571 487 LINE",
"582 548 OFFCURVE",
"584 623 OFFCURVE",
"581 656 CURVE",
"501 611 LINE",
"517 489 LINE"
);
},
{
closed = 1;
nodes = (
"565 585 LINE",
"581 656 LINE",
"398 650 OFFCURVE",
"191 650 OFFCURVE",
"6 656 CURVE",
"23 585 LINE",
"294 592 LINE"
);
},
{
closed = 1;
nodes = (
"70 489 LINE",
"86 611 LINE",
"6 656 LINE",
"3 623 OFFCURVE",
"5 548 OFFCURVE",
"16 487 CURVE"
);
}
);
width = 587;
},
{
anchors = (
{
name = bottom;
position = "{353, 0}";
},
{
name = center;
position = "{353, 325}";
},
{
name = top;
position = "{353, 650}";
}
);
layerId = "818F884A-9448-4DD2-A77B-976162CCCBC7";
name = Bold;
paths = (
{
closed = 1;
nodes = (
"234 650 LINE",
"234 0 LINE",
"473 0 LINE",
"473 650 LINE"
);
},
{
closed = 1;
nodes = (
"209 77 OFFCURVE",
"176 56 OFFCURVE",
"149 32 CURVE",
"155 0 LINE",
"249 0 LINE",
"248 97 LINE"
);
},
{
closed = 1;
nodes = (
"419 0 LINE",
"559 0 LINE",
"560 57 LINE",
"422 83 LINE"
);
},
{
closed = 1;
nodes = (
"339 650 OFFCURVE",
"373 650 OFFCURVE",
"21 656 CURVE",
"28 531 LINE",
"354 565 LINE",
"678 531 LINE",
"685 656 LINE"
);
},
{
closed = 1;
nodes = (
"680 362 LINE",
"685 411 OFFCURVE",
"700 607 OFFCURVE",
"695 656 CURVE",
"523 650 LINE",
"560 362 LINE"
);
},
{
closed = 1;
nodes = (
"183 650 LINE",
"11 656 LINE",
"6 607 OFFCURVE",
"21 411 OFFCURVE",
"26 362 CURVE",
"146 362 LINE"
);
}
);
width = 706;
},
{
associatedMasterId = "818F884A-9448-4DD2-A77B-976162CCCBC7";
layerId = "F3287C1B-5BFE-43E8-8928-03E3EF1ED177";
name = "(null) May 10 14, 15:15";
width = 600;
},
{
anchors = (
{
name = bottom;
position = "{344, 0}";
},
{
name = center;
position = "{344, 325}";
},
{
name = top;
position = "{344, 650}";
}
);
associatedMasterId = "818F884A-9448-4DD2-A77B-976162CCCBC7";
layerId = "DAC369AE-1922-4AAA-B2B9-2E20B70715C4";
name = "Bold Jun 8 14, 17:02";
paths = (
{
closed = 1;
nodes = (
"225 650 LINE",
"225 0 LINE",
"464 0 LINE",
"464 650 LINE"
);
},
{
closed = 1;
nodes = (
"200 77 OFFCURVE",
"167 56 OFFCURVE",
"140 32 CURVE",
"146 0 LINE",
"240 0 LINE",
"239 97 LINE"
);
},
{
closed = 1;
nodes = (
"410 0 LINE",
"550 0 LINE",
"551 47 LINE",
"413 93 LINE"
);
},
{
closed = 1;
nodes = (
"15 613 OFFCURVE",
"2 458 OFFCURVE",
"4 396 CURVE",
"80 385 LINE",
"140 580 LINE",
"22 656 LINE"
);
},
{
closed = 1;
nodes = (
"320 650 OFFCURVE",
"374 650 OFFCURVE",
"22 656 CURVE",
"29 521 LINE",
"345 555 LINE",
"659 521 LINE",
"666 656 LINE"
);
},
{
closed = 1;
nodes = (
"548 580 LINE",
"608 385 LINE",
"684 396 LINE",
"686 458 OFFCURVE",
"673 613 OFFCURVE",
"666 656 CURVE"
);
}
);
width = 688;
}
);
leftKerningGroup = T;
rightKerningGroup = T;
unicode = 0054;
},
{
color = 3;
glyphname = U;
lastChange = "2014-11-10 18:25:53 +0000";
layers = (
{
anchors = (
{
name = ogonek;
position = "{477, 1}";
},
{
name = top;
position = "{375, 650}";
}
);
background = {
paths = (
{
closed = 1;
nodes = (
"107 70 OFFCURVE",
"213 -18 OFFCURVE",
"374 -18 CURVE SMOOTH",
"510 -18 OFFCURVE",
"625 68 OFFCURVE",
"625 243 CURVE SMOOTH",
"625 243 OFFCURVE",
"551 253 OFFCURVE",
"551 253 CURVE",
"551 118 OFFCURVE",
"493 75 OFFCURVE",
"493 75 CURVE",
"347 14 OFFCURVE",
"200 72 OFFCURVE",
"200 243 CURVE SMOOTH",
"200 243 OFFCURVE",
"107 243 OFFCURVE",
"107 243 CURVE"
);
},
{
closed = 1;
nodes = (
"200 243 LINE",
"200 650 LINE",
"107 650 LINE",
"107 243 LINE"
);
},
{
closed = 1;
nodes = (
"182 650 LINE",
"183 573 LINE",
"183 573 OFFCURVE",
"275 601 OFFCURVE",
"302 615 CURVE",
"296 650 LINE"
);
},
{
closed = 1;
nodes = (
"29 650 LINE",
"28 603 LINE",
"166 587 LINE",
"169 650 LINE"
);
},
{
closed = 1;
nodes = (
"625 243 LINE",
"625 650 LINE",
"551 650 LINE",
"551 253 LINE"
);
},
{
closed = 1;
nodes = (
"588 650 LINE",
"589 573 LINE",
"589 573 OFFCURVE",
"681 601 OFFCURVE",
"708 615 CURVE",
"702 650 LINE"
);
},
{
closed = 1;
nodes = (
"463 650 LINE",
"462 603 LINE",
"600 587 LINE",
"603 650 LINE"
);
}
);
};
layerId = UUID0;
name = Regular;
paths = (
{
closed = 1;
nodes = (
"551 650 LINE",
"551 253 LINE SMOOTH",
"551 179 OFFCURVE",
"532 108 OFFCURVE",
"493 75 CURVE",
"455 59 OFFCURVE",
"418 51 OFFCURVE",
"382 51 CURVE SMOOTH",
"281 51 OFFCURVE",
"200 116 OFFCURVE",
"200 243 CURVE SMOOTH",
"200 650 LINE",
"107 650 LINE",
"107 243 LINE SMOOTH",
"107 70 OFFCURVE",
"213 -18 OFFCURVE",
"374 -18 CURVE SMOOTH",
"510 -18 OFFCURVE",
"625 68 OFFCURVE",
"625 243 CURVE SMOOTH",
"625 650 LINE"
);
},
{
closed = 1;
nodes = (
"31 650 LINE",
"30 603 LINE",
"168 587 LINE",
"171 650 LINE"
);
},
{
closed = 1;
nodes = (
"185 650 LINE",
"186 583 LINE",
"219 593 OFFCURVE",
"255 604 OFFCURVE",
"285 618 CURVE",
"279 650 LINE"
);
},
{
closed = 1;
nodes = (
"463 650 LINE",
"462 603 LINE",
"600 587 LINE",
"603 650 LINE"
);
},
{
closed = 1;
nodes = (
"610 650 LINE",
"611 583 LINE",
"644 593 OFFCURVE",
"680 604 OFFCURVE",
"710 618 CURVE",
"704 650 LINE"
);
}
);
width = 740;
},
{
associatedMasterId = UUID0;
layerId = "669BFD76-19C5-4AFA-A3A8-DC0FD48EEBF2";
name = "new Layer May 3 14, 21:44";
paths = (
{
closed = 1;
nodes = (
"94 70 OFFCURVE",
"200 -18 OFFCURVE",
"361 -18 CURVE SMOOTH",
"497 -18 OFFCURVE",
"612 68 OFFCURVE",
"612 243 CURVE SMOOTH",
"612 243 OFFCURVE",
"538 253 OFFCURVE",
"538 253 CURVE",
"538 118 OFFCURVE",
"480 75 OFFCURVE",
"480 75 CURVE",
"334 14 OFFCURVE",
"187 72 OFFCURVE",
"187 243 CURVE SMOOTH",
"187 243 OFFCURVE",
"94 243 OFFCURVE",
"94 243 CURVE"
);
},
{
closed = 1;
nodes = (
"187 243 LINE",
"187 650 LINE",
"94 650 LINE",
"94 243 LINE"
);
},
{
closed = 1;
nodes = (
"169 650 LINE",
"170 573 LINE",
"170 573 OFFCURVE",
"262 601 OFFCURVE",
"289 615 CURVE",
"283 650 LINE"
);
},
{
closed = 1;
nodes = (
"16 650 LINE",
"15 603 LINE",
"153 587 LINE",
"156 650 LINE"
);
},
{
closed = 1;
nodes = (
"612 243 LINE",
"612 650 LINE",
"538 650 LINE",
"538 253 LINE"
);
},
{
closed = 1;
nodes = (
"575 650 LINE",
"576 573 LINE",
"576 573 OFFCURVE",
"668 601 OFFCURVE",
"695 615 CURVE",
"689 650 LINE"
);
},
{
closed = 1;
nodes = (
"450 650 LINE",
"449 603 LINE",
"587 587 LINE",
"590 650 LINE"
);
}
);
width = 704;
},
{
anchors = (
{
name = ogonek;
position = "{594, 0}";
},
{
name = top;
position = "{412, 650}";
}
);
background = {
paths = (
{
closed = 1;
nodes = (
"546 650 LINE",
"546 253 LINE SMOOTH",
"546 179 OFFCURVE",
"527 108 OFFCURVE",
"488 75 CURVE",
"450 59 OFFCURVE",
"413 51 OFFCURVE",
"377 51 CURVE SMOOTH",
"276 51 OFFCURVE",
"195 116 OFFCURVE",
"195 243 CURVE SMOOTH",
"195 650 LINE",
"102 650 LINE",
"102 243 LINE SMOOTH",
"102 70 OFFCURVE",
"208 -18 OFFCURVE",
"369 -18 CURVE SMOOTH",
"505 -18 OFFCURVE",
"620 68 OFFCURVE",
"620 243 CURVE SMOOTH",
"620 650 LINE"
);
}
);
};
layerId = "818F884A-9448-4DD2-A77B-976162CCCBC7";
name = Bold;
paths = (
{
closed = 1;
nodes = (
"562 650 LINE",
"562 273 LINE",
"562 179 OFFCURVE",
"555 126 OFFCURVE",
"516 93 CURVE",
"501 88 OFFCURVE",
"486 86 OFFCURVE",
"475 86 CURVE SMOOTH",
"414 86 OFFCURVE",
"341 146 OFFCURVE",
"341 273 CURVE",
"341 650 LINE",
"102 650 LINE",
"102 303 LINE",
"102 66 OFFCURVE",
"284 -20 OFFCURVE",
"417 -20 CURVE SMOOTH",
"558 -20 OFFCURVE",
"721 29 OFFCURVE",
"721 283 CURVE",
"721 650 LINE"
);
},
{
closed = 1;
nodes = (
"26 650 LINE",
"25 593 LINE",
"163 567 LINE",
"166 650 LINE"
);
},
{
closed = 1;
nodes = (
"326 650 LINE",
"327 553 LINE",
"366 573 OFFCURVE",
"399 594 OFFCURVE",
"426 618 CURVE",
"420 650 LINE"
);
},
{
closed = 1;
nodes = (
"486 650 LINE",
"485 593 LINE",
"623 567 LINE",
"626 650 LINE"
);
},
{
closed = 1;
nodes = (
"706 650 LINE",
"707 553 LINE",
"746 573 OFFCURVE",
"779 594 OFFCURVE",
"806 618 CURVE",
"800 650 LINE"
);
}
);
width = 831;
},
{
associatedMasterId = "818F884A-9448-4DD2-A77B-976162CCCBC7";
layerId = "37794E1E-3B9C-4054-A9C2-B4BA2F50888E";
name = "(null) May 10 14, 15:15";
width = 600;
}
);
leftKerningGroup = U;
leftMetricsKey = I;
rightKerningGroup = U;
rightMetricsKey = I;
unicode = 0055;
},
{
color = 3;
glyphname = V;
lastChange = "2014-11-10 17:50:03 +0000";
layers = (
{
background = {
paths = (
{
closed = 1;
nodes = (
"342 33 LINE",
"393 -3 LINE",
"631 643 LINE",
"550 645 LINE"
);
},
{
closed = 1;
nodes = (
"70 650 LINE",
"297 -10 LINE",
"297 -10 OFFCURVE",
"338 -13 OFFCURVE",
"393 -3 CURVE",
"365 59 LINE",
"345 59 LINE",
"332 177 LINE",
"171 650 LINE"
);
},
{
closed = 1;
nodes = (
"11 650 LINE",
"10 603 LINE",
"148 587 LINE",
"151 650 LINE"
);
},
{
closed = 1;
nodes = (
"164 650 LINE",
"185 583 LINE",
"218 593 OFFCURVE",
"254 604 OFFCURVE",
"284 618 CURVE",
"278 650 LINE"
);
},
{
closed = 1;
nodes = (
"445 650 LINE",
"444 603 LINE",
"582 587 LINE",
"585 650 LINE"
);
},
{
closed = 1;
nodes = (
"570 650 LINE",
"591 583 LINE",
"624 593 OFFCURVE",
"660 604 OFFCURVE",
"690 618 CURVE",
"684 650 LINE"
);
}
);
};
layerId = UUID0;
name = Regular;
paths = (
{
closed = 1;
nodes = (
"70 650 LINE",
"297 -10 LINE",
"330 -11 OFFCURVE",
"362 -8 OFFCURVE",
"393 -3 CURVE",
"365 59 LINE",
"345 59 LINE",
"332 177 LINE",
"171 650 LINE"
);
},
{
closed = 1;
nodes = (
"11 650 LINE",
"10 603 LINE",
"148 587 LINE",
"151 650 LINE"
);
},
{
closed = 1;
nodes = (
"393 -3 LINE",
"634 650 LINE",
"552 650 LINE",
"342 33 LINE"
);
},
{
closed = 1;
nodes = (
"164 650 LINE",
"185 583 LINE",
"218 593 OFFCURVE",
"254 604 OFFCURVE",
"284 618 CURVE",
"278 650 LINE"
);
},
{
closed = 1;
nodes = (
"445 650 LINE",
"444 603 LINE",
"582 587 LINE",
"585 650 LINE"
);
},
{
closed = 1;
nodes = (
"570 650 LINE",
"591 583 LINE",
"624 593 OFFCURVE",
"660 604 OFFCURVE",
"690 618 CURVE",
"684 650 LINE"
);
}
);
width = 700;
},
{
associatedMasterId = UUID0;
layerId = "10687640-5092-43E2-A44A-E2DDB4D27BDD";
name = "new Layer May 3 14, 21:44";
paths = (
{
closed = 1;
nodes = (
"347 33 LINE",
"398 -3 LINE",
"636 643 LINE",
"555 645 LINE"
);
},
{
closed = 1;
nodes = (
"75 650 LINE",
"302 -10 LINE",
"302 -10 OFFCURVE",
"343 -13 OFFCURVE",
"398 -3 CURVE",
"374 31 LINE",
"370 59 LINE",
"350 59 LINE",
"337 177 LINE",
"176 650 LINE"
);
},
{
closed = 1;
nodes = (
"169 650 LINE",
"170 573 LINE",
"170 573 OFFCURVE",
"262 601 OFFCURVE",
"289 615 CURVE",
"283 650 LINE"
);
},
{
closed = 1;
nodes = (
"16 650 LINE",
"15 603 LINE",
"153 587 LINE",
"156 650 LINE"
);
},
{
closed = 1;
nodes = (
"575 650 LINE",
"576 573 LINE",
"576 573 OFFCURVE",
"668 601 OFFCURVE",
"695 615 CURVE",
"689 650 LINE"
);
},
{
closed = 1;
nodes = (
"450 650 LINE",
"449 603 LINE",
"587 587 LINE",
"590 650 LINE"
);
}
);
width = 698;
},
{
layerId = "818F884A-9448-4DD2-A77B-976162CCCBC7";
name = Bold;
paths = (
{
closed = 1;
nodes = (
"57 650 LINE",
"314 -20 LINE",
"388 -11 OFFCURVE",
"452 -2 OFFCURVE",
"506 13 CURVE",
"455 164 LINE",
"417 165 LINE",
"412 304 LINE",
"298 650 LINE"
);
},
{
closed = 1;
nodes = (
"6 650 LINE",
"5 593 LINE",
"143 567 LINE",
"146 650 LINE"
);
},
{
closed = 1;
nodes = (
"506 13 LINE",
"709 650 LINE",
"566 650 LINE",
"386 38 LINE"
);
},
{
closed = 1;
nodes = (
"297 650 LINE",
"298 553 LINE",
"337 573 OFFCURVE",
"370 594 OFFCURVE",
"397 618 CURVE",
"391 650 LINE"
);
},
{
closed = 1;
nodes = (
"457 650 LINE",
"456 593 LINE",
"594 567 LINE",
"597 650 LINE"
);
},
{
closed = 1;
nodes = (
"657 650 LINE",
"658 553 LINE",
"697 573 OFFCURVE",
"730 594 OFFCURVE",
"757 618 CURVE",
"751 650 LINE"
);
}
);
width = 762;
},
{
associatedMasterId = "818F884A-9448-4DD2-A77B-976162CCCBC7";
layerId = "DEA406C2-0029-45F2-885F-074CA6482000";
name = "(null) May 10 14, 15:15";
width = 600;
}
);
leftKerningGroup = V;
rightKerningGroup = V;
unicode = 0056;
},
{
color = 3;
glyphname = W;
lastChange = "2014-11-10 14:08:08 +0000";
layers = (
{
anchors = (
{
name = top;
position = "{455, 650}";
}
);
background = {
paths = (
{
closed = 1;
nodes = (
"11 650 LINE",
"10 603 LINE",
"148 587 LINE",
"151 650 LINE"
);
},
{
closed = 1;
nodes = (
"154 650 LINE",
"175 583 LINE",
"208 593 OFFCURVE",
"244 604 OFFCURVE",
"274 618 CURVE",
"268 650 LINE"
);
},
{
closed = 1;
nodes = (
"69 650 LINE",
"256 -10 LINE",
"256 -10 OFFCURVE",
"308 -13 OFFCURVE",
"363 -3 CURVE",
"335 59 LINE",
"310 59 LINE",
"299 175 LINE",
"169 650 LINE"
);
},
{
closed = 1;
nodes = (
"312 33 LINE",
"363 -3 LINE",
"445 259 LINE",
"464 372 LINE",
"481 372 LINE",
"508 442 LINE",
"444 483 LINE"
);
},
{
closed = 1;
nodes = (
"398 614 LINE",
"574 -10 LINE",
"574 -10 OFFCURVE",
"628 -13 OFFCURVE",
"683 -3 CURVE",
"655 59 LINE",
"625 59 LINE",
"609 172 LINE",
"495 639 LINE"
);
},
{
closed = 1;
nodes = (
"683 -3 LINE",
"866 643 LINE",
"789 645 LINE",
"631 33 LINE"
);
},
{
closed = 1;
nodes = (
"674 650 LINE",
"673 603 LINE",
"811 587 LINE",
"814 650 LINE"
);
},
{
closed = 1;
nodes = (
"809 650 LINE",
"830 583 LINE",
"863 593 OFFCURVE",
"899 604 OFFCURVE",
"929 618 CURVE",
"923 650 LINE"
);
}
);
};
layerId = UUID0;
name = Regular;
paths = (
{
closed = 1;
nodes = (
"11 650 LINE",
"10 603 LINE",
"148 587 LINE",
"151 650 LINE"
);
},
{
closed = 1;
nodes = (
"154 650 LINE",
"175 583 LINE",
"208 593 OFFCURVE",
"244 604 OFFCURVE",
"274 618 CURVE",
"268 650 LINE"
);
},
{
closed = 1;
nodes = (
"69 650 LINE",
"256 -10 LINE",
"293 -13 OFFCURVE",
"328 -10 OFFCURVE",
"363 -3 CURVE",
"335 59 LINE",
"310 59 LINE",
"299 175 LINE",
"169 650 LINE"
);
},
{
closed = 1;
nodes = (
"312 33 LINE",
"363 -3 LINE",
"445 259 LINE",
"464 372 LINE",
"481 372 LINE",
"508 442 LINE",
"444 483 LINE"
);
},
{
closed = 1;
nodes = (
"398 614 LINE",
"574 -10 LINE",
"611 -13 OFFCURVE",
"648 -10 OFFCURVE",
"683 -3 CURVE",
"655 59 LINE",
"625 59 LINE",
"609 172 LINE",
"495 639 LINE"
);
},
{
closed = 1;
nodes = (
"683 -3 LINE",
"867 650 LINE",
"790 650 LINE",
"631 33 LINE"
);
},
{
closed = 1;
nodes = (
"674 650 LINE",
"673 603 LINE",
"811 587 LINE",
"814 650 LINE"
);
},
{
closed = 1;
nodes = (
"809 650 LINE",
"830 583 LINE",
"863 593 OFFCURVE",
"899 604 OFFCURVE",
"929 618 CURVE",
"923 650 LINE"
);
}
);
width = 939;
},
{
associatedMasterId = UUID0;
layerId = "461AE155-99DD-4478-928E-4FE9D41BC532";
name = "new Layer May 3 14, 21:44";
paths = (
{
closed = 1;
nodes = (
"403 614 LINE",
"579 -10 LINE",
"579 -10 OFFCURVE",
"633 -13 OFFCURVE",
"688 -3 CURVE",
"664 31 LINE",
"660 59 LINE",
"630 59 LINE",
"614 172 LINE",
"500 639 LINE"
);
},
{
closed = 1;
nodes = (
"317 33 LINE",
"368 -3 LINE",
"450 259 LINE",
"469 372 LINE",
"486 372 LINE",
"513 442 LINE",
"449 483 LINE"
);
},
{
closed = 1;
nodes = (
"74 650 LINE",
"261 -10 LINE",
"261 -10 OFFCURVE",
"313 -13 OFFCURVE",
"368 -3 CURVE",
"344 31 LINE",
"340 59 LINE",
"315 59 LINE",
"304 175 LINE",
"174 650 LINE"
);
},
{
closed = 1;
nodes = (
"159 650 LINE",
"160 573 LINE",
"160 573 OFFCURVE",
"252 601 OFFCURVE",
"279 615 CURVE",
"273 650 LINE"
);
},
{
closed = 1;
nodes = (
"16 650 LINE",
"15 603 LINE",
"153 587 LINE",
"156 650 LINE"
);
},
{
closed = 1;
nodes = (
"814 650 LINE",
"815 573 LINE",
"815 573 OFFCURVE",
"907 601 OFFCURVE",
"934 615 CURVE",
"928 650 LINE"
);
},
{
closed = 1;
nodes = (
"679 650 LINE",
"678 603 LINE",
"816 587 LINE",
"819 650 LINE"
);
},
{
closed = 1;
nodes = (
"636 33 LINE",
"688 -3 LINE",
"871 643 LINE",
"794 645 LINE"
);
}
);
width = 930;
},
{
anchors = (
{
name = top;
position = "{556, 650}";
}
);
layerId = "818F884A-9448-4DD2-A77B-976162CCCBC7";
name = Bold;
paths = (
{
closed = 1;
nodes = (
"6 650 LINE",
"5 593 LINE",
"143 567 LINE",
"146 650 LINE"
);
},
{
closed = 1;
nodes = (
"297 650 LINE",
"298 553 LINE",
"337 573 OFFCURVE",
"370 594 OFFCURVE",
"397 618 CURVE",
"391 650 LINE"
);
},
{
closed = 1;
nodes = (
"57 650 LINE",
"294 -20 LINE",
"368 -11 OFFCURVE",
"432 -2 OFFCURVE",
"486 13 CURVE",
"435 164 LINE",
"395 165 LINE",
"392 304 LINE",
"298 650 LINE"
);
},
{
closed = 1;
nodes = (
"366 38 LINE",
"486 13 LINE",
"535 166 LINE",
"564 279 LINE",
"582 281 LINE",
"638 478 LINE",
"510 528 LINE"
);
},
{
closed = 1;
nodes = (
"447 650 LINE",
"674 -20 LINE",
"748 -11 OFFCURVE",
"812 -2 OFFCURVE",
"866 13 CURVE",
"815 164 LINE",
"770 165 LINE",
"772 304 LINE",
"698 650 LINE"
);
},
{
closed = 1;
nodes = (
"866 13 LINE",
"1049 650 LINE",
"906 650 LINE",
"746 38 LINE"
);
},
{
closed = 1;
nodes = (
"797 650 LINE",
"796 593 LINE",
"934 567 LINE",
"937 650 LINE"
);
},
{
closed = 1;
nodes = (
"997 650 LINE",
"998 553 LINE",
"1037 573 OFFCURVE",
"1070 594 OFFCURVE",
"1097 618 CURVE",
"1091 650 LINE"
);
}
);
width = 1102;
},
{
associatedMasterId = "818F884A-9448-4DD2-A77B-976162CCCBC7";
layerId = "6F9FB4F3-D1ED-44CF-A9FE-41A57A01075E";
name = "(null) May 10 14, 15:15";
width = 600;
}
);
leftKerningGroup = V;
leftMetricsKey = V;
rightKerningGroup = V;
rightMetricsKey = V;
unicode = 0057;
},
{
color = 3;
glyphname = X;
lastChange = "2014-11-10 17:59:04 +0000";
layers = (
{
layerId = UUID0;
name = Regular;
paths = (
{
closed = 1;
nodes = (
"201 587 LINE",
"204 650 LINE",
"64 650 LINE",
"63 603 LINE"
);
},
{
closed = 1;
nodes = (
"177 650 LINE",
"198 583 LINE",
"231 593 OFFCURVE",
"267 604 OFFCURVE",
"297 618 CURVE",
"291 650 LINE"
);
},
{
closed = 1;
nodes = (
"414 650 LINE",
"413 603 LINE",
"551 587 LINE",
"554 650 LINE"
);
},
{
closed = 1;
nodes = (
"520 650 LINE",
"541 583 LINE",
"574 593 OFFCURVE",
"610 604 OFFCURVE",
"640 618 CURVE",
"634 650 LINE"
);
},
{
closed = 1;
nodes = (
"91 57 OFFCURVE",
"55 46 OFFCURVE",
"25 32 CURVE",
"31 0 LINE",
"145 0 LINE",
"124 67 LINE"
);
},
{
closed = 1;
nodes = (
"137 0 LINE",
"277 0 LINE",
"278 47 LINE",
"140 63 LINE"
);
},
{
closed = 1;
nodes = (
"483 57 OFFCURVE",
"447 46 OFFCURVE",
"417 32 CURVE",
"423 0 LINE",
"537 0 LINE",
"516 67 LINE"
);
},
{
closed = 1;
nodes = (
"534 0 LINE",
"674 0 LINE",
"675 47 LINE",
"517 63 LINE"
);
},
{
closed = 1;
nodes = (
"95 650 LINE",
"526 0 LINE",
"640 0 LINE",
"202 650 LINE"
);
},
{
closed = 1;
nodes = (
"520 650 LINE",
"353 380 LINE",
"398 344 LINE",
"604 650 LINE"
);
},
{
closed = 1;
nodes = (
"55 0 LINE",
"152 0 LINE",
"360 332 LINE",
"308 368 LINE"
);
}
);
width = 700;
},
{
associatedMasterId = UUID0;
layerId = "35335C5D-7075-4B14-8925-667E2A7F5FD0";
name = "new Layer May 3 14, 21:44";
paths = (
{
closed = 1;
nodes = (
"355 380 LINE",
"400 344 LINE",
"588 623 LINE",
"512 634 LINE"
);
},
{
closed = 1;
nodes = (
"57 0 LINE",
"154 0 LINE",
"362 332 LINE",
"310 368 LINE"
);
},
{
closed = 1;
nodes = (
"97 650 LINE",
"511 26 LINE",
"614 43 LINE",
"204 650 LINE"
);
},
{
closed = 1;
nodes = (
"179 650 LINE",
"180 573 LINE",
"180 573 OFFCURVE",
"272 601 OFFCURVE",
"299 615 CURVE",
"293 650 LINE"
);
},
{
closed = 1;
nodes = (
"66 650 LINE",
"65 603 LINE",
"203 587 LINE",
"206 650 LINE"
);
},
{
closed = 1;
nodes = (
"522 650 LINE",
"523 573 LINE",
"523 573 OFFCURVE",
"615 601 OFFCURVE",
"642 615 CURVE",
"636 650 LINE"
);
},
{
closed = 1;
nodes = (
"416 650 LINE",
"415 603 LINE",
"553 587 LINE",
"556 650 LINE"
);
},
{
closed = 1;
nodes = (
"157 0 LINE",
"157 74 LINE",
"157 74 OFFCURVE",
"75 57 OFFCURVE",
"27 35 CURVE",
"33 0 LINE"
);
},
{
closed = 1;
nodes = (
"279 0 LINE",
"280 47 LINE",
"142 63 LINE",
"139 0 LINE"
);
},
{
closed = 1;
nodes = (
"629 0 LINE",
"549 74 LINE",
"549 74 OFFCURVE",
"467 57 OFFCURVE",
"419 35 CURVE",
"425 0 LINE"
);
},
{
closed = 1;
nodes = (
"676 0 LINE",
"677 47 LINE",
"539 63 LINE",
"505 0 LINE"
);
}
);
width = 707;
},
{
background = {
paths = (
{
closed = 1;
nodes = (
"357 380 LINE",
"402 344 LINE",
"590 623 LINE",
"514 634 LINE"
);
},
{
closed = 1;
nodes = (
"59 0 LINE",
"156 0 LINE",
"364 332 LINE",
"312 368 LINE"
);
},
{
closed = 1;
nodes = (
"99 650 LINE",
"513 26 LINE",
"616 43 LINE",
"206 650 LINE"
);
},
{
closed = 1;
nodes = (
"418 650 LINE",
"417 603 LINE",
"555 587 LINE",
"558 650 LINE"
);
},
{
closed = 1;
nodes = (
"524 650 LINE",
"545 583 LINE",
"578 593 OFFCURVE",
"614 604 OFFCURVE",
"644 618 CURVE",
"638 650 LINE"
);
},
{
closed = 1;
nodes = (
"68 650 LINE",
"67 603 LINE",
"205 587 LINE",
"208 650 LINE"
);
},
{
closed = 1;
nodes = (
"181 650 LINE",
"202 583 LINE",
"235 593 OFFCURVE",
"271 604 OFFCURVE",
"301 618 CURVE",
"295 650 LINE SMOOTH"
);
},
{
closed = 1;
nodes = (
"281 0 LINE",
"282 47 LINE",
"144 63 LINE",
"141 0 LINE"
);
},
{
closed = 1;
nodes = (
"149 0 LINE",
"128 67 LINE",
"95 57 OFFCURVE",
"59 46 OFFCURVE",
"29 32 CURVE",
"35 0 LINE"
);
},
{
closed = 1;
nodes = (
"678 0 LINE",
"679 47 LINE",
"521 63 LINE",
"538 0 LINE"
);
},
{
closed = 1;
nodes = (
"541 0 LINE",
"520 67 LINE",
"487 57 OFFCURVE",
"451 46 OFFCURVE",
"421 32 CURVE",
"427 0 LINE"
);
}
);
};
layerId = "818F884A-9448-4DD2-A77B-976162CCCBC7";
name = Bold;
paths = (
{
closed = 1;
nodes = (
"148 567 LINE",
"151 650 LINE",
"11 650 LINE",
"10 593 LINE"
);
},
{
closed = 1;
nodes = (
"301 650 LINE",
"302 553 LINE",
"341 573 OFFCURVE",
"374 594 OFFCURVE",
"401 618 CURVE",
"395 650 LINE"
);
},
{
closed = 1;
nodes = (
"421 650 LINE",
"420 593 LINE",
"558 567 LINE",
"561 650 LINE"
);
},
{
closed = 1;
nodes = (
"631 650 LINE",
"632 553 LINE",
"671 573 OFFCURVE",
"704 594 OFFCURVE",
"731 618 CURVE",
"725 650 LINE"
);
},
{
closed = 1;
nodes = (
"82 77 OFFCURVE",
"49 56 OFFCURVE",
"22 32 CURVE",
"28 0 LINE",
"122 0 LINE",
"121 97 LINE"
);
},
{
closed = 1;
nodes = (
"202 0 LINE",
"342 0 LINE",
"343 57 LINE",
"205 83 LINE"
);
},
{
closed = 1;
nodes = (
"412 77 OFFCURVE",
"379 56 OFFCURVE",
"352 32 CURVE",
"358 0 LINE",
"452 0 LINE",
"451 97 LINE"
);
},
{
closed = 1;
nodes = (
"602 0 LINE",
"742 0 LINE",
"743 57 LINE",
"605 83 LINE"
);
},
{
closed = 1;
nodes = (
"36 650 LINE",
"437 0 LINE",
"710 0 LINE",
"299 650 LINE"
);
},
{
closed = 1;
nodes = (
"544 650 LINE",
"367 380 LINE",
"488 344 LINE",
"714 650 LINE"
);
},
{
closed = 1;
nodes = (
"49 0 LINE",
"216 0 LINE",
"434 332 LINE",
"322 368 LINE"
);
}
);
width = 753;
},
{
associatedMasterId = "818F884A-9448-4DD2-A77B-976162CCCBC7";
layerId = "F40532A7-F520-43B3-9C70-A339831F2700";
name = "(null) May 10 14, 15:15";
width = 600;
}
);
unicode = 0058;
},
{
color = 3;
glyphname = Y;
lastChange = "2014-11-10 18:01:11 +0000";
layers = (
{
anchors = (
{
name = top;
position = "{304, 650}";
}
);
background = {
paths = (
{
closed = 1;
nodes = (
"339 0 LINE",
"339 277 LINE",
"249 277 LINE",
"249 0 LINE"
);
},
{
closed = 1;
nodes = (
"420 0 LINE",
"421 45 LINE",
"325 51 LINE",
"340 12 OFFCURVE",
"332 15 OFFCURVE",
"327 0 CURVE"
);
},
{
closed = 1;
nodes = (
"256 0 LINE",
"251 15 OFFCURVE",
"256 27 OFFCURVE",
"270 66 CURVE",
"270 66 OFFCURVE",
"199 46 OFFCURVE",
"171 33 CURVE",
"177 0 LINE"
);
},
{
closed = 1;
nodes = (
"293 281 LINE",
"315 281 LINE",
"315 314 LINE",
"293 314 LINE"
);
},
{
closed = 1;
nodes = (
"288 269 LINE",
"332 240 LINE",
"543 623 LINE",
"467 634 LINE"
);
},
{
closed = 1;
nodes = (
"43 650 LINE",
"262 226 LINE",
"331 282 LINE",
"318 308 LINE",
"302 307 LINE",
"270 408 LINE",
"147 650 LINE"
);
},
{
closed = 1;
nodes = (
"124 650 LINE",
"125 573 LINE",
"125 573 OFFCURVE",
"217 601 OFFCURVE",
"244 615 CURVE",
"238 650 LINE"
);
},
{
closed = 1;
nodes = (
"11 650 LINE",
"10 603 LINE",
"148 587 LINE",
"151 650 LINE"
);
},
{
closed = 1;
nodes = (
"477 650 LINE",
"478 573 LINE",
"478 573 OFFCURVE",
"570 601 OFFCURVE",
"597 615 CURVE",
"591 650 LINE"
);
},
{
closed = 1;
nodes = (
"371 650 LINE",
"370 603 LINE",
"508 587 LINE",
"511 650 LINE"
);
}
);
};
layerId = UUID0;
name = Regular;
paths = (
{
closed = 1;
nodes = (
"43 650 LINE",
"262 226 LINE",
"331 282 LINE",
"318 308 LINE",
"302 307 LINE",
"270 408 LINE",
"147 650 LINE"
);
},
{
closed = 1;
nodes = (
"11 650 LINE",
"10 603 LINE",
"148 587 LINE",
"151 650 LINE"
);
},
{
closed = 1;
nodes = (
"124 650 LINE",
"145 583 LINE",
"178 593 OFFCURVE",
"214 604 OFFCURVE",
"244 618 CURVE",
"238 650 LINE"
);
},
{
closed = 1;
nodes = (
"477 650 LINE",
"288 269 LINE",
"332 240 LINE",
"558 650 LINE"
);
},
{
closed = 1;
nodes = (
"371 650 LINE",
"370 603 LINE",
"508 587 LINE",
"511 650 LINE"
);
},
{
closed = 1;
nodes = (
"477 650 LINE",
"498 583 LINE",
"531 593 OFFCURVE",
"567 604 OFFCURVE",
"597 618 CURVE",
"591 650 LINE"
);
},
{
closed = 1;
nodes = (
"248 0 LINE",
"341 0 LINE",
"341 277 LINE",
"248 277 LINE"
);
},
{
closed = 1;
nodes = (
"236 57 OFFCURVE",
"200 46 OFFCURVE",
"170 32 CURVE",
"176 0 LINE",
"270 0 LINE",
"269 67 LINE"
);
},
{
closed = 1;
nodes = (
"282 0 LINE",
"422 0 LINE",
"423 47 LINE",
"285 63 LINE"
);
}
);
width = 607;
},
{
associatedMasterId = UUID0;
layerId = "4C06D615-8FE5-49DC-A930-E25C78FB6288";
name = "new Layer May 3 14, 21:44";
paths = (
{
closed = 1;
nodes = (
"334 0 LINE",
"334 277 LINE",
"244 277 LINE",
"244 0 LINE"
);
},
{
closed = 1;
nodes = (
"415 0 LINE",
"416 45 LINE",
"320 51 LINE",
"335 12 OFFCURVE",
"327 15 OFFCURVE",
"322 0 CURVE"
);
},
{
closed = 1;
nodes = (
"251 0 LINE",
"246 15 OFFCURVE",
"251 27 OFFCURVE",
"265 66 CURVE",
"265 66 OFFCURVE",
"194 46 OFFCURVE",
"166 33 CURVE",
"172 0 LINE"
);
},
{
closed = 1;
nodes = (
"288 281 LINE",
"310 281 LINE",
"310 314 LINE",
"288 314 LINE"
);
},
{
closed = 1;
nodes = (
"283 269 LINE",
"327 240 LINE",
"538 623 LINE",
"462 634 LINE"
);
},
{
closed = 1;
nodes = (
"38 650 LINE",
"257 226 LINE",
"326 282 LINE",
"313 308 LINE",
"297 307 LINE",
"265 408 LINE",
"142 650 LINE"
);
},
{
closed = 1;
nodes = (
"119 650 LINE",
"120 573 LINE",
"120 573 OFFCURVE",
"212 601 OFFCURVE",
"239 615 CURVE",
"233 650 LINE"
);
},
{
closed = 1;
nodes = (
"6 650 LINE",
"5 603 LINE",
"143 587 LINE",
"146 650 LINE"
);
},
{
closed = 1;
nodes = (
"472 650 LINE",
"473 573 LINE",
"473 573 OFFCURVE",
"565 601 OFFCURVE",
"592 615 CURVE",
"586 650 LINE"
);
},
{
closed = 1;
nodes = (
"366 650 LINE",
"365 603 LINE",
"503 587 LINE",
"506 650 LINE"
);
}
);
width = 598;
},
{
anchors = (
{
name = top;
position = "{396, 650}";
}
);
background = {
paths = (
{
closed = 1;
nodes = (
"27 650 LINE",
"314 136 LINE",
"506 173 LINE",
"455 324 LINE",
"417 325 LINE",
"412 464 LINE",
"268 650 LINE"
);
},
{
closed = 1;
nodes = (
"496 123 LINE",
"699 650 LINE",
"556 650 LINE",
"376 148 LINE"
);
}
);
};
layerId = "818F884A-9448-4DD2-A77B-976162CCCBC7";
name = Bold;
paths = (
{
closed = 1;
nodes = (
"53 650 LINE",
"262 226 LINE",
"451 322 LINE",
"428 368 LINE",
"400 367 LINE",
"383 468 LINE",
"270 650 LINE"
);
},
{
closed = 1;
nodes = (
"6 650 LINE",
"5 593 LINE",
"143 567 LINE",
"146 650 LINE"
);
},
{
closed = 1;
nodes = (
"260 650 LINE",
"261 553 LINE",
"300 573 OFFCURVE",
"333 594 OFFCURVE",
"360 618 CURVE",
"354 650 LINE"
);
},
{
closed = 1;
nodes = (
"547 650 LINE",
"378 299 LINE",
"482 250 LINE",
"688 650 LINE"
);
},
{
closed = 1;
nodes = (
"447 650 LINE",
"446 593 LINE",
"584 567 LINE",
"587 650 LINE"
);
},
{
closed = 1;
nodes = (
"627 650 LINE",
"628 553 LINE",
"667 573 OFFCURVE",
"700 594 OFFCURVE",
"727 618 CURVE",
"721 650 LINE"
);
},
{
closed = 1;
nodes = (
"260 0 LINE",
"489 0 LINE",
"489 338 LINE",
"260 338 LINE"
);
},
{
closed = 1;
nodes = (
"235 77 OFFCURVE",
"202 56 OFFCURVE",
"175 32 CURVE",
"181 0 LINE",
"275 0 LINE",
"274 97 LINE"
);
},
{
closed = 1;
nodes = (
"435 0 LINE",
"575 0 LINE",
"576 57 LINE",
"438 83 LINE"
);
}
);
width = 732;
},
{
associatedMasterId = "818F884A-9448-4DD2-A77B-976162CCCBC7";
layerId = "61D83964-99C5-4ECC-8F94-B29FADE3B234";
name = "(null) May 10 14, 15:15";
width = 600;
}
);
leftKerningGroup = Y;
leftMetricsKey = V;
rightKerningGroup = Y;
rightMetricsKey = V;
unicode = 0059;
},
{
color = 3;
glyphname = Z;
lastChange = "2014-11-10 18:06:28 +0000";
layers = (
{
background = {
anchors = (
{
name = top;
position = "{288, 650}";
}
);
paths = (
{
closed = 1;
nodes = (
"71 578 LINE",
"448 590 LINE",
"496 650 LINE",
"54 650 LINE"
);
},
{
closed = 1;
nodes = (
"443 607 LINE",
"408 595 LINE",
"15 12 LINE",
"53 -18 LINE",
"103 31 LINE",
"139 47 LINE",
"540 642 LINE",
"503 670 LINE"
);
},
{
closed = 1;
nodes = (
"113 74 LINE",
"44 8 LINE",
"517 -5 LINE",
"500 76 LINE"
);
},
{
closed = 1;
nodes = (
"134 605 LINE",
"54 650 LINE",
"51 617 OFFCURVE",
"53 529 OFFCURVE",
"64 468 CURVE",
"118 470 LINE"
);
},
{
closed = 1;
nodes = (
"442 35 LINE",
"517 -5 LINE",
"522 59 OFFCURVE",
"529 124 OFFCURVE",
"531 185 CURVE",
"474 191 LINE"
);
}
);
};
layerId = UUID0;
name = Regular;
paths = (
{
closed = 1;
nodes = (
"71 578 LINE",
"448 590 LINE",
"496 650 LINE",
"54 650 LINE"
);
},
{
closed = 1;
nodes = (
"443 607 LINE",
"397 595 LINE",
"30 34 LINE",
"54 0 LINE",
"103 31 LINE",
"144 47 LINE",
"519 618 LINE",
"496 650 LINE"
);
},
{
closed = 1;
nodes = (
"113 74 LINE",
"54 0 LINE",
"515 0 LINE",
"500 76 LINE"
);
},
{
closed = 1;
nodes = (
"134 605 LINE",
"54 650 LINE",
"51 617 OFFCURVE",
"53 529 OFFCURVE",
"64 468 CURVE",
"118 470 LINE"
);
},
{
closed = 1;
nodes = (
"442 35 LINE",
"515 0 LINE",
"523 64 OFFCURVE",
"529 124 OFFCURVE",
"531 185 CURVE",
"474 191 LINE"
);
}
);
width = 565;
},
{
associatedMasterId = UUID0;
layerId = "9260B3EB-BD33-45EF-AF26-1FE0A0710911";
name = "new Layer May 3 14, 21:44";
paths = (
{
closed = 1;
nodes = (
"399 595 LINE",
"8 12 LINE",
"42 -17 LINE",
"93 31 LINE",
"128 47 LINE",
"524 638 LINE",
"490 665 LINE",
"433 607 LINE"
);
},
{
closed = 1;
nodes = (
"472 640 LINE",
"54 650 LINE",
"71 565 LINE",
"304 569 LINE",
"438 580 LINE"
);
},
{
closed = 1;
nodes = (
"118 480 LINE",
"134 605 LINE",
"54 650 LINE",
"51 617 OFFCURVE",
"53 539 OFFCURVE",
"64 478 CURVE"
);
},
{
closed = 1;
nodes = (
"34 18 LINE",
"507 -5 LINE",
"490 86 LINE",
"103 84 LINE"
);
},
{
closed = 1;
nodes = (
"482 191 LINE",
"432 35 LINE",
"507 -5 LINE",
"520 39 OFFCURVE",
"533 122 OFFCURVE",
"535 183 CURVE"
);
}
);
width = 555;
},
{
anchors = (
{
name = top;
position = "{345, 650}";
}
);
background = {
paths = (
{
closed = 1;
nodes = (
"73 511 LINE",
"524 547 LINE",
"529 650 LINE",
"31 650 LINE"
);
},
{
closed = 1;
nodes = (
"479 607 LINE",
"370 595 LINE",
"-4 37 LINE",
"87 -26 LINE",
"152 41 LINE",
"252 47 LINE",
"631 619 LINE",
"549 678 LINE"
);
},
{
closed = 1;
nodes = (
"157 113 LINE",
"100 -1 LINE",
"598 -10 LINE",
"568 129 LINE"
);
},
{
closed = 1;
nodes = (
"252 581 LINE",
"31 650 LINE",
"24 561 OFFCURVE",
"21 452 OFFCURVE",
"36 383 CURVE",
"176 383 LINE"
);
},
{
closed = 1;
nodes = (
"363 12 LINE",
"597 -10 LINE",
"607 81 OFFCURVE",
"613 158 OFFCURVE",
"614 247 CURVE",
"475 258 LINE"
);
}
);
};
layerId = "818F884A-9448-4DD2-A77B-976162CCCBC7";
name = Bold;
paths = (
{
closed = 1;
nodes = (
"83 511 LINE",
"544 547 LINE",
"549 650 LINE",
"41 650 LINE"
);
},
{
closed = 1;
nodes = (
"499 607 LINE",
"390 595 LINE",
"20 96 LINE",
"90 -1 LINE",
"142 41 LINE",
"251 47 LINE",
"615 551 LINE",
"549 650 LINE"
);
},
{
closed = 1;
nodes = (
"147 113 LINE",
"90 -1 LINE",
"598 0 LINE",
"568 129 LINE"
);
},
{
closed = 1;
nodes = (
"262 581 LINE",
"41 650 LINE",
"34 561 OFFCURVE",
"31 452 OFFCURVE",
"46 383 CURVE",
"186 383 LINE"
);
},
{
closed = 1;
nodes = (
"363 12 LINE",
"598 0 LINE",
"608 91 OFFCURVE",
"613 158 OFFCURVE",
"614 247 CURVE",
"475 258 LINE"
);
}
);
width = 639;
},
{
associatedMasterId = "818F884A-9448-4DD2-A77B-976162CCCBC7";
layerId = "E8E2E0FF-46A0-40BD-BCE9-85AFD373B67A";
name = "(null) May 10 14, 15:15";
width = 600;
}
);
leftKerningGroup = Z;
rightKerningGroup = Z;
unicode = 005A;
},
{
color = 3;
glyphname = a;
lastChange = "2014-11-10 19:09:21 +0000";
layers = (
{
anchors = (
{
name = bottom;
position = "{236, -35}";
},
{
name = top;
position = "{250, 500}";
}
);
associatedMasterId = UUID0;
layerId = "62CFDEF9-809C-4757-A159-810AD5E1121E";
name = "new Layer May 3 14, 21:44";
paths = (
{
closed = 1;
nodes = (
"325 216 LINE",
"93 210 LINE",
"-8 112 OFFCURVE",
"25 -14 OFFCURVE",
"192 -12 CURVE",
"314 59 LINE",
"336 104 LINE"
);
},
{
closed = 1;
nodes = (
"390 303 LINE",
"390 356 OFFCURVE",
"390 399 OFFCURVE",
"380 414 CURVE SMOOTH",
"359 444 OFFCURVE",
"311 485 OFFCURVE",
"285 485 CURVE SMOOTH",
"218 485 OFFCURVE",
"117 451 OFFCURVE",
"56 411 CURVE",
"58 369 OFFCURVE",
"67 338 OFFCURVE",
"85 305 CURVE",
"138 314 LINE",
"146 403 LINE",
"173 412 OFFCURVE",
"213 417 OFFCURVE",
"251 417 CURVE",
"287 399 OFFCURVE",
"301 362 OFFCURVE",
"301 310 CURVE SMOOTH",
"301 210 LINE"
);
},
{
closed = 1;
nodes = (
"456 74 LINE",
"426 68 OFFCURVE",
"390 58 OFFCURVE",
"390 89 CURVE SMOOTH",
"390 310 LINE",
"301 317 LINE",
"301 60 LINE",
"304 60 LINE",
"322 16 OFFCURVE",
"364 -12 OFFCURVE",
"376 -12 CURVE",
"471 31 LINE"
);
},
{
closed = 1;
nodes = (
"136 74 OFFCURVE",
"127 88 OFFCURVE",
"127 108 CURVE SMOOTH",
"127 183 OFFCURVE",
"278 163 OFFCURVE",
"321 160 CURVE",
"314 101 LINE",
"283 86 OFFCURVE",
"207 57 OFFCURVE",
"149 59 CURVE"
);
}
);
width = 482;
},
{
anchors = (
{
name = ogonek;
position = "{515, 10}";
},
{
name = top;
position = "{264, 468}";
}
);
background = {
paths = (
{
closed = 1;
nodes = (
"75 350 LINE",
"90 357 OFFCURVE",
"139 398 OFFCURVE",
"217 409 CURVE",
"217 409 OFFCURVE",
"274 402 OFFCURVE",
"274 310 CURVE",
"503 324 LINE",
"503 376 OFFCURVE",
"501 409 OFFCURVE",
"491 425 CURVE SMOOTH",
"440 505 OFFCURVE",
"348 502 OFFCURVE",
"348 502 CURVE",
"39 454 LINE"
);
},
{
closed = 1;
nodes = (
"310 241 LINE",
"88 226 LINE",
"-68 144 OFFCURVE",
"9 -47 OFFCURVE",
"203 -12 CURVE",
"327 81 LINE",
"327 81 OFFCURVE",
"306 113 OFFCURVE",
"306 113 CURVE",
"233 98 LINE",
"208 132 OFFCURVE",
"222 170 OFFCURVE",
"275 171 CURVE SMOOTH",
"311 172 LINE"
);
},
{
closed = 1;
nodes = (
"274 310 LINE",
"274 71 LINE",
"298 71 LINE",
"346 -26 OFFCURVE",
"427 -18 OFFCURVE",
"427 -18 CURVE",
"581 74 LINE",
"581 119 LINE",
"503 119 LINE",
"503 324 LINE"
);
},
{
closed = 1;
nodes = (
"178 283 LINE",
"247 444 LINE",
"39 454 LINE",
"39 291 LINE"
);
}
);
};
layerId = "818F884A-9448-4DD2-A77B-976162CCCBC7";
name = Bold;
paths = (
{
closed = 1;
nodes = (
"56 196 OFFCURVE",
"30 151 OFFCURVE",
"30 108 CURVE SMOOTH",
"30 34 OFFCURVE",
"106 -34 OFFCURVE",
"228 -12 CURVE",
"352 81 LINE",
"331 113 LINE",
"307 108 OFFCURVE",
"282 103 OFFCURVE",
"258 98 CURVE",
"250 109 OFFCURVE",
"246 120 OFFCURVE",
"246 131 CURVE SMOOTH",
"246 153 OFFCURVE",
"264 170 OFFCURVE",
"300 171 CURVE SMOOTH",
"336 172 LINE",
"335 241 LINE",
"113 226 LINE"
);
},
{
closed = 1;
nodes = (
"54 398 OFFCURVE",
"54 343 OFFCURVE",
"64 289 CURVE",
"203 281 LINE",
"237 395 LINE",
"242 400 OFFCURVE",
"248 402 OFFCURVE",
"255 403 CURVE",
"272 394 OFFCURVE",
"299 371 OFFCURVE",
"299 308 CURVE SMOOTH",
"299 71 LINE",
"323 71 LINE",
"354 10 OFFCURVE",
"400 -18 OFFCURVE",
"452 -18 CURVE",
"606 74 LINE",
"606 119 LINE",
"580 119 OFFCURVE",
"568 119 OFFCURVE",
"551 119 CURVE SMOOTH",
"535 119 OFFCURVE",
"528 132 OFFCURVE",
"528 146 CURVE SMOOTH",
"528 322 LINE SMOOTH",
"528 374 OFFCURVE",
"526 407 OFFCURVE",
"516 423 CURVE",
"482 471 OFFCURVE",
"416 498 OFFCURVE",
"373 498 CURVE SMOOTH",
"270 498 OFFCURVE",
"167 484 OFFCURVE",
"64 452 CURVE"
);
}
);
width = 596;
},
{
associatedMasterId = "818F884A-9448-4DD2-A77B-976162CCCBC7";
layerId = "D8E44611-1755-4544-8953-9B98C2E84B96";
name = "new Layer May 10 14, 15:15";
paths = (
{
closed = 1;
nodes = (
"75 350 LINE",
"90 357 OFFCURVE",
"139 398 OFFCURVE",
"217 409 CURVE",
"217 409 OFFCURVE",
"274 402 OFFCURVE",
"274 310 CURVE",
"503 324 LINE",
"503 376 OFFCURVE",
"501 409 OFFCURVE",
"491 425 CURVE SMOOTH",
"440 505 OFFCURVE",
"348 502 OFFCURVE",
"348 502 CURVE",
"39 454 LINE"
);
},
{
closed = 1;
nodes = (
"310 241 LINE",
"88 226 LINE",
"-68 144 OFFCURVE",
"9 -47 OFFCURVE",
"203 -12 CURVE",
"327 81 LINE",
"327 81 OFFCURVE",
"306 113 OFFCURVE",
"306 113 CURVE",
"233 98 LINE",
"208 132 OFFCURVE",
"222 170 OFFCURVE",
"275 171 CURVE SMOOTH",
"311 172 LINE"
);
},
{
closed = 1;
nodes = (
"274 310 LINE",
"274 71 LINE",
"298 71 LINE",
"346 -26 OFFCURVE",
"427 -18 OFFCURVE",
"427 -18 CURVE",
"581 74 LINE",
"581 119 LINE",
"503 119 LINE",
"503 324 LINE"
);
},
{
closed = 1;
nodes = (
"178 283 LINE",
"247 444 LINE",
"39 454 LINE",
"39 291 LINE"
);
}
);
width = 587;
},
{
associatedMasterId = UUID0;
background = {
anchors = (
{
name = ogonek;
position = "{434, 12}";
},
{
name = top;
position = "{231, 468}";
}
);
paths = (
{
closed = 1;
nodes = (
"55 173 OFFCURVE",
"36 132 OFFCURVE",
"36 96 CURVE SMOOTH",
"36 35 OFFCURVE",
"88 -16 OFFCURVE",
"192 -15 CURVE",
"314 59 LINE",
"314 101 LINE",
"283 86 OFFCURVE",
"209 55 OFFCURVE",
"151 57 CURVE",
"136 67 OFFCURVE",
"125 82 OFFCURVE",
"125 103 CURVE SMOOTH",
"125 168 OFFCURVE",
"230 168 OFFCURVE",
"305 161 CURVE",
"321 160 LINE",
"325 216 LINE",
"93 210 LINE"
);
},
{
closed = 1;
nodes = (
"58 369 OFFCURVE",
"67 338 OFFCURVE",
"85.001 305 CURVE",
"138.001 314 LINE",
"146.001 403 LINE",
"173.001 412 OFFCURVE",
"213.001 417 OFFCURVE",
"251.001 417 CURVE",
"287 399 OFFCURVE",
"301 372 OFFCURVE",
"301 310 CURVE SMOOTH",
"301 82 LINE",
"301 68 LINE",
"310 29 OFFCURVE",
"354 -13 OFFCURVE",
"376 -15 CURVE",
"477 31 LINE",
"462 75 LINE",
"448 71 OFFCURVE",
"430 66 OFFCURVE",
"416 66 CURVE SMOOTH",
"401 66 OFFCURVE",
"390 71 OFFCURVE",
"390 86 CURVE",
"390 310 LINE",
"390 380 OFFCURVE",
"387 397 OFFCURVE",
"378 414 CURVE SMOOTH",
"363 442 OFFCURVE",
"315 484 OFFCURVE",
"270 484 CURVE SMOOTH",
"231 484 OFFCURVE",
"116 452 OFFCURVE",
"56 411 CURVE"
);
}
);
};
layerId = "99741629-BC66-447F-99E9-D33CF1B447AC";
name = "Regular Jun 28 14, 23:00";
paths = (
{
closed = 1;
nodes = (
"58 369 OFFCURVE",
"67 338 OFFCURVE",
"85.001 305 CURVE",
"138.001 314 LINE",
"146.001 403 LINE",
"173.001 412 OFFCURVE",
"213.001 417 OFFCURVE",
"251.001 417 CURVE",
"287 399 OFFCURVE",
"301 362 OFFCURVE",
"301 310 CURVE SMOOTH",
"301 82 LINE",
"301 68 LINE",
"310 29 OFFCURVE",
"354 -13 OFFCURVE",
"376 -15 CURVE",
"477 31 LINE",
"462 75 LINE",
"448 71 OFFCURVE",
"430 66 OFFCURVE",
"416 66 CURVE SMOOTH",
"401 66 OFFCURVE",
"390 71 OFFCURVE",
"390 86 CURVE",
"390 310 LINE",
"390 360 OFFCURVE",
"390 400 OFFCURVE",
"380 414 CURVE SMOOTH",
"359 444 OFFCURVE",
"311 484 OFFCURVE",
"285 484 CURVE SMOOTH",
"218 484 OFFCURVE",
"117 451 OFFCURVE",
"56 411 CURVE SMOOTH"
);
},
{
closed = 1;
nodes = (
"55 173 OFFCURVE",
"36 132 OFFCURVE",
"36 96 CURVE SMOOTH",
"36 35 OFFCURVE",
"88 -16 OFFCURVE",
"192 -15 CURVE",
"314 59 LINE",
"314 101 LINE",
"283 86 OFFCURVE",
"209 55 OFFCURVE",
"151 57 CURVE",
"136 67 OFFCURVE",
"125 82 OFFCURVE",
"125 103 CURVE SMOOTH",
"125 168 OFFCURVE",
"230 168 OFFCURVE",
"305 161 CURVE",
"321 160 LINE",
"325 216 LINE",
"93 210 LINE"
);
}
);
width = 487;
},
{
associatedMasterId = UUID0;
background = {
anchors = (
{
name = ogonek;
position = "{434, 12}";
},
{
name = top;
position = "{231, 468}";
}
);
paths = (
{
closed = 1;
nodes = (
"55 173 OFFCURVE",
"36 132 OFFCURVE",
"36 96 CURVE SMOOTH",
"36 35 OFFCURVE",
"88 -16 OFFCURVE",
"192 -15 CURVE",
"314 59 LINE",
"314 101 LINE",
"283 86 OFFCURVE",
"209 55 OFFCURVE",
"151 57 CURVE",
"136 67 OFFCURVE",
"125 82 OFFCURVE",
"125 103 CURVE SMOOTH",
"125 168 OFFCURVE",
"230 168 OFFCURVE",
"305 161 CURVE",
"321 160 LINE",
"325 216 LINE",
"93 210 LINE"
);
},
{
closed = 1;
nodes = (
"58 369 OFFCURVE",
"67 338 OFFCURVE",
"85.001 305 CURVE",
"138.001 314 LINE",
"146.001 403 LINE",
"173.001 412 OFFCURVE",
"213.001 417 OFFCURVE",
"251.001 417 CURVE",
"287 399 OFFCURVE",
"301 372 OFFCURVE",
"301 310 CURVE SMOOTH",
"301 82 LINE",
"301 68 LINE",
"310 29 OFFCURVE",
"354 -13 OFFCURVE",
"376 -15 CURVE",
"477 31 LINE",
"462 75 LINE",
"448 71 OFFCURVE",
"430 66 OFFCURVE",
"416 66 CURVE SMOOTH",
"401 66 OFFCURVE",
"390 71 OFFCURVE",
"390 86 CURVE",
"390 310 LINE",
"390 380 OFFCURVE",
"387 397 OFFCURVE",
"378 414 CURVE SMOOTH",
"363 442 OFFCURVE",
"315 484 OFFCURVE",
"270 484 CURVE SMOOTH",
"231 484 OFFCURVE",
"116 452 OFFCURVE",
"56 411 CURVE"
);
}
);
};
layerId = "34A7ABA3-A162-4600-B33D-8AFF8A21F82B";
name = "Regular Jun 28 14, 23:09";
paths = (
{
closed = 1;
nodes = (
"55 173 OFFCURVE",
"36 132 OFFCURVE",
"36 96 CURVE SMOOTH",
"36 35 OFFCURVE",
"88 -16 OFFCURVE",
"192 -15 CURVE",
"314 59 LINE",
"314 101 LINE",
"283 86 OFFCURVE",
"209 55 OFFCURVE",
"151 57 CURVE",
"136 67 OFFCURVE",
"125 82 OFFCURVE",
"125 103 CURVE SMOOTH",
"125 168 OFFCURVE",
"230 168 OFFCURVE",
"305 161 CURVE",
"321 160 LINE",
"325 216 LINE",
"93 210 LINE"
);
},
{
closed = 1;
nodes = (
"58 369 OFFCURVE",
"67 338 OFFCURVE",
"85.001 305 CURVE",
"138.001 314 LINE",
"146.001 403 LINE",
"173.001 412 OFFCURVE",
"213.001 417 OFFCURVE",
"251.001 417 CURVE",
"287 399 OFFCURVE",
"301 362 OFFCURVE",
"301 310 CURVE SMOOTH",
"301 82 LINE",
"301 68 LINE",
"310 29 OFFCURVE",
"354 -13 OFFCURVE",
"376 -15 CURVE",
"477 31 LINE",
"462 75 LINE",
"448 71 OFFCURVE",
"430 66 OFFCURVE",
"416 66 CURVE SMOOTH",
"401 66 OFFCURVE",
"390 71 OFFCURVE",
"390 86 CURVE",
"390 310 LINE",
"390 360 OFFCURVE",
"390 400 OFFCURVE",
"380 414 CURVE SMOOTH",
"359 444 OFFCURVE",
"311 484 OFFCURVE",
"285 484 CURVE SMOOTH",
"218 484 OFFCURVE",
"117 451 OFFCURVE",
"56 411 CURVE SMOOTH"
);
}
);
width = 487;
},
{
anchors = (
{
name = ogonek;
position = "{434, 12}";
},
{
name = top;
position = "{231, 468}";
}
);
associatedMasterId = UUID0;
background = {
paths = (
{
closed = 1;
nodes = (
"58 369 OFFCURVE",
"67 338 OFFCURVE",
"85.001 305 CURVE",
"138.001 314 LINE",
"146.001 403 LINE",
"173.001 412 OFFCURVE",
"213.001 417 OFFCURVE",
"251.001 417 CURVE",
"287 399 OFFCURVE",
"301 362 OFFCURVE",
"301 310 CURVE SMOOTH",
"301 82 LINE",
"301 68 LINE",
"310 29 OFFCURVE",
"354 -13 OFFCURVE",
"376 -15 CURVE",
"477 31 LINE",
"462 75 LINE",
"448 71 OFFCURVE",
"430 66 OFFCURVE",
"416 66 CURVE SMOOTH",
"401 66 OFFCURVE",
"390 71 OFFCURVE",
"390 86 CURVE",
"390 310 LINE",
"390 360 OFFCURVE",
"390 400 OFFCURVE",
"380 414 CURVE SMOOTH",
"359 444 OFFCURVE",
"311 484 OFFCURVE",
"285 484 CURVE SMOOTH",
"218 484 OFFCURVE",
"117 451 OFFCURVE",
"56 411 CURVE SMOOTH"
);
},
{
closed = 1;
nodes = (
"55 173 OFFCURVE",
"36 132 OFFCURVE",
"36 96 CURVE SMOOTH",
"36 35 OFFCURVE",
"88 -16 OFFCURVE",
"192 -15 CURVE",
"314 59 LINE",
"314 101 LINE",
"283 86 OFFCURVE",
"207 57 OFFCURVE",
"149 59 CURVE",
"136 74 OFFCURVE",
"127 88 OFFCURVE",
"127 108 CURVE SMOOTH",
"127 176 OFFCURVE",
"249 166 OFFCURVE",
"305 161 CURVE",
"321 160 LINE",
"325 216 LINE",
"93 210 LINE"
);
}
);
};
layerId = "97919F90-ABB8-4985-B212-531BE4CEB13C";
name = "Regular Jun 28 14, 23:15";
paths = (
{
closed = 1;
nodes = (
"55 181 OFFCURVE",
"36 140 OFFCURVE",
"36 102 CURVE SMOOTH",
"36 41 OFFCURVE",
"86 -16 OFFCURVE",
"192 -15 CURVE",
"314 59 LINE",
"314 101 LINE",
"283 86 OFFCURVE",
"209 55 OFFCURVE",
"151 57 CURVE",
"136 67 OFFCURVE",
"125 82 OFFCURVE",
"125 103 CURVE SMOOTH",
"125 168 OFFCURVE",
"230 168 OFFCURVE",
"305 161 CURVE",
"321 160 LINE",
"325 216 LINE",
"93 210 LINE"
);
},
{
closed = 1;
nodes = (
"58 369 OFFCURVE",
"67 338 OFFCURVE",
"85.001 305 CURVE",
"138.001 314 LINE",
"146.001 403 LINE",
"173.001 412 OFFCURVE",
"213.001 417 OFFCURVE",
"251.001 417 CURVE",
"287 399 OFFCURVE",
"301 372 OFFCURVE",
"301 310 CURVE SMOOTH",
"301 82 LINE",
"301 68 LINE",
"310 29 OFFCURVE",
"354 -13 OFFCURVE",
"376 -15 CURVE",
"477 31 LINE",
"462 75 LINE",
"448 71 OFFCURVE",
"430 66 OFFCURVE",
"416 66 CURVE SMOOTH",
"401 66 OFFCURVE",
"390 71 OFFCURVE",
"390 86 CURVE",
"390 310 LINE",
"390 380 OFFCURVE",
"387 397 OFFCURVE",
"378 414 CURVE SMOOTH",
"363 442 OFFCURVE",
"315 484 OFFCURVE",
"270 484 CURVE SMOOTH",
"231 484 OFFCURVE",
"116 452 OFFCURVE",
"56 411 CURVE"
);
}
);
width = 487;
},
{
associatedMasterId = UUID0;
background = {
anchors = (
{
name = ogonek;
position = "{434, 12}";
},
{
name = top;
position = "{231, 468}";
}
);
paths = (
{
closed = 1;
nodes = (
"55 181 OFFCURVE",
"36 140 OFFCURVE",
"36 102 CURVE SMOOTH",
"36 41 OFFCURVE",
"86 -16 OFFCURVE",
"192 -15 CURVE",
"314 59 LINE",
"314 101 LINE",
"283 86 OFFCURVE",
"209 55 OFFCURVE",
"151 57 CURVE",
"136 67 OFFCURVE",
"125 82 OFFCURVE",
"125 103 CURVE SMOOTH",
"125 168 OFFCURVE",
"230 168 OFFCURVE",
"305 161 CURVE",
"321 160 LINE",
"325 216 LINE",
"93 210 LINE"
);
},
{
closed = 1;
nodes = (
"58 369 OFFCURVE",
"67 338 OFFCURVE",
"85.001 305 CURVE",
"138.001 314 LINE",
"146.001 403 LINE",
"173.001 412 OFFCURVE",
"213.001 417 OFFCURVE",
"251.001 417 CURVE",
"287 399 OFFCURVE",
"301 372 OFFCURVE",
"301 310 CURVE SMOOTH",
"301 82 LINE",
"301 68 LINE",
"310 29 OFFCURVE",
"354 -13 OFFCURVE",
"376 -15 CURVE",
"477 31 LINE",
"462 75 LINE",
"448 71 OFFCURVE",
"430 66 OFFCURVE",
"416 66 CURVE SMOOTH",
"401 66 OFFCURVE",
"390 71 OFFCURVE",
"390 86 CURVE",
"390 310 LINE",
"390 380 OFFCURVE",
"387 397 OFFCURVE",
"378 414 CURVE SMOOTH",
"363 442 OFFCURVE",
"315 484 OFFCURVE",
"270 484 CURVE SMOOTH",
"231 484 OFFCURVE",
"116 452 OFFCURVE",
"56 411 CURVE"
);
}
);
};
layerId = "C4634456-D136-463C-8D57-86A8045DF468";
name = "Regular Jun 30 14, 14:59";
paths = (
{
closed = 1;
nodes = (
"58 184 OFFCURVE",
"35 143 OFFCURVE",
"35 104 CURVE SMOOTH",
"35 43 OFFCURVE",
"89 -16 OFFCURVE",
"192 -15 CURVE",
"314 59 LINE",
"314 101 LINE",
"283 86 OFFCURVE",
"209 55 OFFCURVE",
"151 57 CURVE",
"135 67 OFFCURVE",
"125 83 OFFCURVE",
"125 103 CURVE SMOOTH",
"125 167 OFFCURVE",
"230 168 OFFCURVE",
"305 161 CURVE",
"321 160 LINE",
"325 216 LINE",
"105 210 LINE"
);
},
{
closed = 1;
nodes = (
"58 369 OFFCURVE",
"67 338 OFFCURVE",
"85.001 305 CURVE",
"138 309 LINE",
"146 393 LINE",
"173 405 OFFCURVE",
"213 415 OFFCURVE",
"251.001 417 CURVE",
"287 399 OFFCURVE",
"301 372 OFFCURVE",
"301 310 CURVE SMOOTH",
"301 82 LINE",
"301 68 LINE",
"310 29 OFFCURVE",
"354 -13 OFFCURVE",
"376 -15 CURVE",
"477 31 LINE",
"462 75 LINE",
"448 71 OFFCURVE",
"430 66 OFFCURVE",
"416 66 CURVE SMOOTH",
"401 66 OFFCURVE",
"390 71 OFFCURVE",
"390 86 CURVE",
"390 310 LINE",
"390 380 OFFCURVE",
"387 397 OFFCURVE",
"378 414 CURVE SMOOTH",
"362 442 OFFCURVE",
"315 484 OFFCURVE",
"273 484 CURVE SMOOTH",
"230 484 OFFCURVE",
"106 442 OFFCURVE",
"56 411 CURVE"
);
}
);
width = 487;
},
{
background = {
anchors = (
{
name = ogonek;
position = "{449, 12}";
},
{
name = top;
position = "{246, 468}";
}
);
paths = (
{
closed = 1;
nodes = (
"70 181 OFFCURVE",
"51 140 OFFCURVE",
"51 102 CURVE SMOOTH",
"51 41 OFFCURVE",
"101 -16 OFFCURVE",
"207 -15 CURVE",
"329 59 LINE",
"329 101 LINE",
"298 86 OFFCURVE",
"224 55 OFFCURVE",
"166 57 CURVE",
"151 67 OFFCURVE",
"140 82 OFFCURVE",
"140 103 CURVE SMOOTH",
"140 168 OFFCURVE",
"245 168 OFFCURVE",
"320 161 CURVE",
"336 160 LINE",
"340 216 LINE",
"108 210 LINE"
);
},
{
closed = 1;
nodes = (
"73 369 OFFCURVE",
"82 338 OFFCURVE",
"100 305 CURVE",
"153 314 LINE",
"161 403 LINE",
"188 412 OFFCURVE",
"228 417 OFFCURVE",
"266 417 CURVE",
"302 399 OFFCURVE",
"316 372 OFFCURVE",
"316 310 CURVE SMOOTH",
"316 82 LINE",
"316 68 LINE",
"325 29 OFFCURVE",
"369 -13 OFFCURVE",
"391 -15 CURVE",
"492 31 LINE",
"477 75 LINE",
"463 71 OFFCURVE",
"445 66 OFFCURVE",
"431 66 CURVE SMOOTH",
"416 66 OFFCURVE",
"405 71 OFFCURVE",
"405 86 CURVE",
"405 310 LINE",
"405 380 OFFCURVE",
"402 397 OFFCURVE",
"393 414 CURVE SMOOTH",
"378 442 OFFCURVE",
"330 484 OFFCURVE",
"285 484 CURVE SMOOTH",
"246 484 OFFCURVE",
"131 452 OFFCURVE",
"71 411 CURVE"
);
}
);
};
layerId = UUID0;
name = Regular;
paths = (
{
closed = 1;
nodes = (
"70 183 OFFCURVE",
"50 142 OFFCURVE",
"50 104 CURVE SMOOTH",
"50 46 OFFCURVE",
"97 -26 OFFCURVE",
"207 -14 CURVE",
"329 60 LINE",
"329 102 LINE",
"298 87 OFFCURVE",
"228 56 OFFCURVE",
"170 58 CURVE",
"152 69 OFFCURVE",
"144 86 OFFCURVE",
"144 104 CURVE SMOOTH",
"144 168 OFFCURVE",
"246 171 OFFCURVE",
"320 164 CURVE",
"336 163 LINE",
"340 217 LINE",
"120 211 LINE"
);
},
{
closed = 1;
nodes = (
"65 379 OFFCURVE",
"74 344 OFFCURVE",
"92 311 CURVE",
"145 315 LINE",
"153 409 LINE",
"180 417 OFFCURVE",
"228 425 OFFCURVE",
"266 426 CURVE",
"302 408 OFFCURVE",
"316 381 OFFCURVE",
"316 319 CURVE SMOOTH",
"316 82 LINE",
"316 68 LINE",
"325 29 OFFCURVE",
"369 -13 OFFCURVE",
"391 -15 CURVE",
"492 31 LINE",
"477 75 LINE",
"463 71 OFFCURVE",
"445 66 OFFCURVE",
"431 66 CURVE SMOOTH",
"416 66 OFFCURVE",
"405 71 OFFCURVE",
"405 86 CURVE",
"405 319 LINE",
"405 389 OFFCURVE",
"402 406 OFFCURVE",
"393 423 CURVE SMOOTH",
"378 451 OFFCURVE",
"329 493 OFFCURVE",
"286 493 CURVE SMOOTH",
"245 493 OFFCURVE",
"123 455 OFFCURVE",
"63 421 CURVE"
);
}
);
width = 492;
}
);
leftKerningGroup = a;
rightKerningGroup = a;
unicode = 0061;
},
{
color = 3;
glyphname = ae;
lastChange = "2014-11-10 18:25:53 +0000";
layers = (
{
background = {
paths = (
{
closed = 1;
nodes = (
"328 101 LINE",
"297 86 OFFCURVE",
"221 57 OFFCURVE",
"163 59 CURVE",
"150 74 OFFCURVE",
"141 88 OFFCURVE",
"141 108 CURVE SMOOTH",
"141 183 OFFCURVE",
"292 163 OFFCURVE",
"335 160 CURVE",
"339 216 LINE",
"107 210 LINE",
"69 173 OFFCURVE",
"50 132 OFFCURVE",
"50 96 CURVE SMOOTH",
"50 35 OFFCURVE",
"102 -16 OFFCURVE",
"206 -15 CURVE",
"328 59 LINE"
);
}
);
};
layerId = UUID0;
name = Regular;
paths = (
{
closed = 1;
nodes = (
"72 369 OFFCURVE",
"81 338 OFFCURVE",
"99 305 CURVE",
"152 314 LINE",
"160 403 LINE",
"187 412 OFFCURVE",
"227 417 OFFCURVE",
"265 417 CURVE",
"301 399 OFFCURVE",
"317 362 OFFCURVE",
"317 310 CURVE SMOOTH",
"317 212 LINE",
"370 190 LINE",
"398 397 LINE",
"357 443 OFFCURVE",
"325 485 OFFCURVE",
"299 485 CURVE SMOOTH",
"232 485 OFFCURVE",
"131 451 OFFCURVE",
"70 411 CURVE"
);
},
{
closed = 1;
nodes = (
"69 173 OFFCURVE",
"50 132 OFFCURVE",
"50 96 CURVE SMOOTH",
"50 35 OFFCURVE",
"102 -16 OFFCURVE",
"206 -15 CURVE",
"369 76 LINE",
"344 108 LINE",
"313 90 OFFCURVE",
"221 57 OFFCURVE",
"163 59 CURVE",
"150 74 OFFCURVE",
"141 88 OFFCURVE",
"141 108 CURVE SMOOTH",
"141 155 OFFCURVE",
"200 165 OFFCURVE",
"255 165 CURVE SMOOTH",
"288 165 OFFCURVE",
"319 161 OFFCURVE",
"335 160 CURVE",
"339 216 LINE",
"107 210 LINE"
);
},
{
closed = 1;
nodes = (
"703 51 LINE",
"688 93 LINE",
"643 76 OFFCURVE",
"600 67 OFFCURVE",
"562 67 CURVE SMOOTH",
"469 67 OFFCURVE",
"402 119 OFFCURVE",
"402 240 CURVE SMOOTH",
"402 303 OFFCURVE",
"411 387 OFFCURVE",
"481 427 CURVE",
"569 433 OFFCURVE",
"625 366 OFFCURVE",
"625 278 CURVE",
"710 313 LINE",
"703 416 OFFCURVE",
"626 490 OFFCURVE",
"542 490 CURVE SMOOTH",
"469 490 OFFCURVE",
"416 447 OFFCURVE",
"377 396 CURVE",
"358 229 LINE",
"317 189 LINE",
"329 82 OFFCURVE",
"399 -12 OFFCURVE",
"547 -15 CURVE"
);
},
{
closed = 1;
nodes = (
"388 262 LINE",
"653 257 LINE",
"710 313 LINE",
"699 328 LINE",
"388 314 LINE"
);
}
);
width = 749;
},
{
associatedMasterId = UUID0;
layerId = "077C403C-511E-46B5-B34B-5EE687B3299E";
name = "new Layer May 3 14, 21:44";
paths = (
{
closed = 1;
nodes = (
"356 190 LINE",
"388 342 LINE",
"387 378 OFFCURVE",
"388 406 OFFCURVE",
"384 412 CURVE",
"370 412 LINE",
"346 440 OFFCURVE",
"308 485 OFFCURVE",
"285 485 CURVE SMOOTH",
"218 485 OFFCURVE",
"117 451 OFFCURVE",
"56 411 CURVE",
"58 369 OFFCURVE",
"67 338 OFFCURVE",
"85 305 CURVE",
"138 314 LINE",
"146 403 LINE",
"173 412 OFFCURVE",
"213 417 OFFCURVE",
"251 417 CURVE",
"287 399 OFFCURVE",
"303 362 OFFCURVE",
"303 310 CURVE SMOOTH",
"303 212 LINE"
);
},
{
closed = 1;
nodes = (
"674 93 LINE",
"522 35 OFFCURVE",
"387 69 OFFCURVE",
"388 240 CURVE SMOOTH",
"388 258 OFFCURVE",
"388 272 OFFCURVE",
"390 287 CURVE",
"390 301 LINE SMOOTH",
"389 333 OFFCURVE",
"422 401 OFFCURVE",
"467 425 CURVE",
"555 431 OFFCURVE",
"611 366 OFFCURVE",
"611 278 CURVE",
"696 313 LINE",
"689 416 OFFCURVE",
"612 485 OFFCURVE",
"528 485 CURVE SMOOTH",
"455 485 OFFCURVE",
"402 447 OFFCURVE",
"363 396 CURVE",
"344 229 LINE",
"303 189 LINE",
"315 82 OFFCURVE",
"385 -12 OFFCURVE",
"533 -15 CURVE",
"689 51 LINE"
);
},
{
closed = 1;
nodes = (
"374 262 LINE",
"639 257 LINE",
"696 313 LINE",
"685 328 LINE",
"374 314 LINE"
);
},
{
closed = 1;
nodes = (
"325 213 LINE",
"93 209 LINE",
"-8 111 OFFCURVE",
"25 -15 OFFCURVE",
"192 -13 CURVE",
"355 76 LINE",
"336 103 LINE"
);
},
{
closed = 1;
nodes = (
"135 73 OFFCURVE",
"126 87 OFFCURVE",
"126 107 CURVE SMOOTH",
"126 182 OFFCURVE",
"278 162 OFFCURVE",
"321 159 CURVE",
"330 108 LINE",
"299 93 OFFCURVE",
"206 56 OFFCURVE",
"148 58 CURVE"
);
}
);
width = 736;
},
{
layerId = "818F884A-9448-4DD2-A77B-976162CCCBC7";
name = Bold;
paths = (
{
closed = 1;
nodes = (
"59 400 OFFCURVE",
"59 345 OFFCURVE",
"69 291 CURVE",
"208 283 LINE",
"242 397 LINE",
"247 402 OFFCURVE",
"253 404 OFFCURVE",
"260 405 CURVE",
"277 396 OFFCURVE",
"303 373 OFFCURVE",
"304 310 CURVE SMOOTH",
"305 203 LINE",
"453 146 LINE",
"491 425 LINE",
"457 473 OFFCURVE",
"421 498 OFFCURVE",
"378 502 CURVE",
"275 502 OFFCURVE",
"172 486 OFFCURVE",
"69 454 CURVE"
);
},
{
closed = 1;
nodes = (
"61 196 OFFCURVE",
"35 151 OFFCURVE",
"35 108 CURVE SMOOTH",
"35 34 OFFCURVE",
"111 -34 OFFCURVE",
"233 -12 CURVE",
"357 81 LINE",
"336 113 LINE",
"312 108 OFFCURVE",
"287 103 OFFCURVE",
"263 98 CURVE",
"255 109 OFFCURVE",
"251 120 OFFCURVE",
"251 131 CURVE SMOOTH",
"251 152 OFFCURVE",
"258 163 OFFCURVE",
"293 169 CURVE SMOOTH",
"306 170 OFFCURVE",
"321 171 OFFCURVE",
"341 172 CURVE",
"340 241 LINE",
"118 226 LINE"
);
},
{
closed = 1;
nodes = (
"785 79 LINE",
"760 138 LINE",
"726 127 OFFCURVE",
"692 119 OFFCURVE",
"661 119 CURVE SMOOTH",
"560 119 OFFCURVE",
"524 206 OFFCURVE",
"524 291 CURVE SMOOTH",
"524 328 OFFCURVE",
"533 366 OFFCURVE",
"551 395 CURVE",
"603 376 OFFCURVE",
"599 321 OFFCURVE",
"592 269 CURVE",
"806 279 LINE",
"806 457 OFFCURVE",
"644 498 OFFCURVE",
"570 498 CURVE SMOOTH",
"519 498 OFFCURVE",
"472 486 OFFCURVE",
"432 465 CURVE",
"370 244 LINE",
"304 237 LINE",
"304 47 OFFCURVE",
"476 -39 OFFCURVE",
"622 -15 CURVE"
);
},
{
closed = 1;
nodes = (
"425 210 LINE",
"746 210 LINE",
"806 279 LINE",
"673 315 LINE",
"405 295 LINE"
);
}
);
width = 826;
},
{
associatedMasterId = "818F884A-9448-4DD2-A77B-976162CCCBC7";
layerId = "637F451B-1FE6-48AD-9C65-B7A11B41EF9B";
name = "(null) May 10 14, 15:15";
width = 600;
}
);
leftKerningGroup = a;
leftMetricsKey = a;
rightKerningGroup = e;
rightMetricsKey = e;
unicode = 00E6;
},
{
color = 3;
glyphname = b;
lastChange = "2014-11-10 19:09:40 +0000";
layers = (
{
background = {
paths = (
{
closed = 1;
nodes = (
"105 664 LINE",
"149 710 LINE",
"136 735 LINE",
"94 734 OFFCURVE",
"40 722 OFFCURVE",
"0 704 CURVE",
"12 657 LINE"
);
},
{
closed = 1;
nodes = (
"157 52 LINE",
"176 47 LINE",
"176 699 LINE",
"136 735 LINE",
"86 698 LINE",
"86 24 LINE"
);
},
{
closed = 1;
nodes = (
"138 334 LINE",
"204 376 OFFCURVE",
"272 401 OFFCURVE",
"315 397 CURVE SMOOTH",
"437 385 OFFCURVE",
"445 116 OFFCURVE",
"336 50 CURVE",
"233 34 OFFCURVE",
"163 84 OFFCURVE",
"148 113 CURVE",
"86 24 LINE",
"333 -88 OFFCURVE",
"506 48 OFFCURVE",
"506 248 CURVE SMOOTH",
"506 385 OFFCURVE",
"436 487 OFFCURVE",
"303 474 CURVE",
"138 373 LINE"
);
}
);
};
layerId = UUID0;
name = Regular;
paths = (
{
closed = 1;
nodes = (
"12 657 LINE",
"105 664 LINE",
"149 710 LINE",
"136 735 LINE",
"94 734 OFFCURVE",
"40 722 OFFCURVE",
"0 704 CURVE"
);
},
{
closed = 1;
nodes = (
"136 735 LINE",
"86 698 LINE",
"86 24 LINE",
"176 47 LINE",
"176 699 LINE"
);
},
{
closed = 1;
nodes = (
"147 334 LINE",
"198 370 OFFCURVE",
"250 406 OFFCURVE",
"298 406 CURVE SMOOTH",
"372 406 OFFCURVE",
"421 320 OFFCURVE",
"421 230 CURVE SMOOTH",
"421 158 OFFCURVE",
"390 83 OFFCURVE",
"336 50 CURVE",
"233 34 OFFCURVE",
"163 84 OFFCURVE",
"148 113 CURVE",
"86 24 LINE",
"147 -4 OFFCURVE",
"203 -19 OFFCURVE",
"257 -19 CURVE SMOOTH",
"408 -19 OFFCURVE",
"513 96 OFFCURVE",
"513 250 CURVE SMOOTH",
"513 390 OFFCURVE",
"426 504 OFFCURVE",
"293 484 CURVE",
"138 383 LINE"
);
}
);
width = 543;
},
{
associatedMasterId = UUID0;
layerId = "07E22464-3A18-4598-A77B-5273A1361F98";
name = "new Layer May 3 14, 21:44";
paths = (
{
closed = 1;
nodes = (
"100 664 LINE",
"144 710 LINE",
"131 735 LINE",
"89 734 OFFCURVE",
"35 722 OFFCURVE",
"-5 704 CURVE",
"7 657 LINE"
);
},
{
closed = 1;
nodes = (
"152 52 LINE",
"171 47 LINE",
"171 699 LINE",
"131 735 LINE",
"81 698 LINE",
"81 24 LINE"
);
},
{
closed = 1;
nodes = (
"133 334 LINE",
"199 376 OFFCURVE",
"267 401 OFFCURVE",
"310 397 CURVE SMOOTH",
"432 385 OFFCURVE",
"440 116 OFFCURVE",
"331 50 CURVE",
"228 34 OFFCURVE",
"158 84 OFFCURVE",
"143 113 CURVE",
"81 24 LINE",
"328 -88 OFFCURVE",
"501 48 OFFCURVE",
"501 248 CURVE SMOOTH",
"501 385 OFFCURVE",
"431 487 OFFCURVE",
"298 474 CURVE",
"133 373 LINE"
);
}
);
width = 537;
},
{
layerId = "818F884A-9448-4DD2-A77B-976162CCCBC7";
name = Bold;
paths = (
{
closed = 1;
nodes = (
"-10 643 LINE",
"141 581 LINE",
"238 636 LINE",
"248 737 LINE",
"152 732 OFFCURVE",
"66 718 OFFCURVE",
"-10 693 CURVE"
);
},
{
closed = 1;
nodes = (
"248 737 LINE",
"82 674 LINE",
"82 8 LINE",
"312 38 LINE",
"312 679 LINE"
);
},
{
closed = 1;
nodes = (
"217 304 LINE",
"256 331 OFFCURVE",
"287 343 OFFCURVE",
"311 343 CURVE SMOOTH",
"364 343 OFFCURVE",
"384 286 OFFCURVE",
"384 224 CURVE SMOOTH",
"384 170 OFFCURVE",
"369 111 OFFCURVE",
"349 82 CURVE",
"300 76 OFFCURVE",
"251 99 OFFCURVE",
"202 153 CURVE",
"82 8 LINE",
"141 -2 OFFCURVE",
"275 -12 OFFCURVE",
"340 -14 CURVE SMOOTH",
"539 -21 OFFCURVE",
"630 126 OFFCURVE",
"630 263 CURVE SMOOTH",
"630 390 OFFCURVE",
"552 508 OFFCURVE",
"410 487 CURVE",
"226 344 LINE"
);
}
);
width = 645;
},
{
associatedMasterId = "818F884A-9448-4DD2-A77B-976162CCCBC7";
layerId = "FD07D0AA-C3DB-4805-B0AC-AC901A737FD9";
name = "new Layer May 10 14, 15:15";
paths = (
{
closed = 1;
nodes = (
"143 51 LINE",
"266 38 LINE",
"266 646 LINE",
"266 646 OFFCURVE",
"36 674 OFFCURVE",
"36 674 CURVE",
"36 8 LINE"
);
},
{
closed = 1;
nodes = (
"-56 643 LINE",
"95 581 LINE",
"192 636 LINE",
"202 737 LINE",
"-56 693 LINE"
);
},
{
closed = 1;
nodes = (
"140 459 LINE",
"266 459 LINE",
"266 679 LINE",
"202 737 LINE",
"140 695 LINE"
);
},
{
closed = 1;
nodes = (
"171 304 LINE",
"373 445 OFFCURVE",
"357 160 OFFCURVE",
"303 82 CURVE",
"156 153 LINE",
"36 8 LINE",
"95 -2 OFFCURVE",
"229 -15 OFFCURVE",
"294 -14 CURVE",
"677 -27 OFFCURVE",
"659 530 OFFCURVE",
"364 487 CURVE",
"180 344 LINE"
);
}
);
width = 596;
},
{
associatedMasterId = UUID0;
background = {
paths = (
{
closed = 1;
nodes = (
"115 664 LINE",
"159 710 LINE",
"146 735 LINE",
"104 734 OFFCURVE",
"50 722 OFFCURVE",
"10 704 CURVE",
"22 657 LINE"
);
},
{
closed = 1;
nodes = (
"167 52 LINE",
"186 47 LINE",
"186 699 LINE",
"146 735 LINE",
"96 698 LINE",
"96 24 LINE"
);
},
{
closed = 1;
nodes = (
"148 334 LINE",
"214 376 OFFCURVE",
"282 401 OFFCURVE",
"325 397 CURVE SMOOTH",
"447 385 OFFCURVE",
"455 116 OFFCURVE",
"346 50 CURVE",
"243 34 OFFCURVE",
"173 84 OFFCURVE",
"158 113 CURVE",
"96 24 LINE",
"343 -88 OFFCURVE",
"516 48 OFFCURVE",
"516 248 CURVE SMOOTH",
"516 385 OFFCURVE",
"446 487 OFFCURVE",
"313 474 CURVE",
"148 373 LINE"
);
}
);
};
layerId = "7DB79928-2F48-4E41-B906-0EABEC5C6310";
name = "Regular Jun 30 14, 16:32";
paths = (
{
closed = 1;
nodes = (
"22 657 LINE",
"115 664 LINE",
"159 710 LINE",
"146 735 LINE",
"104 734 OFFCURVE",
"50 722 OFFCURVE",
"10 704 CURVE"
);
},
{
closed = 1;
nodes = (
"146 735 LINE",
"96 698 LINE",
"96 24 LINE",
"186 47 LINE",
"186 699 LINE"
);
},
{
closed = 1;
nodes = (
"148 334 LINE",
"222 381 OFFCURVE",
"283 410 OFFCURVE",
"325 407 CURVE SMOOTH",
"386 403 OFFCURVE",
"422 327 OFFCURVE",
"422 239 CURVE SMOOTH",
"422 166 OFFCURVE",
"397 81 OFFCURVE",
"346 50 CURVE",
"243 34 OFFCURVE",
"173 84 OFFCURVE",
"158 113 CURVE",
"96 24 LINE",
"157 -4 OFFCURVE",
"214 -19 OFFCURVE",
"266 -19 CURVE SMOOTH",
"418 -19 OFFCURVE",
"516 107 OFFCURVE",
"516 261 CURVE SMOOTH",
"516 393 OFFCURVE",
"445 498 OFFCURVE",
"313 484 CURVE",
"148 383 LINE"
);
}
);
width = 549;
}
);
leftKerningGroup = b;
rightKerningGroup = o;
rightMetricsKey = o;
unicode = 0062;
},
{
color = 3;
glyphname = c;
lastChange = "2014-11-11 20:34:03 +0000";
layers = (
{
anchors = (
{
name = bottom;
position = "{247, -35}";
},
{
name = top;
position = "{244, 500}";
}
);
associatedMasterId = UUID0;
layerId = "668C25EF-A7AC-4733-A3DD-5FBDE45214DD";
name = "new Layer May 3 14, 21:44";
paths = (
{
closed = 1;
nodes = (
"386 89 LINE",
"137 -27 OFFCURVE",
"64 261 OFFCURVE",
"185 419 CURVE",
"255 413 OFFCURVE",
"310 383 OFFCURVE",
"357 345 CURVE",
"410 416 LINE",
"369 456 OFFCURVE",
"313 482 OFFCURVE",
"258 482 CURVE SMOOTH",
"-26 482 OFFCURVE",
"-47 -11 OFFCURVE",
"258 -15 CURVE",
"403 45 LINE"
);
}
);
width = 439;
},
{
anchors = (
{
name = bottom;
position = "{255, 0}";
},
{
name = top;
position = "{275, 468}";
}
);
background = {
paths = (
{
closed = 1;
nodes = (
"469 140 LINE",
"445 134 OFFCURVE",
"422 132 OFFCURVE",
"402 132 CURVE SMOOTH",
"291 132 OFFCURVE",
"240 210 OFFCURVE",
"240 297 CURVE SMOOTH",
"240 331 OFFCURVE",
"246 366 OFFCURVE",
"263 398 CURVE",
"303 360 OFFCURVE",
"318 318 OFFCURVE",
"335 255 CURVE",
"508 336 LINE",
"464 461 OFFCURVE",
"380 499 OFFCURVE",
"286 499 CURVE SMOOTH",
"140 499 OFFCURVE",
"15 404 OFFCURVE",
"15 237 CURVE SMOOTH",
"15 47 OFFCURVE",
"179 -36 OFFCURVE",
"333 -15 CURVE",
"492 79 LINE"
);
}
);
};
layerId = "818F884A-9448-4DD2-A77B-976162CCCBC7";
name = Bold;
paths = (
{
closed = 1;
nodes = (
"469 154 LINE",
"428 136 OFFCURVE",
"390 128 OFFCURVE",
"358 128 CURVE SMOOTH",
"263 128 OFFCURVE",
"221 198 OFFCURVE",
"221 274 CURVE SMOOTH",
"221 317 OFFCURVE",
"234 362 OFFCURVE",
"258 398 CURVE",
"298 360 OFFCURVE",
"313 318 OFFCURVE",
"330 255 CURVE",
"503 336 LINE",
"458 465 OFFCURVE",
"369 498 OFFCURVE",
"282 498 CURVE SMOOTH",
"134 498 OFFCURVE",
"15 402 OFFCURVE",
"15 242 CURVE SMOOTH",
"15 41 OFFCURVE",
"202 -41 OFFCURVE",
"343 -11 CURVE",
"492 93 LINE"
);
}
);
width = 515;
},
{
associatedMasterId = "818F884A-9448-4DD2-A77B-976162CCCBC7";
background = {
paths = (
{
closed = 1;
nodes = (
"340 255 LINE",
"268 398 LINE",
"208 268 OFFCURVE",
"265 91 OFFCURVE",
"474 140 CURVE",
"497 79 LINE",
"338 -15 LINE",
"184 -36 OFFCURVE",
"20 47 OFFCURVE",
"20 237 CURVE SMOOTH",
"20 404 OFFCURVE",
"145 499 OFFCURVE",
"291 499 CURVE SMOOTH",
"385 499 OFFCURVE",
"469 461 OFFCURVE",
"513 336 CURVE"
);
}
);
};
layerId = "E85F70C3-B9A7-44C8-8615-C3D9BC7BEE6E";
name = "new Layer May 10 14, 15:15";
paths = (
{
closed = 1;
nodes = (
"340 255 LINE",
"268 398 LINE",
"208 268 OFFCURVE",
"265 91 OFFCURVE",
"474 140 CURVE",
"497 79 LINE",
"338 -15 LINE",
"184 -36 OFFCURVE",
"20 47 OFFCURVE",
"20 237 CURVE SMOOTH",
"20 404 OFFCURVE",
"145 499 OFFCURVE",
"291 499 CURVE SMOOTH",
"385 499 OFFCURVE",
"469 461 OFFCURVE",
"513 336 CURVE"
);
}
);
width = 520;
},
{
anchors = (
{
name = bottom;
position = "{245, 0}";
},
{
name = top;
position = "{245, 468}";
}
);
associatedMasterId = UUID0;
background = {
paths = (
{
closed = 1;
nodes = (
"385 89 LINE",
"136 -27 OFFCURVE",
"63 261 OFFCURVE",
"184 419 CURVE",
"254 413 OFFCURVE",
"309 383 OFFCURVE",
"356 345 CURVE",
"409 416 LINE",
"368 456 OFFCURVE",
"312 482 OFFCURVE",
"257 482 CURVE SMOOTH",
"-27 482 OFFCURVE",
"-48 -11 OFFCURVE",
"257 -15 CURVE",
"402 45 LINE"
);
}
);
};
layerId = "AFE2D18D-7D13-448C-8ABB-215739C73D78";
name = "Regular Jun 30 14, 13:45";
paths = (
{
closed = 1;
nodes = (
"385 84 LINE",
"345 65 OFFCURVE",
"310 57 OFFCURVE",
"279 57 CURVE SMOOTH",
"179 57 OFFCURVE",
"127 147 OFFCURVE",
"127 245 CURVE SMOOTH",
"127 312 OFFCURVE",
"146 375 OFFCURVE",
"184 425 CURVE",
"254 419 OFFCURVE",
"309 389 OFFCURVE",
"356 351 CURVE",
"409 422 LINE",
"368 462 OFFCURVE",
"312 488 OFFCURVE",
"257 488 CURVE SMOOTH",
"122 488 OFFCURVE",
"33 360 OFFCURVE",
"33 226 CURVE SMOOTH",
"33 105 OFFCURVE",
"107 -18 OFFCURVE",
"257 -20 CURVE",
"402 40 LINE"
);
}
);
width = 438;
},
{
anchors = (
{
name = bottom;
position = "{244, 0}";
},
{
name = top;
position = "{244, 468}";
}
);
associatedMasterId = UUID0;
background = {
paths = (
{
closed = 1;
nodes = (
"384 89 LINE",
"135 -27 OFFCURVE",
"62 261 OFFCURVE",
"183 419 CURVE",
"253 413 OFFCURVE",
"308 383 OFFCURVE",
"355 345 CURVE",
"408 416 LINE",
"367 456 OFFCURVE",
"311 482 OFFCURVE",
"256 482 CURVE SMOOTH",
"-28 482 OFFCURVE",
"-49 -11 OFFCURVE",
"256 -15 CURVE",
"401 45 LINE"
);
}
);
};
layerId = "FBE0ED97-2837-4E94-A2D1-07152DBB00F7";
name = "Regular Jun 30 14, 16:46";
paths = (
{
closed = 1;
nodes = (
"385 82 LINE",
"349 66 OFFCURVE",
"311 59 OFFCURVE",
"279 59 CURVE SMOOTH",
"167 59 OFFCURVE",
"112 146 OFFCURVE",
"112 243 CURVE SMOOTH",
"112 307 OFFCURVE",
"136 375 OFFCURVE",
"183 425 CURVE",
"242 421 OFFCURVE",
"304 391 OFFCURVE",
"355 351 CURVE",
"408 422 LINE",
"364 465 OFFCURVE",
"317 488 OFFCURVE",
"257 488 CURVE SMOOTH",
"125 488 OFFCURVE",
"29 377 OFFCURVE",
"29 231 CURVE SMOOTH",
"29 99 OFFCURVE",
"107 -18 OFFCURVE",
"266 -15 CURVE",
"402 40 LINE"
);
}
);
width = 437;
},
{
anchors = (
{
name = bottom;
position = "{242, 0}";
},
{
name = top;
position = "{242, 468}";
}
);
background = {
paths = (
{
closed = 1;
nodes = (
"382 89 LINE",
"133 -27 OFFCURVE",
"60 261 OFFCURVE",
"181 419 CURVE",
"251 413 OFFCURVE",
"306 383 OFFCURVE",
"353 345 CURVE",
"406 416 LINE",
"365 456 OFFCURVE",
"309 482 OFFCURVE",
"254 482 CURVE SMOOTH",
"-30 482 OFFCURVE",
"-51 -11 OFFCURVE",
"254 -15 CURVE",
"399 45 LINE"
);
}
);
};
layerId = UUID0;
name = Regular;
paths = (
{
closed = 1;
nodes = (
"383 82 LINE",
"347 66 OFFCURVE",
"308 59 OFFCURVE",
"279 59 CURVE SMOOTH",
"176 59 OFFCURVE",
"119 144 OFFCURVE",
"119 250 CURVE SMOOTH",
"119 312 OFFCURVE",
"139 376 OFFCURVE",
"181 425 CURVE",
"240 421 OFFCURVE",
"302 391 OFFCURVE",
"353 351 CURVE",
"406 422 LINE",
"362 465 OFFCURVE",
"315 488 OFFCURVE",
"255 488 CURVE SMOOTH",
"123 488 OFFCURVE",
"30 376 OFFCURVE",
"30 231 CURVE SMOOTH",
"30 98 OFFCURVE",
"109 -18 OFFCURVE",
"264 -15 CURVE",
"400 40 LINE"
);
}
);
width = 431;
}
);
leftKerningGroup = o;
leftMetricsKey = o;
rightKerningGroup = c;
unicode = 0063;
},
